v 273.401917 -36.791904 402.912415
v 273.738617 -36.732788 403.121399
v 274.134460 -36.690384 403.458893
v 274.613464 -36.715626 403.929749
v 274.895874 -36.879803 404.271637
v 272.842651 -36.747311 402.879395
v 273.187256 -36.608135 403.077820
v 273.553955 -36.592476 403.422913
v 274.018311 -36.571842 403.861450
v 274.451416 -36.669495 404.416382
v 274.781311 -37.041088 404.887360
v 272.209778 -36.728680 402.864929
v 272.530975 -36.591888 403.045746
v 272.864532 -36.582497 403.370544
v 273.304413 -36.582024 403.812469
v 273.789093 -36.573681 404.324066
v 274.136230 -36.804749 404.773102
v 271.576904 -36.678318 402.862213
v 271.904846 -36.565250 403.028412
v 272.191467 -36.564857 403.326111
v 272.621796 -36.596485 403.774841
v 273.030579 -36.638134 404.275024
v 273.385834 -36.816143 404.697968
v 270.853088 -36.656872 402.852295
v 271.183929 -36.505646 402.998657
v 271.498383 -36.528301 403.293396
v 271.813049 -36.629044 403.738739
v 272.410980 -36.805565 404.173218
v 272.811554 -36.905563 404.491974
v 269.893280 -36.646774 402.814392
v 270.564880 -36.411560 403.085144
v 270.772766 -36.456146 403.260986
v 270.988831 -36.710091 403.583801
v 269.440887 -36.501591 402.959137
v 270.179718 -36.514912 403.167908
v 270.474274 -36.659206 403.444183
v 263.916443 -36.156158 402.170410
v 264.370087 -36.059662 402.470825
v 264.600220 -35.903606 402.813263
v 264.782684 -35.815445 403.169464
v 264.786591 -35.936584 403.479004
v 262.396667 -35.898106 401.310394
v 262.765137 -35.910610 401.548584
v 263.180817 -35.912323 401.935242
v 263.604065 -35.616474 402.382751
v 263.784668 -35.466213 402.752014
v 264.002686 -35.516079 403.135284
v 264.381012 -35.666634 403.437073
v 261.283905 -35.776497 401.092224
v 261.949432 -35.605656 401.426392
v 262.402130 -35.427681 401.850922
v 262.647003 -35.226974 402.283661
v 262.812592 -35.074375 402.680878
v 263.023956 -35.183178 403.040436
v 260.893799 -35.546116 401.340302
v 261.657593 -35.276989 401.751038
v 261.957184 -35.119671 402.176422
v 262.197174 -34.958305 402.627319
v 262.352173 -35.128593 402.883362
v 273.437531 -36.794743 402.886444
v 273.780914 -37.012070 403.118469
v 274.565582 -37.024525 403.579529
v 275.043121 -37.066776 404.038422
v 275.300629 -37.260002 404.460785
v 273.256378 -36.880943 402.849701
v 273.172546 -37.094219 403.036377
v 275.056305 -37.001774 404.695831
v 275.052765 -37.432442 405.184174
v 275.369965 -37.844830 405.579437
v 272.484314 -36.967243 402.851227
v 272.435425 -37.176979 402.973694
v 274.584045 -37.244576 405.271179
v 274.834534 -37.643951 405.619232
v 271.787018 -36.983295 402.784943
v 273.775452 -37.221947 405.160645
v 274.062134 -37.646679 405.546906
v 271.068054 -36.929272 402.751648
v 272.048218 -37.069363 404.046173
v 272.421112 -37.287540 404.508057
v 272.983307 -37.335659 404.912628
v 273.464752 -37.605591 405.324249
v 270.482605 -36.739941 402.860046
v 269.740234 -36.690315 402.718689
v 271.358673 -37.075680 403.939056
v 271.686707 -37.457966 404.308594
v 269.339111 -36.953793 402.718567
v 269.792786 -36.515976 403.023804
v 270.052673 -36.704082 403.328979
v 270.670837 -36.924408 403.773438
v 270.941254 -37.341270 403.994843
v 268.903931 -37.270947 402.967682
v 269.288269 -36.886177 403.028107
v 269.588348 -36.812191 403.291779
v 269.886719 -37.134964 403.495361
v 268.110687 -37.469467 402.900513
v 268.813507 -37.200645 402.984650
v 268.999268 -37.087296 403.113525
v 265.091064 -36.724564 402.603333
v 265.540283 -36.722336 402.850616
v 265.626343 -36.749027 403.087097
v 263.691711 -36.757645 401.716064
v 264.189789 -36.637859 402.044403
v 264.537872 -36.561089 402.389832
v 265.158081 -36.325111 402.794891
v 265.109192 -36.371349 403.097198
v 264.952271 -36.396553 403.493927
v 262.620300 -36.116711 401.284973
v 262.928436 -36.285679 401.481720
v 263.795715 -36.381935 401.820129
v 263.952271 -35.819569 403.335785
v 264.443604 -36.038673 403.504974
v 262.378326 -36.015266 401.257080
v 262.147461 -36.177971 401.406189
v 262.587952 -35.904217 402.864502
v 263.142578 -35.634037 403.148224
v 261.567352 -35.625385 401.546783
v 261.653503 -35.555859 401.894318
v 261.958466 -35.411751 402.338104
v 262.309998 -35.444939 402.790588
v 262.509125 -35.402924 402.966675
v 275.496460 -37.969555 403.968140
v 275.989136 -37.899387 404.285461
v 276.338135 -37.968792 404.761230
v 276.516052 -38.292286 405.103790
v 274.463776 -37.525543 403.482391
v 275.003387 -37.650177 403.809692
v 275.540192 -37.494457 404.167267
v 275.751099 -37.740074 404.754456
v 276.107239 -37.983814 405.343292
v 276.033783 -38.493042 405.615509
v 273.739471 -37.488922 403.316376
v 275.456543 -37.510239 404.920959
v 275.705017 -37.709919 405.340210
v 275.490631 -38.245697 405.740326
v 275.539307 -38.848633 405.985870
v 272.248810 -37.233021 402.943878
v 272.918243 -37.518749 403.258820
v 275.080261 -38.045719 405.896271
v 275.128174 -38.583904 406.022797
v 272.149780 -37.277107 402.920013
v 272.109283 -37.661777 403.201355
v 274.231750 -38.193886 405.783844
v 274.654999 -38.570995 405.910126
v 271.519318 -37.303123 402.916748
v 271.378937 -37.697941 403.207672
v 272.746704 -37.643696 404.814240
v 272.975494 -37.816257 405.191864
v 273.372803 -38.083092 405.582123
v 270.717102 -37.243515 402.845367
v 270.637390 -37.653358 403.148010
v 271.969666 -37.680206 404.621429
v 272.092529 -38.029285 404.931335
v 272.714325 -38.113007 405.303619
v 270.065033 -37.107510 402.828308
v 269.914429 -37.387821 403.012909
v 270.551117 -37.449837 403.985321
v 271.213409 -37.692226 404.430511
v 271.484131 -37.909519 404.663818
v 269.028717 -37.225464 402.920776
v 269.396088 -37.193657 403.020691
v 269.608948 -37.293858 403.538055
v 270.191711 -37.379265 403.921692
v 270.363342 -37.775970 404.225006
v 268.889557 -37.344597 402.917236
v 268.899445 -37.317551 403.043457
v 269.255341 -37.310089 403.383667
v 269.488586 -37.547943 403.734100
v 269.624939 -37.672508 403.994141
v 266.199432 -37.281116 403.019073
v 266.402740 -37.301281 403.237061
v 266.440887 -37.278419 403.581757
v 266.476410 -37.361721 403.896332
v 265.202942 -36.917168 402.670227
v 265.382935 -37.016602 402.783295
v 265.692535 -37.003017 403.158783
v 265.867279 -37.017082 403.594727
v 265.891663 -37.179935 403.970825
v 263.690399 -36.909866 401.803284
v 263.926331 -37.014679 401.979523
v 264.667725 -37.001106 402.414551
v 264.600922 -37.193790 402.635559
v 265.458344 -36.645184 403.354584
v 265.082428 -36.788132 403.600769
v 265.185852 -36.977261 403.989777
v 263.195251 -36.946056 401.568542
v 263.051453 -37.150848 401.741302
v 263.989532 -36.293930 403.490021
v 264.271576 -36.578274 403.664886
v 264.682434 -36.782578 403.894104
v 262.438263 -36.707100 401.489746
v 262.273163 -36.652283 401.770966
v 262.450989 -36.577038 402.152100
v 262.910309 -36.061859 402.997192
v 263.324036 -36.235783 403.238678
v 263.675751 -36.517933 403.399017
v 261.804413 -36.156990 401.607025
v 261.941528 -36.036858 401.994568
v 262.179504 -35.953911 402.411255
v 262.491486 -36.041920 402.736755
v 262.595093 -36.334972 402.917145
v 278.092957 -38.335388 403.114838
v 278.467804 -38.286274 403.315063
v 278.329529 -38.663712 403.486267
v 277.372192 -39.012550 403.264374
v 278.147522 -38.397205 403.298950
v 278.141602 -38.457569 403.463806
v 275.513947 -38.928745 403.805023
v 275.913300 -38.586857 404.012878
v 276.324921 -38.415157 404.289246
v 276.622772 -38.395340 404.746277
v 276.625977 -38.640621 405.264404
v 276.693054 -39.190891 405.529541
v 275.054596 -38.282578 403.700745
v 275.123291 -38.685272 403.753082
v 276.446259 -38.348061 405.411682
v 276.105774 -38.895565 405.653625
v 276.156403 -39.629910 405.988647
v 274.236053 -38.473743 403.619446
v 274.449951 -38.925716 403.813293
v 275.977020 -38.700672 405.891602
v 275.705750 -39.370106 405.972626
v 273.395355 -38.268456 403.547516
v 275.160522 -39.300354 406.090912
v 272.630920 -38.234840 403.496643
v 274.249481 -38.747128 405.899811
v 274.469879 -39.115341 406.016968
v 271.913086 -38.271427 403.500275
v 273.483276 -38.763020 405.683136
v 273.829865 -39.148239 405.830231
v 271.171173 -38.239288 403.456116
v 272.125854 -38.513596 405.119873
v 272.782349 -38.617260 405.397156
v 270.426056 -38.144753 403.363617
v 271.029205 -38.066593 404.611511
v 271.428040 -38.388535 404.868958
v 269.661621 -37.939373 403.209808
v 270.640900 -38.206783 404.512817
v 270.774963 -38.438480 404.627075
v 269.126953 -37.670746 403.189362
v 269.192902 -37.901947 403.577087
v 269.441254 -38.015259 404.013214
v 269.946594 -38.097256 404.236328
v 267.846252 -38.010223 403.463562
v 268.278778 -38.006779 403.630554
v 268.621979 -38.012741 403.910492
v 266.946106 -37.875065 403.120483
v 267.307159 -37.894871 403.290863
v 267.575073 -37.788982 403.626556
v 267.763702 -37.853817 404.038452
v 267.603363 -38.058350 404.406799
v 265.846252 -37.839340 402.773468
v 266.379181 -37.664284 402.954590
v 266.837769 -37.573109 403.219513
v 266.958344 -37.569927 403.553894
v 266.866058 -37.611458 404.016144
v 267.007812 -37.877777 404.482574
v 265.069733 -37.762245 402.670776
v 265.867859 -37.491146 402.822693
v 266.069550 -37.600651 404.179352
v 266.433197 -37.725269 404.380310
v 263.898865 -37.554497 402.054077
v 264.479706 -37.481163 402.423157
v 265.146484 -37.360386 402.674072
v 265.303162 -37.390152 404.199005
v 265.224274 -37.756664 404.402466
v 262.701935 -37.239838 401.671997
v 263.139038 -37.368568 401.760986
v 264.231659 -37.098282 403.744263
v 264.580078 -37.279705 404.025055
v 264.909454 -37.507122 404.295441
v 262.583191 -37.109646 401.608521
v 262.642303 -37.078590 401.911072
v 262.793732 -37.043083 402.261658
v 262.939117 -36.888176 402.721527
v 263.282074 -36.728565 403.218018
v 263.761688 -36.880207 403.513489
v 262.455017 -36.480934 402.485779
v 262.591156 -36.521133 402.839996
v 262.695404 -36.598454 402.994934
v 277.545380 -38.424129 401.531708
v 278.071259 -38.451878 401.829071
v 278.405334 -38.629482 402.319183
v 278.310303 -38.987713 402.594971
v 276.873077 -38.930481 401.695679
v 277.641174 -38.442688 401.685242
v 277.939941 -38.506596 402.137421
v 278.221405 -38.622986 402.650635
v 278.497772 -38.504597 403.298676
v 278.250488 -38.940552 403.534973
v 278.127960 -38.405460 403.149994
v 278.242676 -38.559258 403.395630
v 278.132080 -38.870731 403.612518
v 277.197083 -39.237057 403.731384
v 277.639832 -38.966450 403.877899
v 277.842651 -39.017532 404.225800
v 277.781586 -39.372784 404.556305
v 276.659698 -39.534004 403.783478
v 277.064514 -38.951096 403.922241
v 277.300751 -38.841702 404.265839
v 277.371948 -39.155693 404.704956
v 277.214935 -39.616489 404.980255
v 275.863800 -39.586502 403.853088
v 276.439880 -38.950321 403.959442
v 276.667725 -38.767338 404.277893
v 276.973816 -38.836121 404.761292
v 276.898438 -39.189495 405.161987
v 276.761749 -39.666611 405.624146
v 276.766449 -40.327866 405.920746
v 275.136444 -39.557919 403.769531
v 274.667114 -39.311077 403.933167
v 276.551697 -39.493687 405.849060
v 276.347626 -40.119587 405.923065
v 274.460114 -39.554211 403.841431
v 274.914459 -39.288342 403.932404
v 275.748169 -40.166557 406.055847
v 275.544586 -40.580822 406.231384
v 273.720062 -39.391830 403.714508
v 275.226105 -39.948006 406.132477
v 275.152008 -40.421215 406.219086
v 273.021057 -39.165596 403.733490
v 272.828461 -39.879036 403.967834
v 274.535583 -39.885239 406.084991
v 274.683502 -40.240471 406.204803
v 272.336670 -38.979115 403.737701
v 272.155579 -39.602715 403.953613
v 273.225800 -39.348984 405.652039
v 273.911407 -39.595032 405.911713
v 271.643646 -38.872517 403.690430
v 271.386475 -39.383823 403.874573
v 272.128815 -38.911762 405.220764
v 272.481079 -39.205082 405.404449
v 270.922974 -38.763908 403.619385
v 270.626678 -39.199448 403.789429
v 271.498199 -39.034786 405.016205
v 271.812408 -39.317787 405.149597
v 270.173004 -38.625347 403.529175
v 269.843353 -39.012493 403.708923
v 270.370087 -38.574810 404.637909
v 270.832764 -38.927761 404.835754
v 269.501007 -38.355774 403.478455
v 269.149109 -38.644039 403.670166
v 269.316772 -38.356007 404.222229
v 269.904999 -38.792759 404.508545
v 270.097473 -38.985245 404.641266
v 268.080322 -38.190960 403.551422
v 268.395508 -38.423313 403.553162
v 268.821381 -38.355038 404.201569
v 268.901611 -38.623814 404.482788
v 267.169128 -38.055710 403.232147
v 267.407013 -38.164925 403.324493
v 267.570038 -38.532730 403.597290
v 268.123962 -38.103691 404.211243
v 268.065125 -38.444370 404.517303
v 265.972443 -37.982765 402.840057
v 266.234680 -38.111515 403.022491
v 266.557526 -38.421700 403.245392
v 267.182373 -38.254951 404.703369
v 265.163086 -38.101570 402.692383
v 265.333008 -38.396667 402.830566
v 265.928436 -37.898903 404.416962
v 266.334167 -38.058727 404.622437
v 266.363068 -38.601364 404.883240
v 263.796265 -38.164856 402.167999
v 264.326813 -38.108784 402.442871
v 265.658264 -37.731861 404.320679
v 265.597351 -38.091030 404.585632
v 265.950134 -38.351929 404.862671
v 263.178070 -38.005669 401.964874
v 264.308411 -37.653599 403.840240
v 264.504089 -38.007381 404.078308
v 265.001068 -38.075684 404.435303
v 265.310852 -38.335007 404.660461
v 262.824921 -37.610073 402.000916
v 262.855621 -37.513607 402.357697
v 263.006927 -37.392681 402.827362
v 263.272644 -37.347748 403.238068
v 263.739014 -37.573235 403.607239
v 264.146759 -38.041164 403.736816
v 262.206268 -38.023762 402.762482
v 262.567108 -37.606274 402.806244
v 276.989441 -39.074039 400.690582
v 277.356384 -38.758533 400.798950
v 277.778046 -38.707981 401.283478
v 278.157990 -38.966991 401.821808
v 278.499298 -39.246548 402.317108
v 278.558777 -39.749409 402.666840
v 276.281586 -39.586555 400.892731
v 276.977692 -38.825912 400.730896
v 277.240112 -38.634834 401.287598
v 277.429169 -38.783943 401.669373
v 277.856018 -39.095562 402.261139
v 278.290619 -39.359688 402.661957
v 277.510071 -39.340157 403.728180
v 277.687134 -39.340145 403.886169
v 277.789154 -39.492104 404.239136
v 277.628510 -39.781284 404.541351
v 277.130280 -39.707981 403.761810
v 276.733093 -40.276016 404.133972
v 277.322296 -40.209229 404.368683
v 277.157471 -40.085495 404.705170
v 276.981354 -40.115620 405.003815
v 275.960052 -40.561806 403.938782
v 276.043396 -40.966236 404.044678
v 276.804840 -40.340500 405.022156
v 276.787689 -40.144489 405.162750
v 276.653137 -40.495029 405.592377
v 276.598602 -40.790691 406.000305
v 275.223877 -40.785118 403.882629
v 276.389679 -40.970837 405.986694
v 276.372589 -40.872871 405.957733
v 276.167969 -41.208431 406.184998
v 274.574768 -40.731659 403.877991
v 276.021759 -40.472126 406.154968
v 275.807739 -41.065773 406.195068
v 273.985992 -40.517258 403.912140
v 273.692352 -40.941368 404.081299
v 275.206818 -40.897263 406.301727
v 273.449585 -40.132256 403.967957
v 273.232208 -40.450832 404.158997
v 272.953522 -40.609276 404.299866
v 274.300903 -40.387951 406.105957
v 274.701996 -40.672035 406.231110
v 272.526764 -40.224651 404.215454
v 272.628052 -40.418694 404.313843
v 273.164398 -39.860531 405.640106
v 273.846039 -40.086895 405.901306
v 271.755707 -39.862045 404.080658
v 271.347839 -40.198231 404.219788
v 271.851990 -40.068481 405.095459
v 272.445251 -39.812298 405.370728
v 270.915466 -39.825901 404.075104
v 270.953644 -40.124538 404.189758
v 271.516418 -39.720623 405.083374
v 271.916992 -39.502483 405.239441
v 270.086761 -39.566765 403.907104
v 270.768555 -39.592300 404.902435
v 269.329651 -39.357616 403.828369
v 269.695923 -39.311897 404.641876
v 270.226868 -39.481987 404.784454
v 268.589264 -39.002277 403.818390
v 268.412384 -39.261765 404.084412
v 269.133942 -39.167198 404.470703
v 266.992157 -38.790962 403.458710
v 267.845062 -38.849323 403.736176
v 267.886108 -39.063354 404.212860
v 268.033417 -38.921688 404.559326
v 265.867737 -38.634384 403.091949
v 266.430206 -38.696533 403.268158
v 267.265625 -38.821972 404.747803
v 264.887817 -38.559570 402.748016
v 265.055420 -38.607887 402.884369
v 266.789307 -38.698257 404.842255
v 266.687317 -39.243629 404.964203
v 263.833954 -38.609379 402.312073
v 264.029877 -38.734238 402.591431
v 264.427216 -39.129368 402.760590
v 266.167969 -39.019840 404.963074
v 263.335205 -38.590252 402.110474
v 263.485535 -39.038101 402.335724
v 264.164062 -39.010941 403.679840
v 264.573730 -38.608547 404.008636
v 265.091248 -38.703049 404.426819
v 265.528748 -38.886009 404.752136
v 262.793701 -38.185184 402.059357
v 262.838989 -38.132214 402.373444
v 262.860992 -38.079548 402.715912
v 263.297302 -38.042290 403.163818
v 263.906128 -38.333378 403.650360
v 264.233795 -38.329266 403.833618
v 262.553711 -37.792431 402.834564
v 262.731873 -37.923531 402.882721
v 277.022552 -39.110600 400.662048
v 277.315033 -39.192177 400.869720
v 277.804138 -39.388630 401.286926
v 278.046753 -39.750652 401.812653
v 278.344879 -39.745388 402.291016
v 278.316833 -40.418839 402.673706
v 277.079926 -39.029839 400.643250
v 276.890900 -39.036659 400.726898
v 277.104004 -39.286968 401.138947
v 277.689392 -39.689922 401.868439
v 278.173004 -39.781372 402.441193
v 278.207336 -40.254578 402.764404
v 276.676086 -41.104019 404.229034
v 277.073608 -41.042233 404.485107
v 276.924469 -41.279243 404.720276
v 275.609833 -41.622845 404.010132
v 276.089508 -41.385921 404.098236
v 276.828217 -40.666603 404.960358
v 276.685211 -41.059593 405.249359
v 276.625061 -41.217041 405.608429
v 276.686920 -41.663914 405.891235
v 275.080872 -41.670010 403.944763
v 276.581238 -40.869133 405.863525
v 276.492920 -41.257935 405.970428
v 276.220886 -41.684753 406.197418
v 274.595703 -41.583206 403.974304
v 274.233887 -41.851921 404.064606
v 275.815399 -41.584496 406.293274
v 274.218201 -41.247681 404.060913
v 273.973297 -41.457577 404.177063
v 273.720154 -41.557514 404.282654
v 275.205811 -41.465126 406.307800
v 273.605896 -40.927368 404.308441
v 273.167419 -41.133526 404.345123
v 274.258789 -40.878807 406.086182
v 274.666138 -41.199680 406.227020
v 272.358002 -40.423901 404.271790
v 272.526001 -40.728092 404.454895
v 272.321533 -40.933273 404.586487
v 273.201660 -40.420940 405.657440
v 273.798615 -40.571331 405.881042
v 271.994720 -40.356289 404.241669
v 271.825012 -40.481232 404.423340
v 271.849030 -40.573326 404.625977
v 272.107269 -40.385418 405.054138
v 272.689362 -40.373222 405.338867
v 270.696320 -40.156017 404.151611
v 271.136749 -40.315723 404.414673
v 271.331879 -40.368244 404.626129
v 271.559662 -40.144238 404.861816
v 270.374634 -40.100342 404.077606
v 270.397736 -40.284779 404.309448
v 270.660339 -40.240093 404.612213
v 270.855591 -40.016014 404.822021
v 269.676666 -39.931438 404.029999
v 269.656281 -40.080509 404.277466
v 270.104431 -39.997715 404.681580
v 270.306549 -39.846073 404.785492
v 269.035919 -39.633102 404.028931
v 269.171173 -39.672901 404.324677
v 269.350952 -39.611034 404.488983
v 266.894958 -39.151718 403.575256
v 267.072906 -39.254837 403.793335
v 267.479523 -39.343426 404.226776
v 267.592377 -39.427425 404.526428
v 265.835327 -39.156078 403.207397
v 266.069092 -39.297218 403.346161
v 266.497742 -39.524895 403.842712
v 267.006165 -39.654369 404.295593
v 267.208008 -39.527374 404.680328
v 265.130219 -39.196270 403.025269
v 265.224548 -39.584110 403.172577
v 266.950012 -39.390102 404.894714
v 266.761261 -39.937164 404.976898
v 263.959381 -39.312927 402.595642
v 264.376556 -39.296516 402.783508
v 266.248138 -39.780590 404.988220
v 263.283752 -39.156330 402.217133
v 263.412262 -39.221157 402.368591
v 264.403442 -39.314331 403.759583
v 264.770355 -39.280346 404.091919
v 265.163849 -39.533310 404.421204
v 265.605804 -39.663555 404.789642
v 262.852356 -38.734085 402.150055
v 262.883026 -38.820976 402.397034
v 262.989136 -38.854786 402.731659
v 263.212769 -38.864124 403.168762
v 263.878174 -39.206089 403.458435
v 277.795593 -40.406708 401.117004
v 278.456757 -40.516827 401.558624
v 278.714935 -40.687393 401.973511
v 278.574921 -41.139889 402.220398
v 276.925720 -40.259235 400.637024
v 277.531189 -39.993931 400.955597
v 278.038879 -40.074516 401.421783
v 278.230194 -40.441219 401.908722
v 278.524261 -40.931908 402.367950
v 278.242249 -41.525421 402.572693
v 276.268707 -40.648449 400.776062
v 277.007385 -39.925346 400.893005
v 277.180145 -40.149574 401.252106
v 277.658813 -40.433689 401.802307
v 277.921478 -40.888252 402.222229
v 277.962891 -41.372257 402.509521
v 276.118256 -42.261711 404.072235
v 276.564941 -41.893066 404.270142
v 276.859924 -41.934856 404.534821
v 276.762390 -42.194901 404.753357
v 275.590485 -42.226650 404.038239
v 276.239075 -41.750679 404.139923
v 276.662506 -41.689175 404.985992
v 276.629242 -41.974846 405.264221
v 276.568451 -42.035622 405.601715
v 276.518280 -42.171898 405.970734
v 274.533020 -42.400475 403.753052
v 275.055542 -42.298843 403.887482
v 276.308075 -42.349152 405.953491
v 276.470184 -41.986504 405.954620
v 276.250031 -42.292740 406.241302
v 273.960571 -42.265259 403.787415
v 274.363220 -42.282650 403.891052
v 274.100189 -41.942623 404.155273
v 275.839111 -42.233044 406.336792
v 275.644806 -42.602337 406.527985
v 273.677612 -42.197849 404.084747
v 273.920715 -42.074360 404.163300
v 273.535980 -41.703991 404.385712
v 275.212952 -42.098415 406.330261
v 275.421844 -42.387703 406.495544
v 273.161743 -41.979103 404.324341
v 273.458130 -41.705746 404.390106
v 273.108612 -41.862370 404.538361
v 274.243561 -41.412491 406.085236
v 274.701508 -41.668011 406.254211
v 272.937317 -41.231075 404.526093
v 272.641785 -41.416840 404.691833
v 273.257111 -41.016140 405.653503
v 273.808044 -41.131317 405.869690
v 272.326843 -40.932301 404.814545
v 272.374542 -40.997246 405.083191
v 272.797394 -40.981319 405.394501
v 265.868530 -39.920467 403.530212
v 266.554260 -40.113472 403.889435
v 266.906067 -40.101490 404.309204
v 267.082336 -40.340961 404.621338
v 264.799683 -39.875111 402.991882
v 265.328827 -39.879585 403.225891
v 266.930969 -40.020027 404.876648
v 266.738342 -40.571968 404.953644
v 264.259125 -39.933201 402.703339
v 264.173553 -39.907021 402.826813
v 266.296875 -40.501308 404.971344
v 263.614258 -39.682129 402.578979
v 263.541534 -39.881378 402.745575
v 263.788910 -40.046173 403.138947
v 264.431152 -40.073822 403.636841
v 264.811676 -40.118797 404.074371
v 265.202576 -40.346920 404.443054
v 265.652710 -40.425060 404.788361
v 262.999451 -39.402039 402.520630
v 263.214417 -39.558666 402.845734
v 263.614838 -39.646698 403.287415
v 264.031433 -39.875591 403.531158
v 278.053070 -40.720501 401.270660
v 278.469055 -40.746132 401.500885
v 278.744263 -40.981739 401.967865
v 278.494781 -41.379124 402.181519
v 276.977386 -40.397747 400.646912
v 277.706299 -40.634418 401.073334
v 277.929749 -40.862900 401.450012
v 278.227234 -41.132160 401.939117
v 278.619171 -41.341568 402.365814
v 278.129181 -41.790970 402.560211
v 277.052673 -40.374573 400.662598
v 277.173004 -40.469872 400.959198
v 277.552490 -40.790325 401.562836
v 277.835632 -41.070618 402.021088
v 278.096344 -41.343098 402.452240
v 278.044586 -41.821838 402.676422
v 276.268311 -42.331398 404.083710
v 276.478638 -42.458500 404.300568
v 276.664429 -42.518444 404.588745
v 276.542175 -42.551132 404.732697
v 275.904968 -42.562141 404.083893
v 275.784485 -42.931515 404.303619
v 276.229736 -42.846348 404.587585
v 276.466370 -42.620316 404.905182
v 276.586426 -42.672874 405.226929
v 276.527466 -42.781906 405.498871
v 274.782135 -42.485271 403.733246
v 275.158112 -42.733921 403.969299
v 274.978851 -42.904255 404.126251
v 276.444397 -42.368279 405.767090
v 276.433350 -42.586246 406.061523
v 276.354858 -42.959850 406.352173
v 276.353455 -43.209011 406.559784
v 274.507843 -42.465424 403.760956
v 274.454987 -42.629883 403.923096
v 274.296722 -42.814323 404.069611
v 276.130432 -42.530422 406.448517
v 275.961456 -43.138031 406.561737
v 274.077087 -42.407173 403.976440
v 273.925171 -42.577625 404.082062
v 273.801697 -42.698780 404.244904
v 273.786346 -42.707237 404.482819
v 275.092712 -42.640575 406.463562
v 275.434448 -42.872917 406.585602
v 273.617432 -42.255306 404.204071
v 273.596954 -42.228333 404.420197
v 273.472870 -42.226231 404.672821
v 273.470581 -42.212280 404.986603
v 273.807465 -42.051384 405.486359
v 274.182404 -41.906818 406.000214
v 274.733307 -42.230652 406.296265
v 273.052612 -41.788990 404.836273
v 273.129761 -41.806904 405.168488
v 273.478027 -41.598484 405.665649
v 273.891235 -41.563610 405.995453
v 272.558655 -41.472065 404.926208
v 272.734161 -41.460548 405.262299
v 272.832031 -41.342091 405.495026
v 266.053650 -40.640602 403.691376
v 266.272705 -40.506138 403.853210
v 266.756989 -40.652706 404.223267
v 266.999115 -40.949593 404.595032
v 264.992249 -40.395020 403.145233
v 265.273193 -40.468708 403.370270
v 265.505157 -40.832600 403.800629
v 266.325806 -40.947849 404.260193
v 266.801880 -40.927208 404.712250
v 266.721161 -41.235596 404.874542
v 264.422638 -40.549366 403.028564
v 264.742218 -40.699078 403.387512
v 265.093750 -41.168480 403.671967
v 266.303558 -41.162033 404.930298
v 263.864777 -40.281006 402.946014
v 264.108398 -40.637299 403.315735
v 264.508118 -40.780281 403.732758
v 264.887238 -40.984367 404.080505
v 265.209778 -41.094021 404.446228
v 265.671539 -41.149139 404.765839
v 278.335480 -42.297123 401.726532
v 278.744049 -42.122524 402.069305
v 278.879669 -42.244823 402.365967
v 278.928284 -42.814095 402.653412
v 277.892914 -42.162750 401.756500
v 278.224670 -42.021397 402.020111
v 278.448059 -42.089455 402.364410
v 278.583862 -42.455509 402.626617
v 276.788971 -42.621525 401.743286
v 277.646423 -42.199684 401.926788
v 277.892456 -42.274773 402.275879
v 277.993378 -42.675415 402.576172
v 275.879059 -42.983402 404.430756
v 275.957550 -43.158470 404.544159
v 276.164032 -43.187595 404.804077
v 276.340271 -43.099144 405.172028
v 276.273682 -43.274445 405.486389
v 275.471130 -43.127087 404.324066
v 275.310699 -43.490486 404.474457
v 275.710785 -43.433720 404.767731
v 275.993011 -43.340622 405.169159
v 276.285095 -43.123325 405.652069
v 276.483337 -43.193428 406.114746
v 276.473633 -43.664371 406.416351
v 276.242493 -43.388290 406.560944
v 274.797546 -43.114063 404.218842
v 274.480286 -43.401733 404.249939
v 276.063019 -43.492729 406.549652
v 275.947510 -43.842472 406.601410
v 274.226440 -42.918674 404.176575
v 274.125122 -43.046597 404.333771
v 273.909668 -43.174644 404.529968
v 275.109131 -43.261864 406.506226
v 275.524506 -43.400574 406.612213
v 273.745911 -42.667110 404.771240
v 273.827942 -42.639355 405.138702
v 274.143982 -42.472713 405.655365
v 274.419159 -42.686695 406.080597
v 274.729614 -43.030762 406.356812
v 265.155365 -41.679810 403.508453
v 265.710358 -41.344810 403.887634
v 266.190704 -41.358665 404.269653
v 266.593750 -41.510632 404.593384
v 266.720032 -41.926823 404.802460
v 264.312378 -41.245842 403.110962
v 264.844391 -41.395046 403.419220
v 265.209839 -41.261303 403.580719
v 266.276855 -41.819416 404.882599
v 264.014221 -41.056553 403.049957
v 264.223541 -41.502445 403.360718
v 264.580994 -41.662697 403.745697
v 264.921204 -41.774162 404.100769
v 265.267334 -41.832779 404.449463
v 265.744171 -41.853207 404.740784
v 278.444977 -42.578438 401.829041
v 278.755768 -42.352463 402.054077
v 278.953339 -42.571529 402.384033
v 278.728699 -43.179993 402.607330
v 278.288239 -42.334946 401.765411
v 278.249817 -42.559235 402.051147
v 278.480011 -42.755066 402.395294
v 278.644165 -42.818481 402.646027
v 277.712006 -42.318069 401.807159
v 277.829498 -42.497845 402.123413
v 278.079010 -42.704994 402.494537
v 278.004669 -43.050659 402.678986
v 275.315216 -43.505386 404.585205
v 275.386414 -43.608418 404.730988
v 275.742859 -43.528564 405.162262
v 276.093140 -43.425823 405.642059
v 276.309082 -43.621258 406.089325
v 276.318451 -43.634674 406.340851
v 274.937103 -43.609028 404.437622
v 274.828308 -43.690197 404.677399
v 275.129822 -43.592587 405.124573
v 275.491516 -43.521336 405.631439
v 275.758087 -43.684818 406.115540
v 276.027069 -43.911190 406.431000
v 275.640686 -43.821796 406.578949
v 274.356781 -43.454449 404.432373
v 274.285583 -43.490417 404.717957
v 274.493439 -43.433228 405.151215
v 274.871399 -43.397976 405.691742
v 275.170166 -43.539909 406.190674
v 275.258881 -43.946495 406.446320
v 275.460785 -43.745716 406.619537
v 273.946960 -43.127552 404.873352
v 274.140503 -43.054710 405.324768
v 274.485687 -43.115757 405.860535
v 274.695953 -43.367622 406.249115
v 274.810242 -43.433479 406.453857
v 265.485535 -41.852207 403.712311
v 265.751404 -42.037464 403.876556
v 266.175873 -41.970406 404.250458
v 266.641541 -42.329945 404.620361
v 266.768890 -42.574039 404.828156
v 264.400452 -42.038502 403.172638
v 265.077393 -42.068867 403.508881
v 265.080048 -42.365879 403.681488
v 266.220154 -42.664783 404.784698
v 266.423370 -42.557240 404.833099
v 264.118195 -41.888935 403.125549
v 264.279968 -42.245975 403.405029
v 264.623016 -42.385986 403.752686
v 264.982147 -42.462635 404.097229
v 265.278625 -42.474854 404.474762
v 265.725433 -42.497227 404.745270
v 265.624115 -42.610535 403.990601
v 266.311890 -42.738213 404.258759
v 266.298218 -42.816135 404.458984
v 264.633301 -42.601513 403.324799
v 265.030762 -42.802841 403.527405
v 265.317993 -42.725437 403.698914
v 265.887207 -43.087082 404.404083
v 266.103851 -43.000404 404.571655
v 265.784058 -43.171890 404.723358
v 264.298828 -42.530289 403.230927
v 264.389557 -42.807304 403.496216
v 264.706238 -42.979488 403.746979
v 265.005981 -43.046413 404.142639
v 265.528107 -43.043850 404.558350
v 265.755951 -43.278809 404.796417
v 265.816193 -43.575832 403.569397
v 266.011719 -43.684673 403.640564
v 265.637299 -43.904957 403.594269
v 265.891510 -43.363029 403.813568
v 265.733887 -43.097721 404.009125
v 264.900574 -43.303574 403.643280
v 265.525574 -43.163204 403.887939
v 265.817902 -43.183765 404.237274
v 265.523041 -43.752644 404.364319
v 264.714539 -43.207394 403.604004
v 264.921967 -43.336029 403.901123
v 265.353119 -43.490833 404.222626
v 265.352386 -43.724232 404.457703
v 265.113861 -44.352234 402.517426
v 265.423309 -44.210739 402.904144
v 266.018921 -44.083210 403.438812
v 266.152252 -44.243595 403.651825
v 264.827454 -44.787949 402.497070
v 265.034454 -44.238918 402.759918
v 265.546814 -44.033527 403.334595
v 265.785065 -44.048553 403.689148
v 266.457336 -45.073784 402.357727
v 266.987091 -44.915791 402.728241
v 267.129303 -45.048107 402.979462
v 264.834229 -45.053753 400.837524
v 264.982483 -44.949303 401.096649
v 265.221436 -44.946716 401.596558
v 265.860931 -44.852051 402.212952
v 266.400665 -44.697079 402.809296
v 266.741150 -44.785599 403.158783
v 264.346649 -44.812420 400.945831
v 264.579956 -44.719261 401.187866
v 264.740234 -44.756191 401.628143
v 265.300476 -44.601849 402.247223
v 265.792664 -44.468021 402.823578
v 266.276947 -44.577141 403.398712
v 266.158264 -44.848503 403.652130
v 263.939819 -45.289131 401.038849
v 264.089508 -44.799091 401.115631
v 264.167175 -44.827938 401.482208
v 264.890625 -44.729015 402.221039
v 264.864990 -44.640621 402.800629
v 265.350708 -44.609798 403.331299
v 265.865631 -44.690910 403.638733
v 265.431274 -45.724190 400.671356
v 265.679413 -45.652107 401.005707
v 266.083862 -45.613262 401.505341
v 266.789001 -45.339031 402.121399
v 267.229797 -45.279972 402.609741
v 267.584656 -45.301586 403.215515
v 267.675415 -45.841259 403.379639
v 264.562225 -45.382961 399.855865
v 264.903168 -45.277252 400.067749
v 264.885406 -45.312164 400.251068
v 265.049133 -45.383175 400.701874
v 265.349945 -45.268494 401.032898
v 265.696747 -45.252750 401.552887
v 266.226135 -45.266106 401.926392
v 266.850952 -45.180363 403.361420
v 267.278778 -45.629059 403.369110
v 264.033356 -45.692356 399.936279
v 264.146667 -45.331181 400.158051
v 264.492493 -45.106140 400.343811
v 264.689148 -45.057438 400.602875
v 266.294678 -45.017967 403.468781
v 266.237244 -45.523998 403.648590
v 263.552277 -45.545341 400.180237
v 263.954559 -45.174164 400.340485
v 264.028137 -45.145123 400.807404
v 263.964539 -45.194111 401.108002
v 264.054474 -45.312206 401.568024
v 264.446075 -45.320930 402.131989
v 264.959198 -45.251278 402.749634
v 265.379150 -45.253571 403.342285
v 265.903992 -45.389812 403.656494
v 268.166931 -46.303646 402.207550
v 268.691071 -46.318180 402.541443
v 268.795471 -46.494946 402.783203
v 266.171295 -46.382751 400.700500
v 266.548981 -46.357174 401.060242
v 266.984406 -46.375931 401.482910
v 267.765564 -46.273182 402.069000
v 268.085022 -45.981155 402.544220
v 268.337524 -46.214157 402.863647
v 265.114655 -45.942257 399.882111
v 265.355988 -46.108654 400.091797
v 265.588379 -45.990879 400.625092
v 266.172333 -45.944817 401.000458
v 266.580902 -45.912247 401.491852
v 267.035950 -45.813400 401.994995
v 267.467651 -45.711071 402.555206
v 267.639435 -45.926899 403.043304
v 267.392853 -46.252514 403.378235
v 264.468384 -45.456150 399.724365
v 264.719910 -45.811340 400.003204
v 265.097870 -45.644348 400.130005
v 265.280670 -45.799847 400.346466
v 266.992676 -45.881618 403.314423
v 267.383392 -46.676445 403.601318
v 263.977173 -45.696922 399.885406
v 264.371094 -45.698608 399.865021
v 265.253021 -46.430988 402.800018
v 266.117432 -45.919785 403.224243
v 265.914429 -46.455708 403.497986
v 263.351501 -46.018734 399.855377
v 263.641571 -45.562046 400.113007
v 263.802887 -45.528324 400.355133
v 263.883362 -45.687473 400.719452
v 263.966400 -45.846020 401.124146
v 264.134338 -45.971279 401.592560
v 264.437164 -46.024014 402.137207
v 265.238861 -46.032055 402.933075
v 265.706299 -45.796574 403.467468
v 265.857269 -46.724838 403.692017
v 267.370697 -47.161030 401.286896
v 267.868286 -47.161125 401.597443
v 268.481812 -46.832611 402.045959
v 268.840027 -46.864841 402.506378
v 268.577484 -47.024651 402.764313
v 265.979401 -46.976772 400.337097
v 266.527130 -46.735161 400.715363
v 266.984192 -46.789089 401.141754
v 267.494812 -46.709457 401.533630
v 267.931152 -46.527073 401.856049
v 268.169952 -47.073067 402.661560
v 268.482849 -46.652184 402.891052
v 265.366608 -46.448467 399.853210
v 265.681580 -46.625706 400.185608
v 266.052643 -46.516319 400.416046
v 267.367310 -47.282257 402.804749
v 267.664917 -46.838074 402.925446
v 264.576721 -46.418121 399.764099
v 265.081879 -46.297970 399.897705
v 265.611481 -47.699707 402.296692
v 265.993469 -46.969959 402.480042
v 266.766357 -46.540512 402.956421
v 264.345490 -45.974094 399.814941
v 264.048157 -46.299042 399.908997
v 265.317078 -47.088379 402.325745
v 265.856049 -46.493294 402.872620
v 266.009766 -46.320415 402.990295
v 263.883545 -45.838699 399.857574
v 263.789703 -45.944359 400.041229
v 263.810394 -46.161339 400.388947
v 263.946777 -46.449318 400.755524
v 264.045746 -46.652813 401.156067
v 264.207367 -46.766159 401.649689
v 264.856262 -46.757206 402.385986
v 265.033691 -46.725830 402.588898
v 267.028442 -47.870274 400.908875
v 267.765442 -47.600044 401.312958
v 268.035461 -47.549953 401.702576
v 268.247833 -47.408787 402.034119
v 268.033234 -47.449295 402.288269
v 266.157532 -47.498657 400.360016
v 266.735046 -47.531982 400.761719
v 267.142303 -47.333958 400.973602
v 267.205841 -47.878979 401.930267
v 267.832397 -47.757164 402.175629
v 267.918488 -47.427277 402.338348
v 265.435883 -47.267044 399.924652
v 265.758392 -47.412586 400.168732
v 266.920654 -47.883114 402.251373
v 267.358734 -47.287266 402.600677
v 266.983063 -48.270905 402.900665
v 264.569733 -47.154961 399.818970
v 264.999786 -46.911366 399.969391
v 265.079041 -47.233082 400.155518
v 265.240326 -47.536072 400.626007
v 265.400055 -47.758118 401.108002
v 265.597046 -47.832893 401.599457
v 266.032043 -47.378239 402.194519
v 266.674561 -47.321754 402.653351
v 266.836731 -47.945507 403.000977
v 264.564972 -46.552910 399.800995
v 264.536285 -46.694336 399.959351
v 264.591034 -47.055164 400.337677
v 264.748627 -47.387047 400.763184
v 264.858093 -47.530308 401.169861
v 265.000336 -47.633987 401.653503
v 265.223145 -47.531849 402.040405
v 263.985321 -46.515560 400.103668
v 264.040955 -46.904541 400.472382
v 264.174957 -47.142750 400.873657
v 264.284637 -47.300697 401.305847
v 264.503235 -47.404408 401.809174
v 264.691315 -47.972580 402.129730
v 272.440765 -48.742661 403.030853
v 272.651489 -48.723900 403.174438
v 272.802551 -48.812248 403.419342
v 271.824799 -48.868141 402.959503
v 272.297089 -48.676853 403.114929
v 272.575775 -48.703255 403.370514
v 267.035370 -48.109360 400.919556
v 267.563263 -48.213055 401.243500
v 267.207764 -48.363388 401.519165
v 266.211761 -48.283104 400.495056
v 267.025848 -48.359226 400.923462
v 267.199799 -48.681057 401.394409
v 267.404114 -48.542614 401.904053
v 266.805359 -48.626907 402.060181
v 265.132599 -48.437943 400.203949
v 265.869354 -48.087605 400.471191
v 265.936859 -48.537807 400.858276
v 266.375092 -48.817623 401.504730
v 266.931702 -48.738022 401.919373
v 266.934357 -48.328300 402.115814
v 265.280304 -47.666901 400.032959
v 265.400757 -47.844063 400.426208
v 265.699463 -48.134041 401.023224
v 265.972076 -48.263809 401.560791
v 266.179718 -48.303169 401.969177
v 266.057098 -48.858868 402.199219
v 272.627106 -48.875954 402.956512
v 272.701019 -49.015957 403.121521
v 272.691376 -48.988876 403.320770
v 272.339691 -48.914654 402.966827
v 272.408508 -48.997704 403.199585
v 272.569000 -48.879822 403.421692
v 265.822998 -49.295998 400.605682
v 266.667023 -49.066250 401.046875
v 267.120789 -49.340809 401.571564
v 266.591217 -50.705009 401.950989
v 266.085419 -48.856659 400.697937
v 266.477112 -49.227863 401.293091
v 266.900208 -49.571125 401.834717
v 266.455994 -50.331123 402.028839
f 1 2 60
f 2 61 60
f 60 61 65
f 61 66 65
f 1 60 65
f 1 65 6
f 1 7 2
f 1 6 7
f 2 3 61
f 3 62 61
f 2 8 3
f 2 7 8
f 3 4 62
f 4 63 62
f 3 9 4
f 3 8 9
f 4 5 63
f 5 64 63
f 4 10 5
f 4 9 10
f 5 67 64
f 5 10 67
f 65 66 70
f 66 71 70
f 6 65 70
f 6 70 12
f 6 13 7
f 6 12 13
f 7 14 8
f 7 13 14
f 8 15 9
f 8 14 15
f 9 16 10
f 9 15 16
f 10 11 67
f 11 68 67
f 10 17 11
f 10 16 17
f 11 72 68
f 11 17 72
f 12 70 74
f 12 74 18
f 12 19 13
f 12 18 19
f 13 20 14
f 13 19 20
f 14 21 15
f 14 20 21
f 15 22 16
f 15 21 22
f 16 23 17
f 16 22 23
f 17 75 72
f 17 23 75
f 18 74 77
f 18 77 24
f 18 25 19
f 18 24 25
f 19 26 20
f 19 25 26
f 20 27 21
f 20 26 27
f 21 28 22
f 21 27 28
f 78 79 28
f 78 28 27
f 22 29 23
f 22 28 29
f 79 80 29
f 79 29 28
f 23 80 75
f 23 29 80
f 24 77 82
f 24 82 30
f 24 31 25
f 24 30 31
f 82 83 31
f 82 31 30
f 25 32 26
f 25 31 32
f 26 33 27
f 26 32 33
f 27 84 78
f 27 33 84
f 31 83 87
f 31 87 34
f 31 35 32
f 31 34 35
f 87 88 35
f 87 35 34
f 32 36 33
f 32 35 36
f 88 89 36
f 88 36 35
f 33 89 84
f 33 36 89
f 37 38 102
f 38 103 102
f 37 102 109
f 37 109 44
f 37 45 38
f 37 44 45
f 38 39 103
f 39 104 103
f 38 46 39
f 38 45 46
f 39 40 104
f 40 105 104
f 39 47 40
f 39 46 47
f 40 41 105
f 41 106 105
f 40 48 41
f 40 47 48
f 110 111 48
f 110 48 47
f 41 111 106
f 41 48 111
f 42 43 107
f 43 108 107
f 107 108 112
f 108 113 112
f 42 107 112
f 42 112 49
f 42 50 43
f 42 49 50
f 112 113 50
f 112 50 49
f 43 44 108
f 44 109 108
f 43 51 44
f 43 50 51
f 44 52 45
f 44 51 52
f 45 53 46
f 45 52 53
f 46 54 47
f 46 53 54
f 47 115 110
f 47 54 115
f 50 113 116
f 50 116 55
f 50 56 51
f 50 55 56
f 116 117 56
f 116 56 55
f 51 57 52
f 51 56 57
f 117 118 57
f 117 57 56
f 52 58 53
f 52 57 58
f 118 119 58
f 118 58 57
f 114 115 119
f 115 120 119
f 53 59 54
f 53 58 59
f 119 120 59
f 119 59 58
f 54 120 115
f 54 59 120
f 61 62 125
f 62 126 125
f 61 125 131
f 61 131 66
f 62 63 126
f 63 127 126
f 63 64 127
f 64 128 127
f 64 132 128
f 64 67 132
f 66 131 137
f 66 137 71
f 67 68 132
f 68 133 132
f 68 69 133
f 69 134 133
f 68 73 69
f 68 72 73
f 69 138 134
f 69 73 138
f 70 71 136
f 71 137 136
f 136 137 140
f 137 141 140
f 70 136 140
f 70 140 74
f 72 76 73
f 72 75 76
f 73 142 138
f 73 76 142
f 140 141 144
f 141 145 144
f 74 140 144
f 74 144 77
f 146 147 80
f 146 80 79
f 75 81 76
f 75 80 81
f 147 148 81
f 147 81 80
f 76 148 142
f 76 81 148
f 144 145 149
f 145 150 149
f 77 144 149
f 77 149 82
f 78 85 79
f 78 84 85
f 79 151 146
f 79 85 151
f 149 150 154
f 150 155 154
f 82 149 154
f 82 154 86
f 82 87 83
f 82 86 87
f 154 155 87
f 154 87 86
f 84 90 85
f 84 89 90
f 156 157 90
f 156 90 89
f 85 157 151
f 85 90 157
f 87 155 160
f 87 160 92
f 87 93 88
f 87 92 93
f 88 94 89
f 88 93 94
f 161 162 94
f 161 94 93
f 89 162 156
f 89 94 162
f 91 92 159
f 92 160 159
f 159 160 164
f 160 165 164
f 91 159 164
f 91 164 95
f 91 96 92
f 91 95 96
f 164 165 96
f 164 96 95
f 92 97 93
f 92 96 97
f 165 166 97
f 165 97 96
f 93 166 161
f 93 97 166
f 98 99 173
f 99 174 173
f 173 174 180
f 174 181 180
f 98 173 180
f 98 180 103
f 98 104 99
f 98 103 104
f 99 100 174
f 100 175 174
f 99 105 100
f 99 104 105
f 100 182 175
f 100 105 182
f 101 102 178
f 102 179 178
f 178 179 185
f 179 186 185
f 101 178 185
f 101 185 108
f 101 109 102
f 101 108 109
f 102 103 179
f 103 180 179
f 105 106 182
f 106 183 182
f 187 188 111
f 187 111 110
f 106 188 183
f 106 111 188
f 108 185 190
f 108 190 113
f 193 194 115
f 193 115 114
f 110 194 187
f 110 115 194
f 190 191 196
f 191 197 196
f 113 190 196
f 113 196 116
f 196 197 117
f 196 117 116
f 191 192 197
f 192 198 197
f 197 198 118
f 197 118 117
f 198 199 119
f 198 119 118
f 114 199 193
f 114 119 199
f 121 122 208
f 122 209 208
f 121 208 214
f 121 214 126
f 121 127 122
f 121 126 127
f 122 123 209
f 123 210 209
f 122 128 123
f 122 127 128
f 123 124 210
f 124 211 210
f 123 129 124
f 123 128 129
f 124 215 211
f 124 129 215
f 125 126 213
f 126 214 213
f 213 214 218
f 214 219 218
f 125 213 218
f 125 218 131
f 128 133 129
f 128 132 133
f 129 130 215
f 130 216 215
f 129 134 130
f 129 133 134
f 130 220 216
f 130 134 220
f 131 218 222
f 131 222 137
f 134 135 220
f 135 221 220
f 134 139 135
f 134 138 139
f 135 223 221
f 135 139 223
f 137 222 224
f 137 224 141
f 138 143 139
f 138 142 143
f 225 226 143
f 225 143 142
f 139 226 223
f 139 143 226
f 141 224 227
f 141 227 145
f 142 228 225
f 142 148 228
f 145 227 230
f 145 230 150
f 146 152 147
f 146 151 152
f 147 153 148
f 147 152 153
f 231 232 153
f 231 153 152
f 148 232 228
f 148 153 232
f 150 230 233
f 150 233 155
f 151 158 152
f 151 157 158
f 234 235 158
f 234 158 157
f 152 235 231
f 152 158 235
f 155 233 236
f 155 236 160
f 156 163 157
f 156 162 163
f 157 237 234
f 157 163 237
f 160 236 239
f 160 239 165
f 239 240 166
f 239 166 165
f 161 167 162
f 161 166 167
f 240 241 167
f 240 167 166
f 162 168 163
f 162 167 168
f 241 242 168
f 241 168 167
f 163 242 237
f 163 168 242
f 169 170 252
f 170 253 252
f 169 252 258
f 169 258 174
f 169 175 170
f 169 174 175
f 170 171 253
f 171 254 253
f 170 176 171
f 170 175 176
f 171 172 254
f 172 255 254
f 171 177 172
f 171 176 177
f 172 259 255
f 172 177 259
f 174 258 263
f 174 263 181
f 175 183 176
f 175 182 183
f 176 184 177
f 176 183 184
f 177 264 259
f 177 184 264
f 179 180 261
f 180 262 261
f 179 261 267
f 179 267 186
f 180 181 262
f 181 263 262
f 183 189 184
f 183 188 189
f 268 269 189
f 268 189 188
f 184 269 264
f 184 189 269
f 185 186 266
f 186 267 266
f 266 267 271
f 267 272 271
f 185 266 271
f 185 271 190
f 271 272 191
f 271 191 190
f 272 273 192
f 272 192 191
f 187 195 188
f 187 194 195
f 275 276 195
f 275 195 194
f 188 276 268
f 188 195 276
f 273 274 277
f 274 278 277
f 192 273 277
f 192 277 198
f 277 278 199
f 277 199 198
f 274 275 278
f 275 279 278
f 193 200 194
f 193 199 200
f 278 279 200
f 278 200 199
f 194 279 275
f 194 200 279
f 201 202 287
f 202 288 287
f 287 288 290
f 288 291 290
f 201 287 290
f 201 290 204
f 201 205 202
f 201 204 205
f 290 291 205
f 290 205 204
f 202 203 288
f 203 289 288
f 288 289 291
f 289 292 291
f 202 206 203
f 202 205 206
f 291 292 206
f 291 206 205
f 203 292 289
f 203 206 292
f 207 208 302
f 208 303 302
f 207 302 309
f 207 309 213
f 207 214 208
f 207 213 214
f 309 310 214
f 309 214 213
f 208 209 303
f 209 304 303
f 209 210 304
f 210 305 304
f 210 211 305
f 211 306 305
f 211 212 306
f 212 307 306
f 211 216 212
f 211 215 216
f 212 311 307
f 212 216 311
f 214 310 314
f 214 314 219
f 216 217 311
f 217 312 311
f 216 221 217
f 216 220 221
f 217 315 312
f 217 221 315
f 218 219 313
f 219 314 313
f 218 313 317
f 218 317 222
f 221 318 315
f 221 223 318
f 222 317 320
f 222 320 224
f 223 322 318
f 223 226 322
f 320 321 324
f 321 325 324
f 224 320 324
f 224 324 227
f 225 229 226
f 225 228 229
f 326 327 229
f 326 229 228
f 226 327 322
f 226 229 327
f 324 325 328
f 325 329 328
f 227 324 328
f 227 328 230
f 330 331 232
f 330 232 231
f 228 331 326
f 228 232 331
f 328 329 332
f 329 333 332
f 230 328 332
f 230 332 233
f 231 334 330
f 231 235 334
f 332 333 336
f 333 337 336
f 233 332 336
f 233 336 236
f 234 238 235
f 234 237 238
f 338 339 238
f 338 238 237
f 235 339 334
f 235 238 339
f 336 337 340
f 337 341 340
f 236 336 340
f 236 340 239
f 340 341 240
f 340 240 239
f 342 343 242
f 342 242 241
f 237 343 338
f 237 242 343
f 240 341 346
f 240 346 244
f 240 245 241
f 240 244 245
f 241 347 342
f 241 245 347
f 243 244 345
f 244 346 345
f 345 346 350
f 346 351 350
f 243 345 350
f 243 350 247
f 243 248 244
f 243 247 248
f 244 249 245
f 244 248 249
f 245 352 347
f 245 249 352
f 246 247 349
f 247 350 349
f 349 350 355
f 350 356 355
f 246 349 355
f 246 355 252
f 246 253 247
f 246 252 253
f 247 254 248
f 247 253 254
f 248 255 249
f 248 254 255
f 249 250 352
f 250 353 352
f 249 256 250
f 249 255 256
f 250 357 353
f 250 256 357
f 251 252 354
f 252 355 354
f 354 355 358
f 355 359 358
f 251 354 358
f 251 358 257
f 251 258 252
f 251 257 258
f 255 260 256
f 255 259 260
f 360 361 260
f 360 260 259
f 256 361 357
f 256 260 361
f 257 358 364
f 257 364 262
f 257 263 258
f 257 262 263
f 259 365 360
f 259 264 365
f 261 262 363
f 262 364 363
f 261 363 368
f 261 368 267
f 369 370 269
f 369 269 268
f 264 265 365
f 265 366 365
f 264 270 265
f 264 269 270
f 370 371 270
f 370 270 269
f 265 371 366
f 265 270 371
f 267 368 373
f 267 373 272
f 373 374 273
f 373 273 272
f 374 375 274
f 374 274 273
f 375 376 275
f 375 275 274
f 376 377 276
f 376 276 275
f 268 377 369
f 268 276 377
f 280 281 383
f 281 384 383
f 280 383 389
f 280 389 284
f 280 285 281
f 280 284 285
f 389 390 285
f 389 285 284
f 281 282 384
f 282 385 384
f 281 286 282
f 281 285 286
f 390 391 286
f 390 286 285
f 282 283 385
f 283 386 385
f 282 287 283
f 282 286 287
f 391 392 287
f 391 287 286
f 283 392 386
f 283 287 392
f 293 294 393
f 294 394 393
f 393 394 397
f 394 398 397
f 293 393 397
f 293 397 297
f 293 298 294
f 293 297 298
f 294 295 394
f 295 395 394
f 394 395 398
f 395 399 398
f 294 299 295
f 294 298 299
f 295 296 395
f 296 396 395
f 395 396 399
f 396 400 399
f 295 300 296
f 295 299 300
f 296 400 396
f 296 300 400
f 397 398 402
f 398 403 402
f 297 397 402
f 297 402 302
f 297 303 298
f 297 302 303
f 298 304 299
f 298 303 304
f 299 305 300
f 299 304 305
f 300 301 400
f 301 401 400
f 400 401 404
f 401 405 404
f 300 306 301
f 300 305 306
f 301 405 401
f 301 306 405
f 302 402 408
f 302 408 309
f 306 307 405
f 307 406 405
f 307 308 406
f 308 407 406
f 406 407 409
f 407 410 409
f 307 312 308
f 307 311 312
f 308 410 407
f 308 312 410
f 309 408 412
f 309 412 313
f 309 314 310
f 309 313 314
f 312 413 410
f 312 315 413
f 313 412 415
f 313 415 317
f 315 316 413
f 316 414 413
f 315 319 316
f 315 318 319
f 316 417 414
f 316 319 417
f 415 416 418
f 416 419 418
f 317 415 418
f 317 418 320
f 418 419 321
f 418 321 320
f 318 323 319
f 318 322 323
f 421 422 323
f 421 323 322
f 319 422 417
f 319 323 422
f 419 420 423
f 420 424 423
f 321 419 423
f 321 423 325
f 425 426 327
f 425 327 326
f 322 426 421
f 322 327 426
f 325 423 427
f 325 427 329
f 326 430 425
f 326 331 430
f 427 428 431
f 428 432 431
f 329 427 431
f 329 431 333
f 429 430 433
f 430 434 433
f 330 335 331
f 330 334 335
f 433 434 335
f 433 335 334
f 331 434 430
f 331 335 434
f 333 431 435
f 333 435 337
f 334 436 433
f 334 339 436
f 337 435 437
f 337 437 341
f 338 344 339
f 338 343 344
f 438 439 344
f 438 344 343
f 339 439 436
f 339 344 439
f 341 437 440
f 341 440 346
f 342 348 343
f 342 347 348
f 343 442 438
f 343 348 442
f 440 441 444
f 441 445 444
f 346 440 444
f 346 444 351
f 441 442 445
f 442 446 445
f 347 353 348
f 347 352 353
f 348 446 442
f 348 353 446
f 350 351 443
f 351 444 443
f 350 443 448
f 350 448 356
f 353 449 446
f 353 357 449
f 355 356 447
f 356 448 447
f 355 447 451
f 355 451 359
f 357 452 449
f 357 361 452
f 358 359 450
f 359 451 450
f 450 451 455
f 451 456 455
f 358 450 455
f 358 455 364
f 360 366 361
f 360 365 366
f 361 362 452
f 362 453 452
f 361 367 362
f 361 366 367
f 362 457 453
f 362 367 457
f 363 364 454
f 364 455 454
f 454 455 458
f 455 459 458
f 363 454 458
f 363 458 368
f 461 462 371
f 461 371 370
f 366 372 367
f 366 371 372
f 462 463 372
f 462 372 371
f 367 463 457
f 367 372 463
f 368 458 464
f 368 464 373
f 464 465 374
f 464 374 373
f 465 466 375
f 465 375 374
f 467 468 377
f 467 377 376
f 460 461 468
f 461 469 468
f 369 378 370
f 369 377 378
f 468 469 378
f 468 378 377
f 370 469 461
f 370 378 469
f 466 467 470
f 467 471 470
f 375 466 470
f 375 470 379
f 375 380 376
f 375 379 380
f 470 471 380
f 470 380 379
f 376 471 467
f 376 380 471
f 381 382 472
f 382 473 472
f 472 473 478
f 473 479 478
f 381 472 478
f 381 478 387
f 381 388 382
f 381 387 388
f 478 479 388
f 478 388 387
f 382 383 473
f 383 474 473
f 382 389 383
f 382 388 389
f 479 480 389
f 479 389 388
f 383 384 474
f 384 475 474
f 480 481 390
f 480 390 389
f 384 385 475
f 385 476 475
f 475 476 481
f 476 482 481
f 481 482 391
f 481 391 390
f 385 386 476
f 386 477 476
f 476 477 482
f 477 483 482
f 482 483 392
f 482 392 391
f 386 483 477
f 386 392 483
f 398 399 484
f 399 485 484
f 398 484 488
f 398 488 403
f 399 400 485
f 400 486 485
f 400 489 486
f 400 404 489
f 402 403 487
f 403 488 487
f 402 487 493
f 402 493 408
f 404 405 489
f 405 490 489
f 405 406 490
f 406 491 490
f 406 494 491
f 406 409 494
f 408 493 497
f 408 497 412
f 409 410 494
f 410 495 494
f 410 411 495
f 411 496 495
f 410 414 411
f 410 413 414
f 411 499 496
f 411 414 499
f 497 498 500
f 498 501 500
f 412 497 500
f 412 500 415
f 500 501 416
f 500 416 415
f 414 503 499
f 414 417 503
f 501 502 504
f 502 505 504
f 416 501 504
f 416 504 419
f 504 505 420
f 504 420 419
f 506 507 422
f 506 422 421
f 417 507 503
f 417 422 507
f 420 505 509
f 420 509 424
f 511 512 426
f 511 426 425
f 421 512 506
f 421 426 512
f 423 424 508
f 424 509 508
f 508 509 513
f 509 514 513
f 423 508 513
f 423 513 427
f 513 514 428
f 513 428 427
f 509 510 514
f 510 515 514
f 516 517 430
f 516 430 429
f 425 517 511
f 425 430 517
f 514 515 519
f 515 520 519
f 428 514 519
f 428 519 432
f 515 516 520
f 516 521 520
f 429 521 516
f 429 433 521
f 431 432 518
f 432 519 518
f 518 519 522
f 519 523 522
f 431 518 522
f 431 522 435
f 519 520 523
f 520 524 523
f 520 521 524
f 521 525 524
f 433 525 521
f 433 436 525
f 522 523 526
f 523 527 526
f 435 522 526
f 435 526 437
f 523 524 527
f 524 528 527
f 524 525 528
f 525 529 528
f 528 529 439
f 528 439 438
f 436 529 525
f 436 439 529
f 526 527 530
f 527 531 530
f 437 526 530
f 437 530 440
f 530 531 441
f 530 441 440
f 527 528 531
f 528 532 531
f 531 532 442
f 531 442 441
f 438 532 528
f 438 442 532
f 443 444 533
f 444 534 533
f 533 534 538
f 534 539 538
f 443 533 538
f 443 538 448
f 444 445 534
f 445 535 534
f 534 535 539
f 535 540 539
f 445 446 535
f 446 536 535
f 535 536 540
f 536 541 540
f 446 541 536
f 446 449 541
f 447 448 537
f 448 538 537
f 537 538 542
f 538 543 542
f 447 537 542
f 447 542 451
f 449 544 541
f 449 452 544
f 451 542 547
f 451 547 456
f 452 453 544
f 453 545 544
f 453 548 545
f 453 457 548
f 455 456 546
f 456 547 546
f 455 546 550
f 455 550 459
f 551 552 461
f 551 461 460
f 552 553 462
f 552 462 461
f 553 554 463
f 553 463 462
f 457 554 548
f 457 463 554
f 458 459 549
f 459 550 549
f 549 550 555
f 550 556 555
f 458 549 555
f 458 555 464
f 555 556 465
f 555 465 464
f 556 557 466
f 556 466 465
f 557 558 467
f 557 467 466
f 558 559 468
f 558 468 467
f 460 559 551
f 460 468 559
f 473 474 565
f 474 566 565
f 473 565 571
f 473 571 479
f 571 572 480
f 571 480 479
f 474 475 566
f 475 567 566
f 572 573 481
f 572 481 480
f 475 573 567
f 475 481 573
f 484 485 577
f 485 578 577
f 484 577 581
f 484 581 488
f 485 486 578
f 486 579 578
f 486 582 579
f 486 489 582
f 487 488 580
f 488 581 580
f 487 580 587
f 487 587 493
f 489 490 582
f 490 583 582
f 490 491 583
f 491 584 583
f 491 492 584
f 492 585 584
f 584 585 588
f 585 589 588
f 491 495 492
f 491 494 495
f 492 589 585
f 492 495 589
f 493 587 592
f 493 592 497
f 592 593 498
f 592 498 497
f 495 496 589
f 496 590 589
f 496 594 590
f 496 499 594
f 498 593 597
f 498 597 501
f 597 598 502
f 597 502 501
f 499 599 594
f 499 503 599
f 502 598 602
f 502 602 505
f 604 605 507
f 604 507 506
f 503 605 599
f 503 507 605
f 602 603 606
f 603 607 606
f 505 602 606
f 505 606 509
f 606 607 510
f 606 510 509
f 608 609 512
f 608 512 511
f 506 609 604
f 506 512 609
f 510 607 610
f 510 610 515
f 610 611 516
f 610 516 515
f 611 612 517
f 611 517 516
f 511 612 608
f 511 517 612
f 538 539 613
f 539 614 613
f 538 613 618
f 538 618 543
f 539 540 614
f 540 615 614
f 540 541 615
f 541 616 615
f 541 619 616
f 541 544 619
f 542 543 617
f 543 618 617
f 542 617 622
f 542 622 547
f 544 545 619
f 545 620 619
f 545 623 620
f 545 548 623
f 546 547 621
f 547 622 621
f 621 622 624
f 622 625 624
f 546 621 624
f 546 624 550
f 627 628 552
f 627 552 551
f 628 629 553
f 628 553 552
f 629 630 554
f 629 554 553
f 548 630 623
f 548 554 630
f 624 625 631
f 625 632 631
f 550 624 631
f 550 631 556
f 631 632 557
f 631 557 556
f 625 626 632
f 626 633 632
f 632 633 558
f 632 558 557
f 626 627 633
f 627 634 633
f 633 634 559
f 633 559 558
f 551 634 627
f 551 559 634
f 560 561 635
f 561 636 635
f 635 636 640
f 636 641 640
f 560 635 640
f 560 640 565
f 560 566 561
f 560 565 566
f 561 562 636
f 562 637 636
f 636 637 641
f 637 642 641
f 561 567 562
f 561 566 567
f 562 563 637
f 563 638 637
f 637 638 642
f 638 643 642
f 562 568 563
f 562 567 568
f 563 643 638
f 563 568 643
f 564 565 639
f 565 640 639
f 639 640 645
f 640 646 645
f 564 639 645
f 564 645 570
f 564 571 565
f 564 570 571
f 645 646 571
f 645 571 570
f 640 641 646
f 641 647 646
f 646 647 572
f 646 572 571
f 641 642 647
f 642 648 647
f 647 648 573
f 647 573 572
f 642 643 648
f 643 649 648
f 567 574 568
f 567 573 574
f 648 649 574
f 648 574 573
f 568 569 643
f 569 644 643
f 643 644 649
f 644 650 649
f 568 575 569
f 568 574 575
f 649 650 575
f 649 575 574
f 569 650 644
f 569 575 650
f 576 577 651
f 577 652 651
f 651 652 655
f 652 656 655
f 576 651 655
f 576 655 580
f 576 581 577
f 576 580 581
f 577 578 652
f 578 653 652
f 652 653 656
f 653 657 656
f 578 579 653
f 579 654 653
f 653 654 657
f 654 658 657
f 579 658 654
f 579 582 658
f 655 656 662
f 656 663 662
f 580 655 662
f 580 662 587
f 582 583 658
f 583 659 658
f 583 584 659
f 584 660 659
f 584 664 660
f 584 588 664
f 586 587 661
f 587 662 661
f 661 662 668
f 662 669 668
f 586 661 668
f 586 668 591
f 586 592 587
f 586 591 592
f 668 669 592
f 668 592 591
f 662 663 669
f 663 670 669
f 588 589 664
f 589 665 664
f 589 590 665
f 590 666 665
f 590 671 666
f 590 594 671
f 669 670 673
f 670 674 673
f 592 669 673
f 592 673 596
f 592 597 593
f 592 596 597
f 673 674 597
f 673 597 596
f 594 595 671
f 595 672 671
f 594 600 595
f 594 599 600
f 677 678 600
f 677 600 599
f 595 678 672
f 595 600 678
f 674 675 679
f 675 680 679
f 597 674 679
f 597 679 601
f 597 602 598
f 597 601 602
f 679 680 602
f 679 602 601
f 675 676 680
f 676 681 680
f 680 681 603
f 680 603 602
f 684 685 605
f 684 605 604
f 599 685 677
f 599 605 685
f 681 682 686
f 682 687 686
f 603 681 686
f 603 686 607
f 682 683 687
f 683 688 687
f 683 684 688
f 684 689 688
f 688 689 609
f 688 609 608
f 604 689 684
f 604 609 689
f 686 687 690
f 687 691 690
f 607 686 690
f 607 690 610
f 690 691 611
f 690 611 610
f 687 688 691
f 688 692 691
f 691 692 612
f 691 612 611
f 608 692 688
f 608 612 692
f 613 614 693
f 614 694 693
f 693 694 698
f 694 699 698
f 613 693 698
f 613 698 618
f 614 615 694
f 615 695 694
f 694 695 699
f 695 700 699
f 615 616 695
f 616 696 695
f 695 696 700
f 696 701 700
f 616 701 696
f 616 619 701
f 617 618 697
f 618 698 697
f 697 698 703
f 698 704 703
f 617 697 703
f 617 703 622
f 698 699 704
f 699 705 704
f 619 620 701
f 620 702 701
f 620 706 702
f 620 623 706
f 622 703 707
f 622 707 625
f 707 708 626
f 707 626 625
f 708 709 627
f 708 627 626
f 709 710 628
f 709 628 627
f 710 711 629
f 710 629 628
f 711 712 630
f 711 630 629
f 623 712 706
f 623 630 712
f 656 657 725
f 657 726 725
f 725 726 730
f 726 731 730
f 656 725 730
f 656 730 663
f 657 658 726
f 658 727 726
f 726 727 731
f 727 732 731
f 658 659 727
f 659 728 727
f 727 728 732
f 728 733 732
f 659 660 728
f 660 729 728
f 728 729 733
f 729 734 733
f 660 734 729
f 660 664 734
f 730 731 738
f 731 739 738
f 663 730 738
f 663 738 670
f 664 665 734
f 665 735 734
f 665 666 735
f 666 736 735
f 666 667 736
f 667 737 736
f 736 737 740
f 737 741 740
f 666 672 667
f 666 671 672
f 667 741 737
f 667 672 741
f 738 739 742
f 739 743 742
f 670 738 742
f 670 742 674
f 742 743 675
f 742 675 674
f 743 744 676
f 743 676 675
f 745 746 678
f 745 678 677
f 672 746 741
f 672 678 746
f 676 744 747
f 676 747 681
f 747 748 682
f 747 682 681
f 748 749 683
f 748 683 682
f 749 750 684
f 749 684 683
f 750 751 685
f 750 685 684
f 677 751 745
f 677 685 751
f 699 700 753
f 700 754 753
f 699 753 759
f 699 759 705
f 700 701 754
f 701 755 754
f 701 702 755
f 702 756 755
f 702 760 756
f 702 706 760
f 703 704 757
f 704 758 757
f 703 757 761
f 703 761 707
f 761 762 708
f 761 708 707
f 704 705 758
f 705 759 758
f 762 763 709
f 762 709 708
f 763 764 710
f 763 710 709
f 764 765 711
f 764 711 710
f 765 766 712
f 765 712 711
f 706 766 760
f 706 712 766
f 713 714 767
f 714 768 767
f 767 768 771
f 768 772 771
f 713 767 771
f 713 771 717
f 713 718 714
f 713 717 718
f 714 715 768
f 715 769 768
f 768 769 772
f 769 773 772
f 714 719 715
f 714 718 719
f 715 716 769
f 716 770 769
f 769 770 773
f 770 774 773
f 715 720 716
f 715 719 720
f 716 774 770
f 716 720 774
f 771 772 775
f 772 776 775
f 717 771 775
f 717 775 721
f 717 722 718
f 717 721 722
f 775 776 722
f 775 722 721
f 772 773 776
f 773 777 776
f 718 723 719
f 718 722 723
f 776 777 723
f 776 723 722
f 773 774 777
f 774 778 777
f 719 724 720
f 719 723 724
f 777 778 724
f 777 724 723
f 720 778 774
f 720 724 778
f 731 732 779
f 732 780 779
f 779 780 785
f 780 786 785
f 731 779 785
f 731 785 739
f 732 733 780
f 733 781 780
f 780 781 786
f 781 787 786
f 733 734 781
f 734 782 781
f 781 782 787
f 782 788 787
f 734 735 782
f 735 783 782
f 782 783 788
f 783 789 788
f 735 736 783
f 736 784 783
f 783 784 789
f 784 790 789
f 736 790 784
f 736 740 790
f 785 786 792
f 786 793 792
f 739 785 792
f 739 792 743
f 792 793 744
f 792 744 743
f 786 787 793
f 787 794 793
f 787 788 794
f 788 795 794
f 788 789 795
f 789 796 795
f 789 790 796
f 790 797 796
f 740 741 790
f 741 791 790
f 790 791 797
f 791 798 797
f 797 798 746
f 797 746 745
f 741 798 791
f 741 746 798
f 793 794 799
f 794 800 799
f 744 793 799
f 744 799 747
f 799 800 748
f 799 748 747
f 794 795 800
f 795 801 800
f 800 801 749
f 800 749 748
f 795 796 801
f 796 802 801
f 801 802 750
f 801 750 749
f 796 797 802
f 797 803 802
f 802 803 751
f 802 751 750
f 745 803 797
f 745 751 803
f 752 753 804
f 753 805 804
f 804 805 810
f 805 811 810
f 752 804 810
f 752 810 758
f 752 759 753
f 752 758 759
f 753 754 805
f 754 806 805
f 754 755 806
f 755 807 806
f 755 756 807
f 756 808 807
f 807 808 812
f 808 813 812
f 756 813 808
f 756 760 813
f 757 758 809
f 758 810 809
f 757 809 814
f 757 814 761
f 814 815 762
f 814 762 761
f 815 816 763
f 815 763 762
f 816 817 764
f 816 764 763
f 817 818 765
f 817 765 764
f 818 819 766
f 818 766 765
f 760 819 813
f 760 766 819
f 805 806 820
f 806 821 820
f 805 820 825
f 805 825 811
f 806 807 821
f 807 822 821
f 821 822 826
f 822 827 826
f 807 827 822
f 807 812 827
f 809 810 823
f 810 824 823
f 823 824 829
f 824 830 829
f 809 823 829
f 809 829 814
f 829 830 815
f 829 815 814
f 810 811 824
f 811 825 824
f 830 831 816
f 830 816 815
f 831 832 817
f 831 817 816
f 832 833 818
f 832 818 817
f 812 813 827
f 813 828 827
f 827 828 833
f 828 834 833
f 833 834 819
f 833 819 818
f 813 834 828
f 813 819 834
f 820 821 838
f 821 839 838
f 838 839 841
f 839 842 841
f 820 838 841
f 820 841 825
f 821 842 839
f 821 826 842
f 824 825 840
f 825 841 840
f 840 841 844
f 841 845 844
f 824 840 844
f 824 844 830
f 844 845 831
f 844 831 830
f 841 842 845
f 842 846 845
f 845 846 832
f 845 832 831
f 826 827 842
f 827 843 842
f 842 843 846
f 843 847 846
f 846 847 833
f 846 833 832
f 827 847 843
f 827 833 847
f 835 836 850
f 836 851 850
f 835 850 854
f 835 854 837
f 835 838 836
f 835 837 838
f 854 855 838
f 854 838 837
f 836 855 851
f 836 838 855
f 848 849 868
f 849 869 868
f 848 868 875
f 848 875 852
f 848 853 849
f 848 852 853
f 875 876 853
f 875 853 852
f 849 850 869
f 850 870 869
f 849 854 850
f 849 853 854
f 876 877 854
f 876 854 853
f 850 851 870
f 851 871 870
f 877 878 855
f 877 855 854
f 851 878 871
f 851 855 878
f 856 857 882
f 857 883 882
f 856 882 892
f 856 892 862
f 856 863 857
f 856 862 863
f 857 858 883
f 858 884 883
f 857 864 858
f 857 863 864
f 858 893 884
f 858 864 893
f 859 860 889
f 860 890 889
f 859 889 898
f 859 898 865
f 859 866 860
f 859 865 866
f 860 861 890
f 861 891 890
f 860 867 861
f 860 866 867
f 861 862 891
f 862 892 891
f 861 868 862
f 861 867 868
f 862 869 863
f 862 868 869
f 863 870 864
f 863 869 870
f 864 899 893
f 864 870 899
f 865 898 903
f 865 903 872
f 865 873 866
f 865 872 873
f 903 904 873
f 903 873 872
f 866 874 867
f 866 873 874
f 904 905 874
f 904 874 873
f 867 875 868
f 867 874 875
f 905 906 875
f 905 875 874
f 906 907 876
f 906 876 875
f 907 908 877
f 907 877 876
f 870 871 899
f 871 900 899
f 908 909 878
f 908 878 877
f 871 909 900
f 871 878 909
f 879 880 921
f 880 922 921
f 879 921 931
f 879 931 889
f 879 890 880
f 879 889 890
f 880 881 922
f 881 923 922
f 880 891 881
f 880 890 891
f 881 882 923
f 882 924 923
f 881 892 882
f 881 891 892
f 882 883 924
f 883 925 924
f 883 884 925
f 884 926 925
f 884 885 926
f 885 927 926
f 926 927 932
f 927 933 932
f 884 894 885
f 884 893 894
f 932 933 894
f 932 894 893
f 885 933 927
f 885 894 933
f 886 887 928
f 887 929 928
f 928 929 934
f 929 935 934
f 886 928 934
f 886 934 895
f 886 896 887
f 886 895 896
f 934 935 896
f 934 896 895
f 887 888 929
f 888 930 929
f 887 897 888
f 887 896 897
f 888 889 930
f 889 931 930
f 888 898 889
f 888 897 898
f 893 937 932
f 893 899 937
f 896 935 940
f 896 940 901
f 896 902 897
f 896 901 902
f 940 941 902
f 940 902 901
f 897 903 898
f 897 902 903
f 941 942 903
f 941 903 902
f 942 943 904
f 942 904 903
f 943 944 905
f 943 905 904
f 944 945 906
f 944 906 905
f 945 946 907
f 945 907 906
f 936 937 946
f 937 947 946
f 946 947 908
f 946 908 907
f 899 900 937
f 900 938 937
f 937 938 947
f 938 948 947
f 947 948 909
f 947 909 908
f 900 948 938
f 900 909 948
f 910 911 951
f 911 952 951
f 910 951 958
f 910 958 916
f 910 917 911
f 910 916 917
f 911 912 952
f 912 953 952
f 952 953 959
f 953 960 959
f 911 918 912
f 911 917 918
f 912 960 953
f 912 918 960
f 913 914 955
f 914 956 955
f 913 955 963
f 913 963 921
f 913 922 914
f 913 921 922
f 914 915 956
f 915 957 956
f 914 923 915
f 914 922 923
f 915 916 957
f 916 958 957
f 915 924 916
f 915 923 924
f 916 925 917
f 916 924 925
f 959 960 964
f 960 965 964
f 917 926 918
f 917 925 926
f 918 965 960
f 918 926 965
f 919 920 961
f 920 962 961
f 919 961 967
f 919 967 929
f 919 930 920
f 919 929 930
f 920 921 962
f 921 963 962
f 920 931 921
f 920 930 931
f 926 970 965
f 926 932 970
f 929 967 972
f 929 972 935
f 968 969 973
f 969 974 973
f 969 970 974
f 970 975 974
f 974 975 937
f 974 937 936
f 932 975 970
f 932 937 975
f 934 935 971
f 935 972 971
f 971 972 976
f 972 977 976
f 934 971 976
f 934 976 939
f 934 940 935
f 934 939 940
f 976 977 940
f 976 940 939
f 977 978 941
f 977 941 940
f 978 979 942
f 978 942 941
f 979 980 943
f 979 943 942
f 980 981 944
f 980 944 943
f 981 982 945
f 981 945 944
f 973 974 982
f 974 983 982
f 982 983 946
f 982 946 945
f 936 983 974
f 936 946 983
f 949 950 985
f 950 986 985
f 949 985 991
f 949 991 956
f 949 957 950
f 949 956 957
f 950 951 986
f 951 987 986
f 986 987 992
f 987 993 992
f 950 958 951
f 950 957 958
f 951 952 987
f 952 988 987
f 987 988 993
f 988 994 993
f 952 994 988
f 952 959 994
f 954 955 989
f 955 990 989
f 954 989 996
f 954 996 962
f 954 963 955
f 954 962 963
f 955 956 990
f 956 991 990
f 993 994 997
f 994 998 997
f 959 998 994
f 959 964 998
f 961 962 995
f 962 996 995
f 961 995 1001
f 961 1001 967
f 997 998 1006
f 998 1007 1006
f 1006 1007 969
f 1006 969 968
f 964 965 998
f 965 999 998
f 998 999 1007
f 999 1008 1007
f 1007 1008 970
f 1007 970 969
f 965 1008 999
f 965 970 1008
f 966 967 1000
f 967 1001 1000
f 1000 1001 1009
f 1001 1010 1009
f 966 1000 1009
f 966 1009 971
f 966 972 967
f 966 971 972
f 1009 1010 972
f 1009 972 971
f 1001 1002 1010
f 1002 1011 1010
f 1002 1003 1011
f 1003 1012 1011
f 1003 1004 1012
f 1004 1013 1012
f 1004 1005 1013
f 1005 1014 1013
f 1005 1006 1014
f 1006 1015 1014
f 968 1015 1006
f 968 973 1015
f 1010 1011 1016
f 1011 1017 1016
f 972 1010 1016
f 972 1016 977
f 1016 1017 978
f 1016 978 977
f 1011 1012 1017
f 1012 1018 1017
f 1017 1018 979
f 1017 979 978
f 1012 1013 1018
f 1013 1019 1018
f 1018 1019 980
f 1018 980 979
f 1013 1014 1019
f 1014 1020 1019
f 1019 1020 981
f 1019 981 980
f 1014 1015 1020
f 1015 1021 1020
f 1020 1021 982
f 1020 982 981
f 973 1021 1015
f 973 982 1021
f 984 985 1028
f 985 1029 1028
f 1028 1029 1032
f 1029 1033 1032
f 984 1028 1032
f 984 1032 990
f 984 991 985
f 984 990 991
f 985 986 1029
f 986 1030 1029
f 1029 1030 1033
f 1030 1034 1033
f 986 1034 1030
f 986 992 1034
f 989 990 1031
f 990 1032 1031
f 989 1031 1037
f 989 1037 996
f 992 993 1034
f 993 1035 1034
f 1034 1035 1040
f 1035 1041 1040
f 993 1041 1035
f 993 997 1041
f 995 996 1036
f 996 1037 1036
f 1036 1037 1042
f 1037 1043 1042
f 995 1036 1042
f 995 1042 1001
f 1042 1043 1002
f 1042 1002 1001
f 1037 1038 1043
f 1038 1044 1043
f 1043 1044 1003
f 1043 1003 1002
f 1038 1039 1044
f 1039 1045 1044
f 1044 1045 1004
f 1044 1004 1003
f 1039 1040 1045
f 1040 1046 1045
f 1045 1046 1005
f 1045 1005 1004
f 1040 1041 1046
f 1041 1047 1046
f 1046 1047 1006
f 1046 1006 1005
f 997 1047 1041
f 997 1006 1047
f 1022 1023 1048
f 1023 1049 1048
f 1048 1049 1051
f 1049 1052 1051
f 1022 1048 1051
f 1022 1051 1025
f 1022 1026 1023
f 1022 1025 1026
f 1051 1052 1026
f 1051 1026 1025
f 1023 1024 1049
f 1024 1050 1049
f 1049 1050 1052
f 1050 1053 1052
f 1023 1027 1024
f 1023 1026 1027
f 1052 1053 1027
f 1052 1027 1026
f 1024 1053 1050
f 1024 1027 1053
f 1031 1032 1054
f 1032 1055 1054
f 1054 1055 1058
f 1055 1059 1058
f 1031 1054 1058
f 1031 1058 1037
f 1058 1059 1038
f 1058 1038 1037
f 1032 1033 1055
f 1033 1056 1055
f 1055 1056 1059
f 1056 1060 1059
f 1059 1060 1039
f 1059 1039 1038
f 1033 1034 1056
f 1034 1057 1056
f 1056 1057 1060
f 1057 1061 1060
f 1060 1061 1040
f 1060 1040 1039
f 1034 1061 1057
f 1034 1040 1061