v -35.422718 137.403030 414.429565
v -34.971992 139.231415 417.532410
v -34.585701 139.562500 419.970062
v -38.730042 133.962540 406.500854
v -38.028004 135.380615 409.000244
v -38.474720 136.933563 412.965485
v -36.578815 138.715302 416.461914
v -35.862514 139.566116 419.469910
v -43.687283 134.022537 405.772491
v -39.554779 134.640015 407.898041
v -39.568127 135.311798 410.066925
v -8.571821 127.873917 395.890930
v -6.373959 129.033981 398.491547
v -5.658343 130.048401 401.209381
v -5.471165 130.904465 403.552673
v -5.637673 131.792786 405.960419
v -5.820717 132.731430 408.351593
v -6.246105 133.798065 410.693573
v -6.605375 133.918671 412.353607
v -14.158745 126.840042 393.234650
v -11.703273 128.338196 395.832306
v -10.452545 129.859375 398.714417
v -9.735348 130.960114 401.519745
v -9.351175 131.842880 403.945251
v -9.587953 132.813980 406.488007
v -9.717990 133.741821 408.947327
v -9.945233 134.239487 411.286926
v -8.411716 134.293808 412.325714
v -17.570139 127.370636 392.155426
v -15.283772 128.124527 395.100189
v -15.573608 129.929016 398.431580
v -15.403691 131.369675 401.446625
v -15.143001 132.309601 404.217560
v -15.482961 133.361115 406.906494
v -15.691551 134.316162 409.334320
v -15.554923 135.166061 412.147644
v -17.846956 136.039780 415.047516
v -18.199436 137.313477 418.421021
v -18.006531 137.780685 420.748840
v -21.910831 130.111893 398.571045
v -19.628077 130.908859 400.948456
v -22.040745 132.088745 403.904846
v -21.740088 133.754166 407.028656
v -22.184547 134.881561 409.806549
v -22.468246 135.849869 412.363220
v -22.645298 137.141312 415.706177
v -22.955833 138.583588 419.315399
v -22.634022 139.674454 422.862762
v -24.289282 139.394302 424.609192
v -27.965033 132.433563 404.228210
v -27.960371 133.220490 406.535919
v -28.238852 135.213638 409.917267
v -28.575998 136.442474 413.016937
v -28.771051 137.833527 416.598602
v -29.054724 139.280182 420.151825
v -28.957375 139.828613 423.443298
v -26.214224 139.841492 424.494202
v -34.735458 132.252106 403.730164
v -33.410580 133.585892 406.881775
v -33.142647 135.211121 409.710388
v -33.029289 137.003540 413.320435
v -32.434811 138.616699 417.132538
v -34.458450 139.959015 421.191071
v -34.203068 140.356552 423.226624
v -38.112881 130.723480 400.530212
v -36.788944 131.572525 402.559174
v -35.620193 133.655609 405.971405
v -36.008102 135.298630 409.257233
v -36.740227 136.250000 413.438782
v -38.555012 138.823410 419.122192
v -38.882885 139.312744 422.252716
v -36.003185 139.822571 423.337555
v -41.567120 130.254974 400.741943
v -39.777069 131.468872 402.545959
v -39.244568 133.102844 406.619598
v -41.399475 134.382645 409.753967
v -41.825310 136.015884 413.875793
v -41.384075 137.382019 417.919556
v -42.155899 138.329529 421.601868
v -49.552406 129.384644 399.925659
v -43.548603 130.240067 401.956329
v -43.062817 131.236511 404.590088
v -43.466835 132.374939 407.962189
v -44.386963 133.982269 412.393707
v -44.638336 135.871643 417.250061
v -45.340603 136.748810 420.297760
v 3.569810 128.754395 403.399780
v 4.321660 129.012115 404.597809
v 3.968679 129.875549 406.874481
v 3.805911 130.861450 409.735809
v 3.375306 131.439041 411.890686
v -3.234568 125.874161 395.499115
v -0.967137 127.052940 397.886017
v -0.457963 127.873001 400.186523
v 0.128405 129.000290 402.538177
v 1.088561 129.849243 404.910919
v 0.664457 130.846008 407.207062
v 0.486704 131.831848 409.847900
v 0.061626 133.051315 413.386108
v -1.438410 133.011932 414.969574
v -8.834208 124.858200 392.601746
v -5.487770 126.818619 394.910583
v -3.078780 128.160126 398.077301
v -2.692879 129.174576 400.647949
v -2.467356 129.889008 402.954590
v -2.312544 130.697983 405.247803
v -2.674536 131.718399 407.642609
v -3.033731 132.774582 410.171173
v -4.717432 133.707443 413.382538
v -5.232706 133.715805 415.465759
v -11.322685 126.349884 393.481842
v -8.663534 126.639519 393.748657
v -11.094455 133.921921 412.614288
v -9.852245 134.581131 414.389832
v -10.220750 134.272141 416.054382
v -14.760319 126.896599 393.562653
v -16.088499 127.735565 396.024597
v -19.153357 128.704849 397.188660
v -13.279953 134.324875 412.480927
v -13.946504 134.863403 414.444946
v -14.329037 136.115265 418.223572
v -17.746859 136.519730 420.666107
v -22.065985 128.098709 396.675629
v -18.675913 129.365677 398.510071
v -22.212168 130.680695 401.979553
v -24.488831 131.182892 402.039673
v -21.994236 138.270309 423.775940
v -24.415859 138.717194 424.327667
v -27.675955 130.172073 399.670715
v -26.371326 130.379868 400.959564
v -26.074524 131.557892 404.155487
v -30.181028 132.497437 404.571655
v -28.057383 138.663788 424.658295
v -26.132391 139.463043 424.552795
v -32.815483 130.484940 400.829681
v -31.537893 131.925690 403.845764
v -30.069986 132.571808 405.010590
v -34.672821 138.004135 423.421448
v -33.454533 138.799789 424.091705
v -38.215755 128.062592 396.512787
v -36.295563 129.838043 399.529785
v -33.569378 131.583923 401.298096
v -39.324780 138.291016 423.510315
v -35.848202 139.691345 423.576965
v -44.295261 127.283722 396.669739
v -39.993866 128.599319 399.263519
v -44.995667 135.387604 420.732239
v -43.136360 137.030746 422.331207
v -43.762398 129.538544 401.050720
v -45.100559 129.294662 403.100891
v -45.664360 130.022522 406.241302
v -46.524731 131.494995 410.278839
v -46.340263 133.628693 415.510681
v -47.567020 135.712921 420.346191
v -45.289288 137.143341 421.529816
v 12.926108 121.546883 392.770569
v 14.175237 122.753593 395.052521
v 14.725878 123.695946 397.610382
v 15.082712 124.460060 399.948273
v 14.766929 125.065155 402.230957
v 14.632924 125.033707 403.813629
v 6.966260 120.237129 389.263458
v 8.808198 122.301468 391.509521
v 9.386910 123.778419 394.778076
v 10.023184 124.701393 397.238434
v 10.568457 125.459549 399.664032
v 10.739873 126.169594 402.006165
v 11.006669 127.003960 404.702271
v 8.907231 126.576096 406.109772
v 2.154294 121.043358 389.147644
v 4.597452 122.225212 390.749939
v 4.542337 124.016991 394.279999
v 4.862809 125.278091 397.104645
v 5.576256 126.011406 399.449097
v 6.339207 127.560638 402.232971
v 7.080971 127.806076 404.221527
v 6.779865 128.732086 407.102325
v 5.712182 129.106842 409.700470
v 4.797791 130.571091 413.517242
v 3.894980 130.739227 414.813202
v -1.868570 122.806221 392.043518
v -0.296013 125.032585 394.407867
v 1.519303 126.112000 397.393127
v 2.296470 126.844185 399.625885
v 3.606631 127.672905 401.245148
v 2.446337 132.506454 414.110687
v 0.704123 131.935455 415.793427
v -8.691874 120.760559 386.178680
v -7.026183 121.695419 388.063477
v -5.171336 123.651314 391.330261
v -3.395148 124.468124 393.254333
v -6.831568 130.923294 412.577789
v -5.520047 130.900955 413.289520
v -4.731331 132.583710 416.279663
v -11.548058 121.376930 386.338776
v -10.717539 123.100853 389.007660
v -9.357640 124.163124 391.173859
v -9.874237 131.145462 412.558655
v -9.804703 132.336960 414.589294
v -9.471729 133.674652 416.515472
v -16.106560 122.262650 386.406219
v -15.267319 122.936073 388.562225
v -13.612356 125.192848 392.276855
v -19.314434 126.594727 394.214386
v -13.452096 132.521545 414.077484
v -15.930491 133.339035 416.205353
v -16.061157 134.964630 418.930634
v -18.195536 135.953705 420.196716
v -20.538351 124.519173 389.441315
v -19.545145 125.216095 391.764954
v -18.283785 127.253883 395.712463
v -24.018036 128.702469 397.883453
v -21.449160 134.351334 418.282257
v -21.857897 135.468353 419.951385
v -21.894138 136.541260 421.886108
v -26.370728 126.532684 392.123657
v -23.754045 126.645500 394.537109
v -24.625231 128.438705 398.315430
v -29.849085 130.350555 399.302948
v -27.425762 135.433960 420.000122
v -27.408691 136.549042 421.894897
v -27.330828 137.359070 423.403534
v -32.231030 128.575409 397.503632
v -29.632378 129.827835 399.319214
v -32.277885 136.320770 421.309845
v -33.329197 137.176315 423.001495
v -30.181076 137.987701 423.757416
v -34.734077 128.059174 396.378723
v -36.145706 128.359879 398.573761
v -38.972130 134.342621 417.637024
v -37.805195 135.937775 420.954956
v -36.855690 137.611374 423.066315
v -37.553062 128.340805 397.093994
v -41.288090 127.918053 399.187988
v -42.334446 134.574310 418.829193
v -43.407818 135.636749 421.113922
v -39.369904 136.902618 422.396271
v -46.546001 126.787605 401.914215
v -47.343960 127.612099 404.456970
v -48.644073 128.840683 407.979950
v -48.200462 130.179367 412.588409
v -47.219894 133.498856 417.631317
v -45.319286 134.654800 418.952087
v -57.902683 125.320717 401.081543
v -52.472290 125.530357 403.918762
v -50.683136 126.437119 406.904755
v -51.799152 127.213371 408.727478
v -63.018776 124.459084 403.968964
v -55.827568 124.959885 404.442596
v 15.931422 116.087372 385.437439
v 17.984528 117.688980 387.925262
v 18.521044 119.670677 390.912842
v 18.621487 120.647545 394.270996
v 18.444824 121.782333 397.132019
v 17.975496 122.497734 399.720245
v 17.173733 123.576851 402.601593
v 15.324382 124.763321 403.653839
v 9.857723 114.641823 381.694366
v 11.916965 116.540451 383.730286
v 11.708172 119.353638 387.700439
v 14.014759 119.946182 390.154114
v 14.028843 124.066864 403.494812
v 12.586399 125.207390 405.577911
v 9.321477 126.665321 406.124451
v 4.681470 115.906006 382.183472
v 6.383984 116.536797 382.706116
v 6.804993 119.462982 387.328491
v 0.820312 120.949776 389.351959
v 7.995574 125.956306 406.060669
v 7.216146 126.590164 407.556122
v 6.170708 126.884392 410.059326
v 5.688837 128.500351 413.489441
v 3.911943 130.159073 414.562622
v -2.359125 117.076057 382.199280
v 0.196792 117.920181 383.802856
v 0.348443 119.263741 386.795380
v 1.312452 120.906601 389.606537
v 0.704041 128.697723 414.209961
v 0.785901 130.544540 415.050659
v -5.784606 117.354088 381.810883
v -3.380108 119.311409 384.251038
v -3.375952 120.218903 387.138489
v -3.414016 121.326973 389.397461
v -5.935572 127.378914 407.459503
v -3.756178 127.071136 408.299194
v -5.086609 128.932419 411.347260
v -3.454630 129.813324 414.165771
v -1.633680 131.632599 415.513123
v -9.829434 118.119209 381.769684
v -7.854010 118.615784 382.882690
v -8.494325 127.380440 407.134033
v -8.256258 128.552338 409.147614
v -8.310996 129.923187 411.059479
v -12.430774 120.561821 385.724213
v -14.498047 120.646255 386.877441
v -14.357156 128.479752 407.927612
v -14.408464 129.810089 410.139374
v -14.674426 131.363068 412.746246
v -17.612112 132.576538 414.595825
v -16.955198 122.962029 388.806122
v -18.791264 123.292587 390.427063
v -20.794846 124.001129 392.538605
v -24.143030 128.927032 404.888519
v -20.239901 130.374481 408.137878
v -20.394693 131.169174 411.252808
v -20.524063 132.042816 414.084839
v -20.655029 133.117508 416.348938
v -21.594036 125.388412 392.298401
v -24.339306 126.322296 394.986115
v -26.281084 126.979637 396.927856
v -27.040768 127.699394 399.213440
v -26.105450 129.855957 404.761810
v -25.962782 131.318069 408.477875
v -25.883486 132.208954 412.242584
v -25.915939 133.063934 415.678955
v -25.999443 134.227066 418.139008
v -29.247108 128.122101 397.519958
v -30.362511 128.263321 399.181152
v -30.673889 129.807205 403.210358
v -30.472307 131.226715 407.634827
v -30.584589 132.630936 412.487915
v -30.781445 133.867828 416.865356
v -30.902029 134.975449 419.161224
v -32.895458 127.794868 396.771149
v -34.841259 128.358170 399.200623
v -35.632423 129.244293 402.821503
v -35.880310 130.859619 407.662018
v -35.859535 132.719971 413.017883
v -37.252617 133.978806 417.869049
v -33.539856 135.312744 418.941498
v -39.465725 128.173111 400.288116
v -41.965500 128.264328 403.277130
v -42.592148 129.773087 408.030121
v -42.896400 131.485260 413.166290
v -42.274776 132.951340 415.784912
v -45.710217 126.647285 401.319489
v -47.947689 126.271553 403.966980
v -48.608006 127.454048 408.079407
v -47.750301 129.595901 412.822327
v -46.302090 131.907867 414.660431
v -52.716908 123.562759 401.914520
v -51.457260 124.030701 404.214508
v -53.245819 125.068504 408.270844
v -52.891933 125.689514 410.105865
v -63.813091 121.605576 401.378754
v -55.688274 123.316460 403.428497
v -54.988312 123.615761 406.399994
v -57.380215 123.723465 407.970184
v 24.851667 114.462860 387.155121
v 26.222261 116.022087 389.719055
v 25.594603 117.332802 392.708038
v 24.385645 118.556458 395.774658
v 23.614677 119.614563 398.890717
v 23.298168 120.579369 401.629608
v 23.311344 120.656952 403.631989
v 19.417374 112.246552 381.128815
v 22.500555 114.424919 383.540955
v 24.289570 115.821625 386.653839
v 23.453882 117.462448 390.390167
v 22.492352 118.602722 393.426392
v 21.368679 119.706306 396.352753
v 20.589939 120.649353 399.237732
v 18.679781 121.250923 402.013977
v 18.669601 121.554108 404.428223
v 11.459337 111.437660 378.225952
v 15.698306 112.955132 379.225311
v 17.157492 114.482613 382.899567
v 14.161039 122.245850 402.753662
v 12.850539 122.456947 404.798920
v 9.807315 122.388252 407.655823
v 6.491535 112.797310 378.861603
v 9.998940 111.379684 377.559418
v 3.033441 115.992584 382.546753
v 8.046454 123.997681 405.525452
v 8.767646 123.927803 407.492126
v 7.062982 124.734070 410.367828
v 5.354521 125.480743 412.200500
v 2.483012 115.260979 380.748016
v 4.083745 115.608078 382.167786
v -0.863805 125.694801 409.972717
v 0.996512 125.196236 410.526947
v 1.733801 126.773720 412.850586
v -2.277449 115.438553 380.463562
v -4.241628 124.510887 405.211609
v -3.156031 125.403297 406.335297
v -2.659262 126.071106 409.175354
v -1.303101 126.864548 411.715637
v -1.942454 128.602020 413.307770
v -6.093266 116.435661 381.206482
v -7.599640 116.226067 382.532867
v -9.962321 124.137955 401.833008
v -7.708676 125.222412 404.135559
v -7.058033 126.072632 405.754456
v -10.445563 118.331612 384.502502
v -12.226074 118.742607 386.497589
v -13.130335 120.067207 389.342529
v -13.468536 121.878876 393.255310
v -13.894258 123.642601 397.809937
v -12.655131 125.447540 401.601013
v -13.047022 126.078384 404.460175
v -13.196342 127.064049 406.094635
v -15.058070 121.249054 388.371033
v -16.095709 122.533806 391.234863
v -17.543404 123.881660 394.579742
v -18.714020 125.034363 398.268951
v -19.102228 126.262604 402.053284
v -19.442169 128.159897 405.488647
v -17.895561 128.596420 406.142029
v -22.070158 125.312401 395.377716
v -23.490120 126.432617 398.395660
v -23.817175 127.517273 401.745819
v -24.452988 128.514450 403.177063
v -56.567863 121.014587 400.900848
v -53.418926 120.527878 403.779999
v -53.955288 121.304855 406.857330
v -58.127728 122.253426 408.529785
v -55.514030 120.294426 401.257690
v -57.103443 119.968903 403.765686
v -57.044197 121.305511 406.843109
v -59.319527 122.895462 409.253540
v 27.269205 113.142776 386.286835
v 27.773441 115.040207 389.043060
v 27.006166 116.404488 392.254120
v 26.148617 117.715263 395.566467
v 25.432848 118.771576 398.594910
v 24.965862 119.842361 401.331726
v 24.461929 119.964325 403.175446
v 23.535055 111.206970 380.593506
v 25.520309 112.060661 383.164948
v 27.019547 113.165344 385.796387
v 25.558134 114.593369 389.179413
v 24.874561 116.091270 392.764038
v 24.168726 117.470497 396.127686
v 23.376953 118.527634 399.145691
v 22.612585 119.523468 402.095581
v 21.391159 120.352242 404.983032
v 14.391619 111.148094 377.983093
v 18.064203 110.691772 378.361420
v 15.776568 121.174461 406.051086
v 12.657815 121.365173 407.838898
v 12.964077 111.182037 377.590912
v 12.134845 111.082581 378.769684
v 7.392715 121.542938 405.214081
v 8.265185 121.443245 406.504364
v 8.917249 122.364120 408.362976
v 7.189844 123.502106 410.259644
v 4.755665 124.863655 411.640289
v 6.466738 112.330147 379.308075
v 4.008913 121.576180 404.885834
v 4.871308 121.984123 406.578796
v 2.729905 123.600685 408.926544
v 4.173361 124.335526 411.104126
v 4.158556 125.701622 412.355469
v 1.220383 113.556755 380.229614
v -0.216168 113.119293 381.901489
v -2.149785 120.415298 398.515900
v 0.082411 120.821602 400.791412
v -1.496690 122.521591 404.186798
v 0.817965 123.133690 406.911346
v -1.014868 125.275208 408.676605
v -2.783324 114.537979 381.016083
v -4.001621 114.773628 383.136597
v -5.811977 115.662064 385.352386
v -6.412661 117.385674 388.929077
v -6.308732 119.131538 393.460388
v -6.145012 121.268814 397.746216
v -6.039242 122.802391 401.222717
v -3.903654 123.977142 403.651123
v -7.840196 116.516434 384.477203
v -8.884347 117.826103 387.122131
v -9.431494 119.647438 390.995697
v -9.259145 121.427559 395.658722
v -9.392672 122.537621 399.189270
v -10.561111 123.604973 400.178467
v -58.424866 118.360924 404.785767
v -59.057453 117.575989 405.093201
v -57.325089 118.544098 404.040009
v -60.201191 118.722641 406.112885
v 24.172159 109.339622 380.495117
v 26.152035 110.166061 382.339447
v 26.182451 111.970680 385.945557
v 25.722172 113.513756 389.526978
v 25.444464 115.163620 393.262085
v 24.792593 116.438736 396.524231
v 23.419035 117.538078 399.552795
v 22.627169 118.653572 402.791504
v 21.779171 119.264572 405.694397
v 22.642281 110.028198 380.413483
v 20.686728 110.363159 382.723328
v 15.488515 118.899948 405.271027
v 18.843906 119.167450 406.412903
v 11.781926 120.895096 407.471100
v 16.728907 110.513527 380.575836
v 15.410746 111.222389 383.242950
v 14.643938 112.516708 386.415649
v 14.131496 114.078011 390.018860
v 13.748829 115.476555 393.655548
v 13.007615 116.863686 397.256592
v 12.144858 118.137474 401.221039
v 12.576811 119.185661 404.484192
v 12.341457 120.302979 407.008301
v 10.050245 121.595222 407.741425
v 10.441566 111.130142 380.802368
v 10.338681 111.974564 383.272247
v 10.037773 113.591606 386.962646
v 9.443845 115.070938 390.646088
v 8.864195 116.459831 394.273743
v 8.379514 117.867325 398.100403
v 8.008352 118.946983 401.739960
v 6.333357 120.258621 403.598083
v 5.742127 112.029160 381.119354
v 4.679616 112.719513 383.416534
v 3.428417 113.889900 386.569458
v 3.051245 115.393661 390.404633
v 3.110664 116.880661 394.206360
v 0.779139 119.153183 398.188812
v 3.199123 119.988876 402.037292
v 2.822562 121.360168 403.312408
v -0.249818 113.816353 383.949097
v -1.544513 115.084839 387.002350
v -1.877593 116.730400 391.045410
v -1.573178 118.213333 394.953979
v -1.679513 119.465744 396.546997
v -64.382271 108.953087 396.593262
v -63.423473 109.039963 397.282562
v -68.875481 108.805267 397.071411
v -65.266708 109.390381 396.967316
v 24.888618 108.770348 383.830139
v 26.003057 110.722153 386.222839
v 26.375103 112.639008 390.036469
v 26.246069 113.696236 393.453125
v 25.913248 114.836586 396.665283
v 24.957603 116.163605 399.951447
v 24.267801 117.498688 403.544464
v 21.828993 117.747475 405.652710
v 24.032347 109.794098 383.796753
v 22.508530 110.863510 386.899963
v 22.326725 112.775795 390.784851
v 21.523258 114.013916 394.106018
v 19.933899 115.134262 397.250092
v 19.064999 116.421227 400.924194
v 18.605902 117.682259 404.634277
v 20.403419 118.281197 406.317322
v 19.369390 110.747520 384.800049
v 18.353548 112.229614 388.266418
v 17.892902 113.861504 391.959412
v 17.424887 115.121727 395.300568
v 16.294424 116.426811 398.829071
v 15.306347 117.616371 402.595184
v 14.682209 118.721123 403.692352
v -63.624989 107.794868 396.265808
v -64.266411 107.853889 396.624329
v -62.719875 108.764557 396.474823
v -65.653717 108.511581 397.353088
v 25.248573 112.011131 394.451904
v 25.425838 113.547256 396.906769
v 24.951870 115.098412 400.596100
v 23.970045 116.137947 403.800598
v 23.045412 115.710831 404.284790
v 24.237555 113.372864 395.095154
v 22.807116 114.604439 398.388916
v 22.368280 115.877121 402.213745
v 20.573147 116.601295 404.706116
v 21.063551 116.746506 405.068390
f 1 2 61
f 2 62 61
f 1 61 69
f 1 69 6
f 1 7 2
f 1 6 7
f 69 70 7
f 69 7 6
f 2 3 62
f 3 63 62
f 2 8 3
f 2 7 8
f 70 71 8
f 70 8 7
f 3 71 63
f 3 8 71
f 4 5 67
f 5 68 67
f 4 67 75
f 4 75 9
f 4 10 5
f 4 9 10
f 75 76 10
f 75 10 9
f 5 6 68
f 6 69 68
f 5 11 6
f 5 10 11
f 76 77 11
f 76 11 10
f 6 77 69
f 6 11 77
f 12 13 102
f 13 103 102
f 12 102 112
f 12 112 21
f 12 22 13
f 12 21 22
f 13 14 103
f 14 104 103
f 13 23 14
f 13 22 23
f 14 15 104
f 15 105 104
f 14 24 15
f 14 23 24
f 15 16 105
f 16 106 105
f 15 25 16
f 15 24 25
f 16 17 106
f 17 107 106
f 16 26 17
f 16 25 26
f 17 18 107
f 18 108 107
f 17 27 18
f 17 26 27
f 18 19 108
f 19 109 108
f 18 28 19
f 18 27 28
f 113 114 28
f 113 28 27
f 19 114 109
f 19 28 114
f 20 21 111
f 21 112 111
f 20 111 116
f 20 116 29
f 20 30 21
f 20 29 30
f 116 117 30
f 116 30 29
f 21 31 22
f 21 30 31
f 117 118 31
f 117 31 30
f 22 32 23
f 22 31 32
f 23 33 24
f 23 32 33
f 24 34 25
f 24 33 34
f 25 35 26
f 25 34 35
f 26 36 27
f 26 35 36
f 27 119 113
f 27 36 119
f 31 118 124
f 31 124 40
f 31 41 32
f 31 40 41
f 124 125 41
f 124 41 40
f 32 42 33
f 32 41 42
f 125 126 42
f 125 42 41
f 33 43 34
f 33 42 43
f 34 44 35
f 34 43 44
f 35 45 36
f 35 44 45
f 36 37 119
f 37 120 119
f 36 46 37
f 36 45 46
f 37 38 120
f 38 121 120
f 37 47 38
f 37 46 47
f 38 39 121
f 39 122 121
f 38 48 39
f 38 47 48
f 39 127 122
f 39 48 127
f 42 126 131
f 42 131 50
f 42 51 43
f 42 50 51
f 131 132 51
f 131 51 50
f 43 52 44
f 43 51 52
f 44 53 45
f 44 52 53
f 45 54 46
f 45 53 54
f 46 55 47
f 46 54 55
f 47 56 48
f 47 55 56
f 48 49 127
f 49 128 127
f 127 128 133
f 128 134 133
f 48 57 49
f 48 56 57
f 133 134 57
f 133 57 56
f 49 134 128
f 49 57 134
f 51 132 137
f 51 137 59
f 51 60 52
f 51 59 60
f 52 61 53
f 52 60 61
f 53 62 54
f 53 61 62
f 54 63 55
f 54 62 63
f 55 64 56
f 55 63 64
f 56 139 133
f 56 64 139
f 58 59 136
f 59 137 136
f 58 136 142
f 58 142 66
f 58 67 59
f 58 66 67
f 59 68 60
f 59 67 68
f 60 69 61
f 60 68 69
f 138 139 143
f 139 144 143
f 63 72 64
f 63 71 72
f 143 144 72
f 143 72 71
f 64 144 139
f 64 72 144
f 65 66 141
f 66 142 141
f 65 141 146
f 65 146 73
f 65 74 66
f 65 73 74
f 66 75 67
f 66 74 75
f 69 78 70
f 69 77 78
f 70 79 71
f 70 78 79
f 71 148 143
f 71 79 148
f 73 146 149
f 73 149 80
f 73 81 74
f 73 80 81
f 149 150 81
f 149 81 80
f 74 82 75
f 74 81 82
f 150 151 82
f 150 82 81
f 75 83 76
f 75 82 83
f 151 152 83
f 151 83 82
f 76 84 77
f 76 83 84
f 152 153 84
f 152 84 83
f 77 85 78
f 77 84 85
f 153 154 85
f 153 85 84
f 147 148 154
f 148 155 154
f 78 86 79
f 78 85 86
f 154 155 86
f 154 86 85
f 79 155 148
f 79 86 155
f 87 88 175
f 88 176 175
f 87 175 185
f 87 185 95
f 87 96 88
f 87 95 96
f 88 89 176
f 89 177 176
f 88 97 89
f 88 96 97
f 89 90 177
f 90 178 177
f 89 98 90
f 89 97 98
f 90 91 178
f 91 179 178
f 90 99 91
f 90 98 99
f 91 186 179
f 91 99 186
f 92 93 182
f 93 183 182
f 92 182 191
f 92 191 102
f 92 103 93
f 92 102 103
f 93 94 183
f 94 184 183
f 93 104 94
f 93 103 104
f 94 95 184
f 95 185 184
f 94 105 95
f 94 104 105
f 95 106 96
f 95 105 106
f 96 107 97
f 96 106 107
f 97 108 98
f 97 107 108
f 98 109 99
f 98 108 109
f 99 100 186
f 100 187 186
f 99 110 100
f 99 109 110
f 100 194 187
f 100 110 194
f 101 102 190
f 102 191 190
f 101 190 197
f 101 197 111
f 101 112 102
f 101 111 112
f 192 193 198
f 193 199 198
f 193 194 199
f 194 200 199
f 109 115 110
f 109 114 115
f 110 200 194
f 110 115 200
f 111 197 203
f 111 203 116
f 203 204 117
f 203 117 116
f 198 199 205
f 199 206 205
f 113 120 114
f 113 119 120
f 199 200 206
f 200 207 206
f 114 121 115
f 114 120 121
f 115 207 200
f 115 121 207
f 117 204 211
f 117 211 123
f 117 124 118
f 117 123 124
f 211 212 124
f 211 124 123
f 206 207 213
f 207 214 213
f 121 122 207
f 122 208 207
f 207 208 214
f 208 215 214
f 122 215 208
f 122 127 215
f 124 212 218
f 124 218 129
f 124 130 125
f 124 129 130
f 218 219 130
f 218 130 129
f 125 131 126
f 125 130 131
f 213 214 220
f 214 221 220
f 214 215 221
f 215 222 221
f 127 222 215
f 127 133 222
f 130 219 224
f 130 224 135
f 130 136 131
f 130 135 136
f 131 137 132
f 131 136 137
f 220 221 225
f 221 226 225
f 221 222 226
f 222 227 226
f 226 227 139
f 226 139 138
f 133 227 222
f 133 139 227
f 135 224 229
f 135 229 141
f 135 142 136
f 135 141 142
f 225 226 231
f 226 232 231
f 138 232 226
f 138 143 232
f 140 141 228
f 141 229 228
f 228 229 233
f 229 234 233
f 140 228 233
f 140 233 145
f 140 146 141
f 140 145 146
f 233 234 146
f 233 146 145
f 230 231 235
f 231 236 235
f 231 232 236
f 232 237 236
f 236 237 148
f 236 148 147
f 143 237 232
f 143 148 237
f 146 234 238
f 146 238 149
f 238 239 150
f 238 150 149
f 239 240 151
f 239 151 150
f 240 241 152
f 240 152 151
f 241 242 153
f 241 153 152
f 235 236 242
f 236 243 242
f 242 243 154
f 242 154 153
f 147 243 236
f 147 154 243
f 156 157 252
f 157 253 252
f 156 252 261
f 156 261 163
f 156 164 157
f 156 163 164
f 157 158 253
f 158 254 253
f 157 165 158
f 157 164 165
f 158 159 254
f 159 255 254
f 158 166 159
f 158 165 166
f 159 160 255
f 160 256 255
f 159 167 160
f 159 166 167
f 160 161 256
f 161 257 256
f 256 257 262
f 257 263 262
f 160 168 161
f 160 167 168
f 161 263 257
f 161 168 263
f 162 163 260
f 163 261 260
f 162 260 267
f 162 267 170
f 162 171 163
f 162 170 171
f 267 268 171
f 267 171 170
f 163 172 164
f 163 171 172
f 164 173 165
f 164 172 173
f 165 174 166
f 165 173 174
f 166 175 167
f 166 174 175
f 167 176 168
f 167 175 176
f 168 169 263
f 169 264 263
f 263 264 269
f 264 270 269
f 168 177 169
f 168 176 177
f 169 270 264
f 169 177 270
f 171 268 277
f 171 277 181
f 171 182 172
f 171 181 182
f 172 183 173
f 172 182 183
f 173 184 174
f 173 183 184
f 174 185 175
f 174 184 185
f 177 178 270
f 178 271 270
f 178 179 271
f 179 272 271
f 179 180 272
f 180 273 272
f 272 273 278
f 273 279 278
f 179 187 180
f 179 186 187
f 180 279 273
f 180 187 279
f 181 277 283
f 181 283 190
f 181 191 182
f 181 190 191
f 286 287 193
f 286 193 192
f 278 279 287
f 279 288 287
f 287 288 194
f 287 194 193
f 187 288 279
f 187 194 288
f 188 189 281
f 189 282 281
f 188 281 290
f 188 290 195
f 188 196 189
f 188 195 196
f 189 190 282
f 190 283 282
f 189 197 190
f 189 196 197
f 284 285 291
f 285 292 291
f 285 286 292
f 286 293 292
f 192 293 286
f 192 198 293
f 195 290 294
f 195 294 201
f 195 202 196
f 195 201 202
f 294 295 202
f 294 202 201
f 196 203 197
f 196 202 203
f 291 292 296
f 292 297 296
f 292 293 297
f 293 298 297
f 198 298 293
f 198 205 298
f 202 295 300
f 202 300 209
f 202 210 203
f 202 209 210
f 300 301 210
f 300 210 209
f 203 211 204
f 203 210 211
f 296 297 304
f 297 305 304
f 297 298 305
f 298 306 305
f 205 206 298
f 206 299 298
f 298 299 306
f 299 307 306
f 206 307 299
f 206 213 307
f 301 302 308
f 302 309 308
f 210 301 308
f 210 308 216
f 210 217 211
f 210 216 217
f 308 309 217
f 308 217 216
f 211 218 212
f 211 217 218
f 309 310 218
f 309 218 217
f 303 304 312
f 304 313 312
f 304 305 313
f 305 314 313
f 305 306 314
f 306 315 314
f 306 307 315
f 307 316 315
f 213 316 307
f 213 220 316
f 310 311 317
f 311 318 317
f 218 310 317
f 218 317 223
f 218 224 219
f 218 223 224
f 311 312 318
f 312 319 318
f 312 313 319
f 313 320 319
f 313 314 320
f 314 321 320
f 314 315 321
f 315 322 321
f 315 316 322
f 316 323 322
f 220 323 316
f 220 225 323
f 317 318 324
f 318 325 324
f 223 317 324
f 223 324 228
f 223 229 224
f 223 228 229
f 324 325 229
f 324 229 228
f 318 319 325
f 319 326 325
f 319 320 326
f 320 327 326
f 320 321 327
f 321 328 327
f 321 322 328
f 322 329 328
f 322 323 329
f 323 330 329
f 329 330 231
f 329 231 230
f 225 330 323
f 225 231 330
f 325 326 331
f 326 332 331
f 229 325 331
f 229 331 234
f 326 327 332
f 327 333 332
f 327 328 333
f 328 334 333
f 328 329 334
f 329 335 334
f 230 335 329
f 230 235 335
f 331 332 336
f 332 337 336
f 234 331 336
f 234 336 238
f 332 333 337
f 333 338 337
f 333 334 338
f 334 339 338
f 334 335 339
f 335 340 339
f 339 340 242
f 339 242 241
f 235 340 335
f 235 242 340
f 336 337 341
f 337 342 341
f 238 336 341
f 238 341 244
f 238 245 239
f 238 244 245
f 341 342 245
f 341 245 244
f 337 338 342
f 338 343 342
f 239 246 240
f 239 245 246
f 338 339 343
f 339 344 343
f 240 247 241
f 240 246 247
f 343 344 247
f 343 247 246
f 241 344 339
f 241 247 344
f 245 342 346
f 245 346 248
f 245 249 246
f 245 248 249
f 346 347 249
f 346 249 248
f 246 347 343
f 246 249 347
f 250 251 357
f 251 358 357
f 250 357 367
f 250 367 259
f 250 260 251
f 250 259 260
f 251 252 358
f 252 359 358
f 251 261 252
f 251 260 261
f 252 253 359
f 253 360 359
f 253 254 360
f 254 361 360
f 254 255 361
f 255 362 361
f 255 256 362
f 256 363 362
f 256 368 363
f 256 262 368
f 258 259 366
f 259 367 366
f 258 366 372
f 258 372 265
f 258 266 259
f 258 265 266
f 372 373 266
f 372 266 265
f 259 267 260
f 259 266 267
f 262 263 368
f 263 369 368
f 263 374 369
f 263 269 374
f 266 373 379
f 266 379 275
f 266 276 267
f 266 275 276
f 267 277 268
f 267 276 277
f 269 270 374
f 270 375 374
f 270 271 375
f 271 376 375
f 271 272 376
f 272 377 376
f 272 382 377
f 272 278 382
f 274 275 378
f 275 379 378
f 274 378 383
f 274 383 280
f 274 281 275
f 274 280 281
f 275 282 276
f 275 281 282
f 276 283 277
f 276 282 283
f 385 386 285
f 385 285 284
f 380 381 386
f 381 387 386
f 386 387 286
f 386 286 285
f 381 382 387
f 382 388 387
f 387 388 287
f 387 287 286
f 278 388 382
f 278 287 388
f 280 383 389
f 280 389 289
f 280 290 281
f 280 289 290
f 389 390 290
f 389 290 289
f 384 385 392
f 385 393 392
f 284 393 385
f 284 291 393
f 290 390 394
f 290 394 294
f 394 395 295
f 394 295 294
f 391 392 399
f 392 400 399
f 392 393 400
f 393 401 400
f 291 401 393
f 291 296 401
f 395 396 402
f 396 403 402
f 295 395 402
f 295 402 300
f 402 403 301
f 402 301 300
f 396 397 403
f 397 404 403
f 403 404 302
f 403 302 301
f 397 398 404
f 398 405 404
f 398 399 405
f 399 406 405
f 399 400 406
f 400 407 406
f 400 401 407
f 401 408 407
f 407 408 304
f 407 304 303
f 296 408 401
f 296 304 408
f 404 405 409
f 405 410 409
f 302 404 409
f 302 409 309
f 409 410 310
f 409 310 309
f 405 406 410
f 406 411 410
f 410 411 311
f 410 311 310
f 406 407 411
f 407 412 411
f 411 412 312
f 411 312 311
f 303 412 407
f 303 312 412
f 341 342 413
f 342 414 413
f 413 414 417
f 414 418 417
f 341 413 417
f 341 417 345
f 341 346 342
f 341 345 346
f 417 418 346
f 417 346 345
f 342 343 414
f 343 415 414
f 418 419 347
f 418 347 346
f 343 344 415
f 344 416 415
f 415 416 419
f 416 420 419
f 343 348 344
f 343 347 348
f 419 420 348
f 419 348 347
f 344 420 416
f 344 348 420
f 349 350 421
f 350 422 421
f 421 422 430
f 422 431 430
f 349 421 430
f 349 430 358
f 349 359 350
f 349 358 359
f 350 351 422
f 351 423 422
f 422 423 431
f 423 432 431
f 350 360 351
f 350 359 360
f 351 352 423
f 352 424 423
f 423 424 432
f 424 433 432
f 351 361 352
f 351 360 361
f 352 353 424
f 353 425 424
f 424 425 433
f 425 434 433
f 352 362 353
f 352 361 362
f 353 354 425
f 354 426 425
f 425 426 434
f 426 435 434
f 353 363 354
f 353 362 363
f 354 355 426
f 355 427 426
f 426 427 435
f 427 436 435
f 354 364 355
f 354 363 364
f 355 436 427
f 355 364 436
f 356 357 428
f 357 429 428
f 356 428 438
f 356 438 366
f 356 367 357
f 356 366 367
f 357 358 429
f 358 430 429
f 363 369 364
f 363 368 369
f 364 439 436
f 364 369 439
f 365 366 437
f 366 438 437
f 437 438 441
f 438 442 441
f 365 437 441
f 365 441 371
f 365 372 366
f 365 371 372
f 441 442 372
f 441 372 371
f 369 370 439
f 370 440 439
f 369 375 370
f 369 374 375
f 370 445 440
f 370 375 445
f 372 442 448
f 372 448 378
f 372 379 373
f 372 378 379
f 443 444 449
f 444 450 449
f 444 445 450
f 445 451 450
f 375 376 445
f 376 446 445
f 445 446 451
f 446 452 451
f 451 452 381
f 451 381 380
f 376 377 446
f 377 447 446
f 446 447 452
f 447 453 452
f 452 453 382
f 452 382 381
f 377 453 447
f 377 382 453
f 378 448 454
f 378 454 383
f 449 450 458
f 450 459 458
f 458 459 385
f 458 385 384
f 450 451 459
f 451 460 459
f 459 460 386
f 459 386 385
f 380 460 451
f 380 386 460
f 454 455 461
f 455 462 461
f 383 454 461
f 383 461 389
f 461 462 390
f 461 390 389
f 456 457 466
f 457 467 466
f 457 458 467
f 458 468 467
f 467 468 392
f 467 392 391
f 384 468 458
f 384 392 468
f 462 463 469
f 463 470 469
f 390 462 469
f 390 469 394
f 469 470 395
f 469 395 394
f 463 464 470
f 464 471 470
f 470 471 396
f 470 396 395
f 464 465 471
f 465 472 471
f 471 472 397
f 471 397 396
f 465 466 472
f 466 473 472
f 472 473 398
f 472 398 397
f 466 467 473
f 467 474 473
f 473 474 399
f 473 399 398
f 391 474 467
f 391 399 474
f 414 415 475
f 415 476 475
f 475 476 477
f 476 478 477
f 414 475 477
f 414 477 418
f 477 478 419
f 477 419 418
f 415 478 476
f 415 419 478
f 428 429 479
f 429 480 479
f 479 480 488
f 480 489 488
f 428 479 488
f 428 488 438
f 429 430 480
f 430 481 480
f 430 431 481
f 431 482 481
f 431 432 482
f 432 483 482
f 432 433 483
f 433 484 483
f 433 434 484
f 434 485 484
f 434 435 485
f 435 486 485
f 435 436 486
f 436 487 486
f 436 491 487
f 436 439 491
f 488 489 493
f 489 494 493
f 438 488 493
f 438 493 442
f 490 491 500
f 491 501 500
f 500 501 444
f 500 444 443
f 439 440 491
f 440 492 491
f 491 492 501
f 492 502 501
f 501 502 445
f 501 445 444
f 440 502 492
f 440 445 502
f 493 494 503
f 494 504 503
f 442 493 503
f 442 503 448
f 494 495 504
f 495 505 504
f 495 496 505
f 496 506 505
f 496 497 506
f 497 507 506
f 497 498 507
f 498 508 507
f 498 499 508
f 499 509 508
f 499 500 509
f 500 510 509
f 443 510 500
f 443 449 510
f 503 504 511
f 504 512 511
f 448 503 511
f 448 511 454
f 511 512 455
f 511 455 454
f 504 505 512
f 505 513 512
f 505 506 513
f 506 514 513
f 506 507 514
f 507 515 514
f 507 508 515
f 508 516 515
f 508 509 516
f 509 517 516
f 516 517 457
f 516 457 456
f 509 510 517
f 510 518 517
f 517 518 458
f 517 458 457
f 449 518 510
f 449 458 518
f 512 513 519
f 513 520 519
f 455 512 519
f 455 519 462
f 519 520 463
f 519 463 462
f 513 514 520
f 514 521 520
f 520 521 464
f 520 464 463
f 514 515 521
f 515 522 521
f 521 522 465
f 521 465 464
f 515 516 522
f 516 523 522
f 522 523 466
f 522 466 465
f 456 523 516
f 456 466 523
f 480 481 528
f 481 529 528
f 528 529 536
f 529 537 536
f 480 528 536
f 480 536 489
f 481 482 529
f 482 530 529
f 529 530 537
f 530 538 537
f 482 483 530
f 483 531 530
f 530 531 538
f 531 539 538
f 483 484 531
f 484 532 531
f 484 485 532
f 485 533 532
f 485 486 533
f 486 534 533
f 486 487 534
f 487 535 534
f 542 543 491
f 542 491 490
f 487 543 535
f 487 491 543
f 536 537 544
f 537 545 544
f 489 536 544
f 489 544 494
f 544 545 495
f 544 495 494
f 537 538 545
f 538 546 545
f 545 546 496
f 545 496 495
f 538 539 546
f 539 547 546
f 546 547 497
f 546 497 496
f 539 540 547
f 540 548 547
f 547 548 498
f 547 498 497
f 540 541 548
f 541 549 548
f 548 549 499
f 548 499 498
f 541 542 549
f 542 550 549
f 549 550 500
f 549 500 499
f 490 550 542
f 490 500 550
f 524 525 551
f 525 552 551
f 551 552 553
f 552 554 553
f 524 551 553
f 524 553 526
f 524 527 525
f 524 526 527
f 553 554 527
f 553 527 526
f 525 554 552
f 525 527 554
f 531 532 555
f 532 556 555
f 555 556 560
f 556 561 560
f 531 555 560
f 531 560 539
f 560 561 540
f 560 540 539
f 532 533 556
f 533 557 556
f 556 557 561
f 557 562 561
f 561 562 541
f 561 541 540
f 533 534 557
f 534 558 557
f 557 558 562
f 558 563 562
f 562 563 542
f 562 542 541
f 534 535 558
f 535 559 558
f 558 559 563
f 559 564 563
f 563 564 543
f 563 543 542
f 535 564 559
f 535 543 564