v -97.288719 133.629486 397.172394
v -97.163216 134.097046 398.170990
v -97.675102 134.149353 399.173889
v -98.288399 133.005829 397.524628
v -97.494286 133.729202 397.614563
v -97.929306 134.206741 398.751160
v -96.851402 131.738846 395.199890
v -96.412735 132.531097 396.121216
v -96.836922 132.954147 397.870728
v -97.236908 133.157745 399.454773
v -98.006371 133.012665 401.187958
v -97.910286 131.075699 395.428131
v -97.044914 132.728149 396.085754
v -97.505730 132.489105 397.260162
v -97.722031 133.149292 399.082672
v -98.136848 133.369400 400.515045
v -96.693024 128.943710 386.001648
v -96.610153 129.174088 386.939270
v -96.896698 129.491562 388.141846
v -97.182205 129.203186 388.847900
v -97.263115 128.499847 384.616882
v -97.077881 128.667618 385.643005
v -97.099472 128.912766 386.739899
v -97.232193 129.211731 387.769867
v -97.418861 129.194870 388.702820
v -97.862335 128.494080 384.593689
v -97.776260 128.896957 385.693665
v -97.969383 128.888000 387.070374
v -98.462265 128.085403 388.033630
v -99.337242 128.608124 384.761719
v -98.469604 128.526428 385.487488
v -98.618958 128.575562 386.810791
v -98.918198 128.250473 388.086395
v -96.320641 130.073761 392.332092
v -96.062843 130.467407 393.407959
v -96.180161 131.005417 394.614227
v -96.446709 131.264450 396.187592
v -96.828064 131.460678 397.960327
v -97.242706 132.184525 399.240173
v -98.146248 131.975128 401.301025
v -97.545853 129.451965 392.649811
v -96.256432 130.166183 392.503784
v -96.815872 131.088898 394.500854
v -97.053474 130.729843 395.519440
v -97.354424 131.424423 397.817078
v -97.895424 132.577621 399.952484
v -98.457550 132.404160 401.651337
v -96.107033 128.616684 387.112488
v -96.124092 128.790283 388.272980
v -96.268097 128.902679 389.331421
v -96.710045 128.984711 390.826599
v -97.095932 129.033783 392.306122
v -97.637032 128.715988 393.556885
v -96.358894 128.379639 385.932312
v -96.317474 128.708954 386.884918
v -96.513329 129.124222 388.097870
v -96.839630 128.865753 389.120026
v -97.184502 128.308182 390.392517
v -97.142433 128.414520 391.587372
v -97.502403 128.498642 392.904266
v -97.116814 128.066788 384.901825
v -96.823456 127.990204 385.129974
v -97.416107 128.299866 387.275757
v -97.283005 128.280594 388.194641
v -97.460648 128.479156 389.270111
v -97.620667 127.684258 389.984070
v -97.405220 127.539520 384.407837
v -97.804657 127.281487 385.347931
v -97.838768 128.481491 387.228180
v -97.935715 127.647308 388.081268
v -98.109276 127.082176 389.079285
v -98.257767 127.103401 390.260834
v -98.183777 127.730690 384.507782
v -98.778610 126.844994 385.601501
v -99.020866 127.381973 387.566498
v -98.966728 127.296684 388.552856
v -98.905266 126.489975 389.059418
v -99.984360 126.082909 386.173737
v -99.811371 126.540741 387.274658
v -99.878052 126.137009 388.438782
v -99.724442 125.744194 389.500824
v -100.859230 125.185493 386.057373
v -100.792595 125.654648 387.255341
v -100.804390 125.274780 387.967377
v -102.043716 125.998825 385.307617
v -101.376022 124.893425 386.725311
v -101.279129 124.847031 387.641174
v -102.949348 123.982094 387.531342
v -102.936035 123.672325 388.061981
v -103.585617 124.080841 387.332916
v -103.671326 124.198662 388.610596
v -104.104614 123.790375 389.154846
v -104.373291 124.534225 387.010834
v -104.272003 124.224869 387.908539
v -104.608002 123.704033 389.030853
v -105.120728 127.276398 385.009064
v -105.053299 124.278145 387.964111
v -105.467468 124.102867 389.289185
v -106.146629 124.169235 390.204163
v -106.089027 127.065598 386.337006
v -105.956970 124.248398 388.714020
v -106.334068 124.518097 389.916229
v -96.182175 129.974014 392.312927
v -95.812447 129.721085 392.796692
v -96.328621 129.982895 394.626984
v -96.655464 130.239410 396.439301
v -97.299538 129.733536 397.521576
v -96.029327 128.434601 389.905121
v -96.021828 129.941757 391.742615
v -96.518112 129.772278 392.877411
v -96.735344 129.885056 394.718903
v -97.208946 130.264694 396.771637
v -97.531181 130.070450 397.483978
v -96.122597 128.378555 387.507050
v -96.041298 127.991135 387.919525
v -96.193642 128.464874 389.542847
v -96.451538 128.946152 390.929321
v -97.002220 128.668640 392.154449
v -97.553459 128.040283 392.906525
v -96.399239 127.763260 385.984009
v -95.967926 127.866272 386.014832
v -96.678078 127.303665 387.639069
v -97.267288 127.205147 391.182098
v -97.757057 127.645348 392.401520
v -97.694946 128.207626 393.289581
v -97.120216 126.310043 384.466217
v -96.500046 127.233887 384.987457
v -97.064583 126.733276 386.278381
v -97.904030 126.316299 390.883942
v -97.703926 125.925186 391.420715
v -97.795341 126.571571 384.718964
v -97.462357 127.457504 385.179596
v -98.669456 125.951035 390.406921
v -98.611893 125.601234 390.694885
v -98.339920 125.941422 384.178406
v -99.625221 125.898598 385.640869
v -99.246399 125.132851 389.823578
v -99.122124 124.543846 390.498169
v -99.674591 124.963043 384.415680
v -99.442757 126.040939 385.527985
v -100.168633 124.739075 389.333466
v -100.092590 124.723145 389.522308
v -100.871811 125.083504 384.076843
v -100.426079 124.588211 385.368530
v -100.830849 124.280899 388.548920
v -100.532478 123.548759 389.023285
v -101.535774 123.983337 385.975464
v -101.760544 124.093994 387.046936
v -101.747086 123.926521 388.188385
v -102.401344 123.201668 385.832977
v -102.445137 123.971840 387.190094
v -102.699692 123.255127 388.085907
v -103.597046 124.661049 385.281586
v -103.242714 123.342270 386.909210
v -103.589302 123.514290 388.599304
v -103.926636 123.879158 388.705658
v -103.937843 123.381752 386.965668
v -104.387146 122.998695 388.244232
v -104.577347 123.235474 389.084473
v -104.583023 124.057747 386.995514
v -104.951820 122.879250 387.881378
v -105.402847 123.632294 389.628357
v -105.887367 123.959648 390.106842
v -105.644890 123.631172 388.213165
v -106.126396 123.800697 389.517670
v -106.286934 124.860840 390.414429
v -96.222137 128.224106 390.273438
v -95.942543 128.056702 390.931458
v -96.986008 128.033524 392.077179
v -96.345711 127.529388 388.568237
v -96.135635 127.359367 389.426147
v -96.435738 127.168549 391.159851
v -97.131989 127.119118 392.102325
v -96.680054 126.350327 386.796600
v -96.621849 126.550179 388.089783
v -97.057022 126.045433 388.618927
v -97.486832 126.296844 391.636505
v -97.023247 125.857254 384.788757
v -97.303978 125.592606 385.623474
v -97.087860 126.196098 386.372498
v -98.272919 124.960121 391.637451
v -98.334236 125.016823 391.870209
v -97.621109 125.296944 384.741608
v -97.796059 124.431732 384.965851
v -98.609276 124.433075 391.234558
v -98.944588 123.652893 392.040466
v -98.286400 125.109406 384.061493
v -99.080811 123.656693 384.763306
v -99.564186 123.603256 390.392822
v -99.684593 123.857925 390.949158
v -99.539330 123.082993 391.683838
v -99.303520 124.451180 384.530182
v -99.602867 123.680809 384.964111
v -100.084023 123.427620 389.775482
v -100.403770 122.468727 390.496429
v -100.032135 124.017822 384.190674
v -100.633186 122.840042 384.902130
v -101.051811 122.815338 388.694885
v -101.200348 123.044876 389.624084
v -100.908669 122.285088 390.151459
v -101.347992 122.913765 385.355896
v -101.769218 122.555176 388.277466
v -101.986191 121.702942 388.794312
v -102.096939 122.447617 385.432617
v -102.664795 122.302971 388.218231
v -102.879372 121.465622 388.713348
v -102.745277 122.676819 385.908447
v -103.288277 121.994484 386.522430
v -103.514664 122.144714 388.255096
v -103.819160 121.696602 389.084595
v -103.815437 122.367981 387.100800
v -104.132645 121.817169 387.943787
v -104.428513 121.767189 388.785980
v -112.738068 127.882332 409.990601
v -112.861229 129.707962 411.331818
v -113.470978 131.174149 413.506683
v -114.052956 131.995224 415.180847
v -114.432144 131.383255 415.903442
v -113.378075 125.389862 408.856781
v -113.091896 129.415710 410.760406
v -114.298546 131.408478 413.826050
v -114.674614 132.498367 415.173004
v -115.006912 132.134857 416.009705
v -115.329468 128.476624 413.226776
v -115.232224 131.635590 414.638672
v -115.507614 131.676987 415.525696
v -96.925804 126.308861 390.027466
v -96.858086 125.992592 391.100189
v -97.530571 125.791718 391.514740
v -96.974724 125.176575 387.159790
v -97.129341 124.512581 387.541260
v -97.013939 125.059715 389.141815
v -97.204475 124.801651 390.348511
v -97.918343 124.951263 391.289490
v -97.307259 124.556503 385.697723
v -97.240105 124.452271 386.059082
v -97.740295 123.636475 387.100952
v -98.313087 123.964668 391.538666
v -98.072289 124.028542 384.765228
v -97.827606 123.827827 384.954773
v -98.214760 122.994614 385.893127
v -98.918190 122.722687 391.689392
v -98.253166 123.965958 384.329773
v -98.861526 122.513412 384.685272
v -99.894485 121.796417 391.187714
v -99.633598 122.094391 391.776917
v -99.719582 123.333038 384.618561
v -99.688232 122.714355 385.403961
v -100.550880 122.026649 390.818695
v -101.102287 120.963448 391.592896
v -99.904793 122.875954 384.056091
v -100.505669 121.726509 384.772034
v -101.358528 121.502281 389.688507
v -101.463524 121.781189 390.581451
v -101.369606 121.022820 391.324036
v -101.229919 121.789215 385.444061
v -101.887794 120.896339 386.236176
v -102.122711 121.071655 389.402771
v -102.332611 120.269814 390.063812
v -101.954117 121.725327 385.740326
v -102.641907 120.946564 386.650146
v -103.020287 120.269753 388.023926
v -103.092628 120.711639 389.064026
v -102.843765 119.918945 389.416199
v -102.672195 121.800758 385.983978
v -103.246918 121.106140 386.926575
v -103.761375 120.280121 388.231262
v -103.621521 121.037796 388.646576
v -103.774765 121.491096 387.289337
v -104.213249 121.236588 388.299561
v -104.323875 121.660507 389.162354
v -112.509636 126.774216 410.082886
v -112.704666 129.015076 411.259552
v -113.338821 130.471115 413.367493
v -113.892105 131.082672 414.988495
v -114.380020 129.407120 415.747742
v -112.718475 128.328674 410.081665
v -113.339539 129.707504 411.933014
v -114.060188 130.546646 413.811432
v -114.611336 130.646637 415.074097
v -114.875473 131.253708 415.882965
v -114.952934 131.096710 414.291840
v -115.400253 131.249649 415.452362
v -115.571533 130.213120 416.075409
v -97.507065 123.829338 388.240662
v -97.286858 123.651459 388.630066
v -97.846542 123.309952 389.798401
v -97.749443 123.066154 390.676086
v -97.678680 122.454933 386.099670
v -97.672104 122.833336 387.314941
v -97.822472 122.696663 388.451324
v -98.429115 122.522911 389.238068
v -98.452744 123.140404 391.225952
v -98.764389 122.662697 391.970947
v -99.132309 122.581856 392.770874
v -98.516312 122.391975 385.692657
v -98.369400 122.285461 385.839874
v -99.007172 121.976212 391.508453
v -99.354836 122.100456 392.310699
v -99.619293 122.166290 393.061340
v -98.814995 121.808502 385.328918
v -99.281494 120.949867 385.887268
v -100.072540 121.122528 391.378052
v -99.865402 121.223015 391.458130
v -100.190338 121.110130 392.347504
v -100.355606 121.647980 393.276428
v -99.665665 120.887253 384.790344
v -100.433365 121.257988 391.327301
v -100.739616 120.802170 391.462952
v -100.933334 120.204659 391.935242
v -100.436378 120.646309 384.872681
v -101.819588 120.268639 390.938995
v -101.719223 120.469414 391.440826
v -101.734970 119.942207 392.161987
v -101.178329 120.724281 385.512787
v -101.893097 119.833183 386.466339
v -102.354179 119.795250 390.545654
v -102.535591 119.305679 391.234283
v -102.453476 120.085808 386.946777
v -103.231575 119.321564 388.107574
v -103.285042 119.205048 389.252228
v -103.436661 119.097458 390.439606
v -103.108482 118.813271 390.605743
v -103.019753 120.283798 387.114990
v -103.439445 119.733887 388.117462
v -103.807671 118.902290 389.072815
v -103.835266 118.316315 389.563171
v -109.644989 124.126228 406.463898
v -109.600830 124.547447 407.506866
v -110.136459 125.211891 409.409424
v -110.706177 125.175529 410.757996
v -110.597878 122.235619 406.218384
v -109.899727 124.424477 407.059570
v -110.321442 125.076408 408.855438
v -110.846123 125.610199 410.398590
v -98.034470 122.508003 390.318054
v -98.198677 122.176537 390.376160
v -98.168808 121.569710 386.865906
v -97.920189 121.517570 386.950989
v -98.232353 121.820496 388.216766
v -98.475655 122.011261 389.593506
v -98.540825 122.186440 390.678711
v -98.637642 122.058060 391.696747
v -99.213081 121.806366 392.875488
v -99.458488 121.190727 393.820618
v -103.963371 125.772430 410.938873
v -103.962662 126.744812 411.732910
v -104.609581 127.302147 414.109497
v -105.287766 127.508026 416.232330
v -105.882957 127.231789 417.886047
v -106.330811 125.800446 418.818695
v -98.152100 121.148842 385.911346
v -98.845032 120.942993 387.000854
v -98.749802 120.959373 388.140564
v -99.183296 120.784393 388.836792
v -99.647583 121.838676 393.219696
v -99.912079 121.383713 393.561066
v -104.955353 124.214256 410.758942
v -104.705444 127.645035 411.512787
v -105.236206 128.167007 413.969391
v -105.927834 128.262070 416.121307
v -106.511414 127.777298 417.828430
v -106.962303 126.717216 418.797607
v -99.483688 120.466255 385.743530
v -99.093849 120.818840 385.824432
v -99.667488 119.782600 386.394135
v -100.807426 120.619606 393.145111
v -100.391617 121.149673 393.285797
v -100.695007 120.723274 393.663849
v -105.470932 127.118393 411.006256
v -105.615456 127.940399 411.751923
v -106.078918 128.368378 413.849060
v -106.768112 128.299652 415.619568
v -107.023552 128.060699 417.492157
v -107.433182 126.547066 418.708313
v -99.593269 119.962852 384.998383
v -100.167915 119.875137 386.394226
v -100.428345 119.449860 387.151398
v -101.077728 119.791512 392.465271
v -101.191078 119.840546 392.976074
v -101.384445 120.383400 393.894226
v -106.332405 125.456551 410.748596
v -105.948135 127.612595 411.472748
v -106.568748 127.946518 413.451294
v -106.955383 127.641747 415.165344
v -100.418671 119.666641 385.282410
v -101.047279 118.839432 385.999237
v -102.184044 119.366150 392.120270
v -101.859810 119.572983 392.415375
v -101.959831 118.982216 392.661072
v -101.154915 119.667282 385.652130
v -101.848885 118.822701 386.563904
v -102.562531 118.891365 391.616272
v -102.825432 118.829384 392.521301
v -102.882530 118.654716 392.916840
v -102.427002 119.027031 386.998444
v -103.113815 117.992775 387.816711
v -103.492538 117.960686 390.360352
v -103.540367 118.507965 391.629883
v -103.649094 118.557251 392.609253
v -103.815132 118.404686 393.280426
v -103.632401 118.498680 388.471100
v -104.143196 117.744904 389.472382
v -104.416496 117.595764 390.842896
v -104.280182 117.806641 391.418457
v -104.538177 118.410942 392.864746
v -104.692230 118.281235 393.604828
v -106.077316 116.357841 392.235840
v -105.036766 117.342102 391.555328
v -105.260063 117.834221 392.835785
v -105.390915 117.948433 393.625092
v -109.391632 123.334793 406.194641
v -109.488358 124.067894 407.540100
v -110.158371 124.670837 409.548676
v -110.880920 123.354347 410.977905
v -109.694038 123.997757 406.591003
v -110.014618 124.284531 408.067749
v -110.792091 124.973564 410.140747
v -111.179848 123.803810 411.372375
v -98.740280 120.716103 389.687103
v -98.777679 120.761200 390.620636
v -99.376961 120.658585 392.132141
v -99.580704 120.713104 393.525726
v -99.778908 120.254074 394.604004
v -103.821808 124.173714 410.885834
v -103.900612 125.953186 411.850128
v -104.550659 126.730568 414.325195
v -105.178009 127.049438 416.373047
v -105.791481 126.538010 417.983063
v -106.437119 124.392021 418.709259
v -99.284775 120.167557 387.828186
v -99.457809 119.946701 388.573730
v -99.262596 120.221878 389.533905
v -99.501289 119.797165 390.842316
v -99.961441 118.866074 391.965149
v -99.969894 119.642960 394.134064
v -100.143478 120.833397 394.169403
v -100.651184 120.974197 395.982758
v -101.253311 122.634254 399.492218
v -101.893394 123.082413 402.276093
v -103.980057 126.030754 410.745850
v -104.536377 126.673805 412.204468
v -105.303627 127.074722 414.591797
v -105.906700 127.499565 416.531219
v -106.507690 126.657349 418.021729
v -106.889229 126.060135 418.940552
v -99.394882 119.665154 387.098267
v -100.031921 118.815277 387.725159
v -100.750671 120.547104 394.103241
v -101.179001 121.088509 395.793427
v -101.869301 122.904800 399.079102
v -102.610825 124.689507 403.258240
v -103.895119 126.090897 407.167694
v -104.914207 126.841553 409.986389
v -105.282463 127.246773 412.065247
v -106.335838 127.165352 414.703766
v -106.859123 127.949776 416.547668
v -107.303085 126.918106 418.426392
v -107.663445 124.745354 419.139404
v -100.603645 118.982140 386.870148
v -100.695435 118.977615 387.395538
v -100.722343 118.562691 388.203064
v -101.777626 119.475945 393.789398
v -101.479248 119.962830 394.082794
v -101.863335 120.435066 395.682190
v -102.371262 121.583855 398.333374
v -103.131577 123.895454 401.904694
v -104.186348 125.650436 406.353119
v -105.294189 126.944885 409.624878
v -106.253708 127.011505 412.381378
v -107.028824 127.473969 414.723785
v -107.203209 127.179314 416.178314
v -100.778152 118.597824 386.349213
v -101.444115 117.828545 387.000000
v -102.011742 118.710106 393.061676
v -102.239563 118.520782 393.659058
v -102.362160 119.410683 394.978943
v -103.262779 120.974060 398.509308
v -104.439728 121.926407 401.698456
v -105.520927 121.911774 404.226837
v -101.707809 118.413864 386.950562
v -102.412422 117.433083 387.630005
v -102.860611 118.300056 393.103241
v -103.057663 118.149292 393.769806
v -103.844147 118.214455 395.205475
v -105.443382 121.349342 401.270416
v -104.871254 121.914131 401.549133
v -105.551544 122.242966 403.652191
v -102.515343 118.283386 387.416962
v -103.231667 117.349968 388.272827
v -103.955894 116.361214 389.210205
v -103.694336 117.813843 393.224030
v -103.583374 117.121857 393.293488
v -104.075150 118.169983 395.051788
v -103.923172 117.642891 389.133789
v -104.122719 116.458893 389.355377
v -104.711403 115.690643 390.315399
v -104.505898 117.485390 393.459076
v -104.210793 116.567047 393.444336
v -104.831314 116.951485 395.017822
v -106.007324 118.543282 398.106842
v -106.506149 118.908432 399.863678
v -105.050682 116.466049 391.053375
v -105.382080 116.327057 391.942810
v -105.531174 116.710060 393.119659
v -105.295753 117.009125 393.571167
v -104.740852 116.089310 393.267883
v -105.320007 116.251526 395.286194
v -106.159340 118.451744 398.005554
v -107.182945 119.968063 401.646362
v -108.736649 120.946014 405.066681
v -109.855560 120.935196 407.522400
v -107.625534 116.644112 397.424988
v -106.530815 117.558060 397.496277
v -108.387459 119.351013 402.165497
v -109.222565 120.782349 405.175690
v -109.772881 121.147507 407.099854
v -110.920876 118.463913 404.473938
v -109.899246 120.094727 404.646698
v -99.485397 118.757042 393.073029
v -99.740662 118.441818 393.340240
v -106.108330 124.752495 418.867157
v -106.394066 124.639740 419.522369
v -106.646431 124.169487 420.131500
v -99.627594 118.652367 389.178467
v -99.717773 118.794586 389.699860
v -100.171257 118.546028 391.008026
v -100.010323 119.106674 392.578522
v -100.056480 119.142204 392.901855
v -100.372238 118.816177 394.018616
v -100.779320 120.031944 396.931030
v -101.197212 120.964111 399.751648
v -102.196388 120.629349 402.889069
v -106.665169 123.942856 418.045563
v -106.794800 125.201401 418.460846
v -107.044121 125.045509 419.419983
v -107.433479 124.214882 420.266998
v -108.163597 123.767586 421.128845
v -99.850121 118.549294 388.517395
v -100.639862 118.096657 389.769653
v -100.769073 116.886200 391.029999
v -101.281654 116.288681 396.569916
v -101.335297 119.254250 396.732056
v -101.813263 121.676407 399.728149
v -102.603004 124.083298 403.799469
v -104.134132 125.229225 407.749146
v -105.101929 125.563110 410.688110
v -105.789627 125.641396 412.831024
v -106.344215 123.198463 414.039764
v -107.576958 121.242500 417.814240
v -107.496696 124.977379 418.371399
v -107.997871 125.280296 419.489502
v -108.295296 124.171432 420.018433
v -108.502113 124.074440 421.043549
v -100.850243 118.063744 387.746460
v -101.121994 117.658188 388.647217
v -101.179993 116.754646 389.391479
v -102.025848 119.797058 396.601471
v -102.454758 121.496376 399.655365
v -103.740059 124.368904 404.848663
v -104.841797 125.485733 408.722046
v -105.677185 125.691818 411.297089
v -106.419548 125.439201 413.416504
v -106.612038 124.281792 414.462402
v -108.814346 122.677788 418.918701
v -108.731430 124.863106 419.520172
v -108.807556 124.643921 420.119781
v -101.523102 117.411407 387.769257
v -101.711319 116.373756 388.324249
v -102.574455 118.235710 394.360870
v -102.362335 118.814163 395.964600
v -103.165657 120.610008 398.994598
v -104.612885 121.666245 402.366577
v -105.538689 121.247589 404.481079
v -102.299393 116.599159 387.522766
v -102.661087 116.694244 393.300598
v -103.164093 117.285759 394.472198
v -104.433693 121.340088 400.721924
v -105.335548 122.045685 403.380615
v -105.878075 121.616096 404.970795
v -103.617973 115.791771 388.503540
v -104.374290 115.102875 390.089813
v -103.595299 116.247787 393.520081
v -104.426514 118.273376 395.864899
v -104.904114 114.197891 389.400848
v -104.489662 114.781990 389.825287
v -105.470116 113.493980 391.808777
v -104.006226 114.973862 393.137848
v -104.817131 116.336845 394.936310
v -106.045982 117.898781 397.963501
v -106.819595 118.567375 399.876770
v -105.653305 113.714981 390.182068
v -105.272636 114.516617 390.985168
v -105.579597 114.981888 392.221405
v -105.734962 115.429115 393.292572
v -105.411026 115.225853 393.356842
v -104.803406 114.406830 393.324799
v -105.027237 115.758369 394.995789
v -106.206558 117.156799 397.858185
v -107.397652 119.135551 401.795563
v -108.907463 120.360191 405.592743
v -110.063034 119.745758 407.604889
v -107.599831 109.452400 392.637787
v -106.128159 113.512032 391.078003
v -106.450455 113.642532 392.741455
v -106.423409 114.378471 393.410400
v -106.520798 114.543839 394.275116
v -105.782387 114.402092 394.081787
v -106.500061 115.358887 396.615845
v -106.879463 117.680161 399.002747
v -108.362343 119.225601 403.018524
v -109.768463 120.400703 406.431732
v -110.410431 120.127548 408.167664
v -108.819939 108.696503 395.380280
v -107.417030 112.970200 394.234467
v -107.514275 113.479889 395.222626
v -107.511284 113.894157 395.937347
v -107.056046 114.417953 396.014648
v -109.866188 119.954376 404.747375
v -110.206940 119.955444 405.455688
v -106.048607 123.878792 418.968506
v -106.087990 123.664207 419.574829
v -106.689636 123.128471 420.309418
v -107.283470 122.334099 421.329376
v -100.377731 116.596947 391.929352
v -100.578293 117.068466 392.263000
v -100.915398 117.206413 393.967560
v -101.075455 115.863495 395.060211
v -106.325134 123.125130 418.171265
v -106.431015 124.096008 418.058655
v -107.313972 123.868736 420.826172
v -107.879707 122.728455 420.957672
v -100.953987 116.381516 390.793457
v -101.115341 116.409386 391.330811
v -101.242340 116.053902 392.817169
v -101.372803 115.939476 394.054779
v -101.500862 116.510841 394.724823
v -102.110062 114.225128 397.393982
v -106.998611 124.663040 418.180878
v -107.767975 124.126358 418.752991
v -108.788918 123.452225 420.782257
v -108.764595 122.586914 421.052948
v -101.400711 116.202263 388.859802
v -101.332542 116.648453 390.190277
v -101.595001 114.362221 390.623871
v -102.425476 113.394165 396.766998
v -102.312981 116.783478 395.909271
v -108.475967 124.217018 419.075134
v -109.112030 122.908264 419.414001
v -109.217781 122.781799 420.125580
v -109.491417 122.373116 421.104187
v -102.096504 115.975349 388.632416
v -101.963326 115.717743 388.419250
v -103.355560 114.718361 394.532593
v -102.696594 116.559731 394.545013
v -110.212410 120.631302 420.187073
v -109.801376 122.731979 420.292969
v -102.240242 115.896645 387.874054
v -103.002701 114.720276 388.706482
v -103.018631 115.155258 393.168213
v -103.305077 117.563721 394.968384
v -103.487701 114.564377 388.067749
v -103.635559 113.325577 389.220917
v -103.514275 114.662186 392.698456
v -104.180351 114.537102 388.436859
v -104.926384 113.337273 389.560791
v -104.269562 113.998169 392.974060
v -105.444939 113.364563 390.128235
v -106.162209 112.265358 391.643616
v -104.908646 113.284775 393.225677
v -106.209999 113.058403 391.181152
v -106.287811 112.695328 391.673706
v -106.931305 112.057266 393.257355
v -105.546593 113.506447 394.033356
v -106.944016 113.316628 396.384277
v -107.427658 112.250633 393.961884
v -107.671867 112.182503 394.867523
v -107.844681 112.445061 396.065369
v -107.879051 113.324898 396.911255
v -107.408150 113.725616 396.800873
v -105.694267 122.417000 419.170471
v -106.343246 122.033966 419.325287
v -106.955528 121.321472 420.399445
v -107.373070 120.886276 421.424713
v -106.640388 122.441452 418.667664
v -106.621140 121.404671 419.651489
v -107.552139 120.692627 421.245789
v -108.064621 120.770111 421.104401
v -101.366364 114.224030 392.024536
v -101.581192 114.738853 392.832642
v -101.713722 114.618973 394.031158
v -102.026649 112.811409 394.930756
v -107.726143 122.548706 418.932983
v -108.775467 121.156799 421.011993
v -101.720039 114.162300 389.855896
v -101.782516 114.796333 390.043365
v -101.949036 114.163986 391.185791
v -102.078522 113.321617 392.850861
v -102.238022 113.190765 394.092041
v -102.129562 113.758461 394.086700
v -103.045677 111.600899 396.847046
v -108.459160 122.660263 419.098846
v -109.144905 121.257271 419.696106
v -109.855629 121.506210 420.888458
v -109.599472 120.889923 421.109619
v -102.056465 114.149452 388.984772
v -102.323814 113.439247 390.159485
v -102.636230 111.775459 391.072296
v -102.985985 114.292435 394.343018
v -103.204216 114.636215 397.095062
v -109.675865 121.870796 420.041077
v -109.917068 121.215836 420.393768
v -110.420753 120.508812 421.267273
v -102.820518 113.510651 388.628693
v -104.260826 111.330208 393.747406
v -103.402481 113.301369 392.899902
v -103.862312 112.558174 388.394226
v -103.617973 113.088181 389.199097
v -104.574135 112.154732 394.289185
v -103.870483 112.424835 392.748413
v -104.294518 113.003288 388.619659
v -105.037094 111.724663 389.916016
v -105.603676 111.383255 394.347504
v -104.604111 112.061028 393.202667
v -105.929207 111.815704 391.155914
v -106.976532 108.757370 393.392914
v -105.777245 111.802979 394.589020
v -105.346321 111.485374 393.720428
v -107.577103 109.072495 392.729889
v -107.261650 111.275902 393.014832
v -108.237961 106.572838 395.207550
v -106.604881 112.055382 395.273407
v -107.829010 112.051186 397.772827
v -108.785652 105.888695 394.684753
v -107.641129 111.729919 394.206390
v -108.345978 111.805069 395.965057
v -108.286072 111.827499 396.616669
v -107.947456 112.264420 396.954041
v -108.285431 111.745003 398.462982
v -110.838646 105.377480 398.285492
v -109.261314 109.205521 397.140869
v -106.431854 120.810638 420.351440
v -106.793236 120.225380 420.651031
v -106.875656 120.855637 419.622253
v -107.415314 120.035637 419.857849
v -107.840096 118.866074 420.558929
v -108.331078 119.387184 421.551086
v -107.846878 120.256050 418.998810
v -107.855591 118.790962 420.010162
v -108.646698 118.824837 421.270477
v -108.993919 118.700203 421.138397
v -102.322182 111.499001 392.167419
v -102.440254 112.013885 392.948853
v -102.440720 111.625229 393.771545
v -103.089363 110.029999 395.439880
v -108.586960 120.611053 419.343384
v -109.252129 119.110336 419.865509
v -109.626656 119.359779 421.199738
v -102.667320 111.661400 389.955536
v -102.764503 112.103348 390.349976
v -102.502663 112.201744 391.113800
v -103.095573 111.315216 392.687164
v -103.164932 111.139412 394.025726
v -102.804085 111.834259 393.663116
v -109.679916 119.977432 420.049469
v -110.143639 119.327423 420.556641
v -110.229347 119.370598 421.260681
v -102.939285 111.759834 388.995117
v -103.392731 109.760933 390.739777
v -103.637962 109.291214 393.272614
v -103.591110 111.169456 392.743164
v -103.601219 111.622429 394.177032
v -103.989960 110.911232 388.639404
v -103.562798 111.299957 388.820923
v -104.035667 110.952400 392.380402
v -104.639854 111.377632 393.824585
v -104.530258 110.595795 388.579407
v -105.820427 109.965012 390.928711
v -104.642784 110.559090 392.836304
v -104.754547 110.557892 393.405670
v -106.344513 108.966270 390.234619
v -105.594734 110.172485 390.090149
v -105.885719 110.727333 393.915466
v -105.664696 110.294632 393.995239
v -106.885765 110.200356 391.682068
v -108.013245 106.775955 393.841736
v -106.846718 110.567642 395.333130
v -107.126038 110.918839 395.485626
v -108.849579 106.925835 393.617859
v -107.762665 110.287376 393.227509
v -108.029152 110.353020 394.896484
v -108.373260 110.472687 396.278534
v -108.405769 111.014427 396.676086
v -107.503517 110.873985 396.341064
v -108.940567 110.298370 396.955811
v -109.298203 107.856949 397.241028
v -107.620903 117.316795 420.195160
v -107.905197 116.421661 420.628418
v -108.238258 117.464363 419.687561
v -108.029655 117.301903 420.097473
v -108.410461 117.723915 420.820740
v -109.087090 116.744171 421.491180
v -108.602592 118.344032 419.598480
v -109.238876 117.201736 420.077728
v -109.723045 117.421806 421.511719
v -102.965935 109.079216 391.339661
v -103.096390 109.739082 392.107910
v -103.449585 108.392776 393.096405
v -109.700089 118.092453 420.200867
v -110.144241 117.616524 420.616882
v -110.269707 117.625343 421.359283
v -103.621719 109.346283 390.495239
v -103.218987 110.204414 390.394684
v -103.705231 109.213219 392.288147
v -103.777542 110.336800 392.858398
v -104.098793 108.918869 393.331787
v -104.145515 109.271004 389.520660
v -103.768082 109.473083 388.798004
v -104.121651 108.789421 390.859894
v -104.272606 108.786842 392.440521
v -104.377342 109.328476 393.452606
v -104.460335 109.641762 393.067139
v -105.375717 109.582390 395.868988
v -104.352058 109.481377 388.701355
v -105.186012 108.798775 390.156586
v -104.918076 109.399994 393.012268
v -105.383720 109.514320 394.358124
v -105.203903 109.679321 389.585327
v -106.022385 108.630699 390.847839
v -105.975502 109.420349 394.283569
v -106.383621 109.683258 395.418274
v -106.698967 108.970291 391.592255
v -107.645699 108.275551 393.205444
v -107.299576 109.823067 395.591644
v -107.454391 109.737770 396.255463
v -107.546562 109.299583 392.774445
v -108.013603 109.125450 393.888336
v -109.135056 109.285110 396.372070
v -108.748337 110.106339 397.109680
v -108.523079 110.246040 397.084625
v -108.181770 110.425667 397.035889
v -110.899849 105.045540 398.299744
v -110.256798 109.269958 398.161224
v -109.776428 109.703468 398.255524
v -112.195885 104.366486 399.765045
v -110.654419 108.694199 398.487640
v -106.966270 112.114143 418.541138
v -107.153938 112.759041 419.423096
v -107.343719 113.619827 420.077759
v -107.785278 113.476044 420.614655
v -107.646240 113.830719 418.851929
v -107.751968 114.884529 419.634583
v -107.753113 115.076546 420.169495
v -108.498215 115.185684 421.120087
v -109.043533 114.514114 421.679077
v -108.622604 114.322342 418.916565
v -108.619537 115.870255 419.579285
v -109.221146 115.142242 419.773041
v -109.749237 115.399986 421.803284
v -109.256516 111.027039 417.477692
v -109.248451 115.272629 419.624146
v -109.554062 116.193054 420.209167
v -110.162155 115.925003 420.887970
v -110.292709 115.738396 421.621277
v -104.418449 107.914673 390.340881
v -104.385750 107.854820 391.662811
v -104.513702 108.003281 392.881042
v -104.590576 108.163338 393.617462
v -105.324684 108.483322 395.132416
v -105.671333 109.501938 396.599182
v -105.055183 107.622009 390.313995
v -105.896378 108.662834 395.374817
v -106.432137 108.890366 397.017151
v -106.552887 106.356537 391.047211
v -105.929222 107.335907 390.974213
v -106.094276 109.497231 395.491852
v -107.085899 108.684296 397.425690
v -107.932053 105.647736 391.718384
v -107.110382 106.739738 391.735870
v -108.580826 107.301796 394.358978
v -108.374222 109.200127 397.867920
v -108.115883 109.042664 398.353180
v -109.183144 106.191986 393.849335
v -108.560837 106.857384 394.387543
v -110.053070 104.893288 397.208862
v -108.607025 108.772301 397.648438
v -109.163284 108.718132 398.860443
v -110.694656 103.784752 396.675842
v -109.950027 107.168839 396.935242
v -111.343102 104.445808 398.963226
v -109.742874 108.988678 398.556946
v -110.786354 109.038033 400.471710
v -111.425430 109.018745 401.903961
v -111.718048 104.535255 398.474121
v -110.748306 108.435516 398.363220
v -110.523132 108.920250 398.647919
v -110.920486 108.849503 399.975311
v -111.554382 109.140488 401.618317
v -113.120499 109.307198 405.192657
v -113.135384 110.080856 406.411957
v -113.453415 110.006866 407.290710
v -114.052254 105.580002 405.036926
v -113.354309 109.686295 405.830994
v -113.660995 109.937668 406.870209
v -106.599442 110.619598 418.224762
v -106.621796 110.917244 418.722015
v -106.872986 111.446442 419.861511
v -107.601440 111.600731 420.427856
v -107.816353 111.653214 421.259338
v -106.825531 111.004738 417.571747
v -106.762718 110.390297 417.635956
v -108.254951 112.986191 421.180420
v -108.734924 112.487640 421.578613
v -107.881142 112.449837 418.319794
v -108.462349 112.272247 419.035065
v -108.890625 112.632195 420.088348
v -109.673828 113.496925 421.997894
v -108.776199 113.526184 418.808380
v -109.212379 114.241409 419.986816
v -109.655800 114.308937 420.500305
v -110.123940 114.055733 421.139984
v -110.272148 113.978279 421.939362
v -104.687973 106.265633 391.282471
v -104.571487 106.885773 391.733276
v -104.866188 107.052452 393.315308
v -105.194740 107.389626 394.714600
v -105.795731 107.468307 395.635376
v -105.211311 106.228149 390.714417
v -105.336578 105.996628 392.086243
v -105.778671 106.260445 393.828674
v -106.186981 106.543495 395.288696
v -106.872871 107.612572 396.791809
v -107.189117 107.920685 397.890930
v -106.667389 105.419044 391.113129
v -106.240746 105.921204 390.965881
v -107.815659 107.217201 398.173309
v -108.115822 107.996330 399.345184
v -106.607811 106.076157 391.020447
v -107.205856 105.478386 391.848663
v -108.102226 104.934685 393.488129
v -109.691719 106.127762 397.726746
v -109.183876 106.668839 398.563202
v -108.771126 107.754150 399.407745
v -107.932823 106.237335 392.906067
v -108.619270 105.772362 394.120422
v -109.350853 105.794167 395.674255
v -109.437767 106.751831 397.466888
v -109.284416 107.999054 398.683411
v -109.524971 108.432899 399.251434
v -109.239502 106.605225 395.121033
v -109.732414 106.883217 396.499115
v -109.924324 107.268013 397.623718
v -109.749023 108.131737 398.544830
v -110.701225 108.206444 400.402161
v -111.507484 108.103569 401.683716
v -110.759026 106.904961 397.686249
v -110.741501 107.593857 398.687836
v -111.017952 107.841972 399.868896
v -111.542397 108.252754 401.311798
v -111.863373 108.604546 402.878113
v -112.580513 108.546890 404.723785
v -113.016182 109.331390 406.551147
v -113.416756 109.336945 407.624969
v -112.057716 106.287361 397.889343
v -111.764206 107.376389 398.782013
v -111.844818 107.819672 400.010193
v -112.092072 107.941269 401.143982
v -112.500267 108.002960 402.565948
v -112.863953 109.033348 404.878448
v -113.864349 109.313370 406.607117
v -114.029373 109.634132 408.069153
v -114.792328 108.498161 408.668243
v -113.350243 101.927422 399.002197
v -112.552193 106.597221 398.973816
v -112.793716 107.911827 401.296997
v -112.993713 108.151115 401.946381
v -113.329880 108.324226 403.097412
v -113.801865 108.574661 404.547455
v -114.321251 108.945999 406.159882
v -114.975449 109.327545 408.040710
v -115.401260 108.984764 409.317535
v -116.152084 108.134354 410.025940
v -114.066811 106.114449 401.276550
v -113.550034 107.929932 402.066925
v -113.884102 108.190819 403.273376
v -114.365654 108.348473 404.648590
v -114.860329 108.752335 406.077026
v -115.472694 109.142578 407.683472
v -116.036880 109.098442 409.268311
v -116.441589 108.466110 409.926270
v -105.360153 106.650169 413.212738
v -105.248886 107.898315 414.610352
v -105.546539 108.684174 416.386536
v -106.048813 109.285088 418.013397
v -106.608971 109.893845 419.267761
v -107.031136 110.089897 420.095612
v -107.619720 110.146927 420.818054
v -106.340767 104.221855 412.472565
v -105.595390 107.772179 414.078644
v -105.921661 109.016632 416.539276
v -106.267967 109.705490 417.621246
v -108.410622 111.161156 421.489655
v -107.323814 110.370071 417.737885
v -108.044014 110.455818 418.879456
v -108.563019 110.533455 419.833160
v -109.462769 111.551811 421.758698
v -109.438530 112.261627 420.587341
v -109.965088 112.029655 421.156097
v -110.152527 111.898148 421.851837
v -105.900887 104.473961 391.249969
v -105.988625 104.712944 392.309387
v -106.362450 104.993958 393.929474
v -106.714081 105.201698 395.561401
v -107.386848 105.300804 397.266876
v -106.524506 104.058098 391.127960
v -108.176262 106.238869 398.442444
v -108.815865 106.607216 399.221130
v -107.334099 104.258873 392.139069
v -108.304642 103.456696 393.251526
v -109.453156 106.040184 398.303650
v -109.380974 106.105949 399.283112
v -109.707375 106.335808 400.306915
v -110.367874 106.348045 402.177277
v -110.885307 106.782661 404.396698
v -111.265350 107.196098 406.309937
v -111.692368 107.024590 407.286804
v -108.848763 104.476761 394.315491
v -109.456230 104.409286 395.478210
v -109.700661 105.143753 397.246124
v -109.989655 105.140457 398.574738
v -110.256599 105.629662 399.982819
v -110.686035 106.265953 401.714294
v -111.208519 106.794182 403.915009
v -111.610344 107.188126 405.917938
v -111.983955 107.313545 407.193817
v -111.977539 105.200005 400.076111
v -111.707993 105.609489 401.197052
v -112.027534 106.032005 402.850677
v -112.349800 106.754822 404.650757
v -112.577972 107.365936 406.170502
v -112.977951 107.260414 407.253510
v -111.510300 103.775169 395.853577
v -110.663765 104.896820 396.385895
v -110.938232 105.609955 397.680634
v -111.473190 105.704506 399.464172
v -111.718231 106.391945 400.987579
v -112.112503 106.935432 402.773346
v -112.541862 107.675415 404.733826
v -112.868500 108.239105 406.430817
v -113.336800 108.483742 407.742828
v -114.044983 107.742416 408.759888
v -112.575356 100.957718 397.072693
v -111.419182 104.871078 397.063232
v -114.221748 108.968491 408.199890
v -114.565216 108.920479 409.131378
v -115.399826 107.633011 410.195007
v -112.494514 105.498215 398.157623
v -113.026527 106.098000 400.246979
v -113.427567 105.547386 400.672119
v -115.559975 108.357536 409.554962
v -116.047707 108.363693 410.422882
v -114.094162 104.270912 400.324371
v -113.503571 107.039787 401.585388
v -114.043503 107.006035 402.696075
v -114.529190 107.254456 404.079559
v -115.032486 107.539871 405.533203
v -115.557091 107.889046 406.989807
v -116.072792 108.110817 408.424133
v -116.485802 107.918076 409.729706
v -116.563446 107.880600 410.560822
v -105.139664 106.208366 413.157867
v -105.137161 107.257446 414.561035
v -105.262115 107.800804 416.254517
v -105.808395 108.353455 417.839050
v -106.422531 108.699310 418.985596
v -106.910645 108.425423 419.790344
v -107.966728 108.500580 420.963104
v -105.401573 106.629158 413.274994
v -105.574768 107.719673 415.175262
v -106.199921 108.085251 416.562805
v -107.022049 108.130424 417.638702
v -107.533646 108.414207 418.861053
v -108.337112 107.902962 420.599976
v -108.161140 109.055283 420.933838
v -107.078049 108.775650 417.405884
v -107.673119 108.910042 418.567261
v -108.285583 109.161964 419.718658
v -108.900009 109.490189 420.579834
v -109.013672 109.731552 421.413116
v -109.188881 110.348465 420.472168
v -109.730881 110.399841 421.169586
v -110.166618 110.172501 422.002441
v -105.905495 101.587349 389.927734
v -105.841408 102.854645 391.090454
v -106.451561 103.069473 392.723907
v -106.743210 103.706360 394.302216
v -107.170265 104.206535 396.221802
v -107.547241 104.609787 397.148682
v -106.718277 100.210938 388.655731
v -106.564407 101.475136 389.996979
v -106.376480 102.719765 390.775055
v -107.164337 102.940094 393.445953
v -107.388786 103.341080 394.916229
v -108.092461 103.821671 396.687439
v -108.119080 104.743942 397.723267
v -107.438683 100.434059 389.015350
v -107.458527 101.225357 390.001038
v -107.657013 102.198975 391.656097
v -108.910721 102.875938 393.833557
v -109.270424 102.560844 395.156219
v -108.886032 103.699623 396.674133
v -109.146248 104.775848 398.542572
v -109.821754 105.026932 400.146484
v -110.314339 105.474503 402.169098
v -110.768188 105.910286 404.384705
v -111.116959 106.262650 406.197296
v -111.762543 105.678329 406.925537
v -108.625908 99.743690 390.003357
v -108.055618 100.790955 389.816010
v -108.502274 101.288101 391.255676
v -108.774414 102.230087 393.289917
v -109.418816 103.115074 395.436584
v -109.730873 104.146706 397.341370
v -110.118942 104.774849 399.060089
v -110.484108 105.107803 400.701630
v -110.905045 105.592361 402.838959
v -111.335770 106.037163 404.953400
v -111.704063 106.381439 406.655029
v -112.124275 105.868408 407.346283
v -110.379105 100.759430 393.125580
v -110.138306 101.760818 394.186584
v -110.592766 101.745224 395.184357
v -111.896530 104.448967 400.067657
v -111.688309 104.670586 400.901642
v -111.972687 105.262009 402.581085
v -112.266357 105.855576 404.251678
v -112.515564 106.665443 405.773773
v -113.142952 106.997322 406.581726
v -111.228661 100.348694 394.231293
v -110.367615 102.150703 394.548157
v -110.675117 103.314018 395.745087
v -111.335381 103.733032 397.388885
v -111.772903 104.090889 399.531494
v -112.253525 104.195076 400.863159
v -112.536659 104.871231 402.565491
v -112.764877 105.436974 404.126526
v -113.040710 105.883331 405.772980
v -113.355957 106.957283 407.516754
v -114.136200 107.552261 408.279663
v -111.482239 103.048119 395.766144
v -111.889809 102.919388 396.715027
v -114.697906 106.741669 408.211487
v -114.775887 107.384926 408.906799
v -115.570419 106.471893 409.920166
v -112.479340 104.058289 398.029022
v -113.016350 103.798874 399.191864
v -113.527054 103.854561 400.408173
v -116.096642 105.902313 409.854797
v -116.594475 106.924919 410.760956
v -116.959007 104.775238 411.860504
v -113.558167 105.231972 400.330414
v -114.016647 105.281128 401.579651
v -114.492302 105.457024 402.814148
v -114.938057 105.645531 404.276031
v -115.403816 105.940186 405.727356
v -115.847237 106.197502 407.136017
v -116.306679 106.238548 408.551147
v -116.720871 106.099854 409.756836
v -117.202988 106.658813 410.853577
v -117.308090 105.156395 411.581604
v -105.098778 105.662956 416.500031
v -105.310257 106.448936 417.677948
v -105.764481 107.292526 419.069366
v -106.357948 106.566978 419.815002
v -105.400528 106.753937 416.664062
v -105.699669 107.456993 417.843750
v -106.103760 108.214493 419.140533
v -106.554909 108.025970 420.057800
v -107.762924 106.657776 420.923676
v -106.168640 107.473114 416.912445
v -106.916748 107.625175 417.966095
v -107.598915 107.798996 419.107086
v -107.643028 108.717888 420.374695
v -108.169167 108.155037 420.862335
v -108.230545 108.519096 419.829315
v -108.820808 108.672424 420.579376
v -108.960915 108.524338 421.207520
v -104.920280 100.170616 390.401825
v -104.993721 100.944954 391.913269
v -105.291191 101.662323 393.599121
v -105.657738 101.750343 394.661835
v -105.539444 99.205231 388.466064
v -105.460007 100.494743 390.066986
v -105.395500 101.607056 391.126984
v -105.971756 102.130966 393.201111
v -106.239471 102.181114 394.686035
v -106.157143 99.835480 388.795898
v -105.615578 100.591103 388.913635
v -106.649498 102.648956 393.397339
v -107.470001 102.081161 394.861603
v -108.040062 102.716476 395.426666
v -106.957520 99.354736 388.232880
v -108.627251 102.209290 395.510315
v -108.429588 103.014938 395.787659
v -107.695885 99.603806 388.670135
v -108.213280 99.761337 389.835297
v -108.695442 100.358948 391.505798
v -109.094933 100.922256 393.054169
v -109.100052 101.660332 394.317749
v -109.827415 99.737564 392.823669
v -109.874443 100.307518 393.886902
v -110.287766 100.424042 394.971252
v -110.225471 100.522491 393.111053
v -110.585838 100.552574 393.858459
v -110.792274 100.923042 395.498077
v -111.423286 102.034065 397.209259
v -111.956696 102.779854 399.056213
v -112.410461 103.305374 400.815063
v -112.707855 103.861473 402.513367
v -112.973877 104.372269 404.267548
v -113.339859 104.750343 405.739380
v -113.974419 105.416420 406.650360
v -111.283806 101.925896 395.309113
v -111.857628 101.690056 396.533691
v -114.497841 104.864990 406.506195
v -114.188019 105.672928 407.646729
v -114.968979 105.585556 409.109283
v -112.587418 102.373344 397.820740
v -113.202469 102.297806 399.201904
v -113.727081 102.705856 400.781372
v -114.323914 102.901871 402.158203
v -115.839645 105.912643 409.776855
v -116.993599 104.448669 411.218903
v -117.398972 102.601479 411.562012
v -114.267357 103.989365 401.919373
v -114.824463 103.837624 403.057526
v -115.342140 103.858192 404.333893
v -115.783134 104.144325 405.831360
v -116.260170 104.495384 407.414398
v -116.680702 104.610756 408.801483
v -117.118790 104.440224 409.999939
v -117.595985 104.329605 411.600922
v -117.706001 102.212784 411.802002
v -105.296501 102.914268 416.535980
v -105.150833 105.577126 417.748199
v -105.828133 105.678925 418.988831
v -106.663887 103.792450 419.736145
v -105.308174 105.472061 416.709259
v -105.971855 105.760307 418.033722
v -106.595047 105.763695 419.193604
v -106.640434 106.562263 419.981537
v -108.136887 103.652435 420.863190
v -106.208908 106.460251 417.186707
v -106.870445 106.727661 418.432556
v -107.491516 106.675941 419.550964
v -108.107239 105.599030 420.181854
v -108.523308 105.210258 420.811798
v -108.279617 107.137383 419.777374
v -108.901253 106.055893 420.471954
v -109.343330 104.956772 421.276978
v -104.772133 99.425163 390.537415
v -104.751472 100.119217 391.653625
v -105.133972 100.843155 393.496155
v -105.620323 100.520760 394.131042
v -105.295143 98.456947 388.453278
v -105.178215 99.168564 390.198792
v -105.508842 99.967224 391.686157
v -105.862541 100.568481 393.459137
v -106.123619 101.347069 394.570099
v -105.689873 98.781479 388.563416
v -106.115921 99.110168 389.891235
v -106.439041 99.783684 391.608490
v -106.809250 100.370674 393.236420
v -107.025490 101.187401 394.243103
v -106.606094 98.700333 388.405823
v -107.056046 98.821136 389.721069
v -107.403748 99.345909 391.341248
v -107.836418 99.966049 392.984467
v -108.036606 100.678764 393.925293
v -107.511963 98.655952 388.520966
v -107.902405 98.995483 389.989960
v -108.341255 99.549820 391.682526
v -108.757889 100.191948 393.247986
v -108.892380 100.307968 393.711304
v -110.125259 98.043800 392.318573
v -109.993027 98.848602 393.617462
v -110.561287 98.925140 394.291473
v -110.138557 98.901360 392.789948
v -110.478203 99.358589 394.064850
v -110.740044 100.367020 395.529724
v -111.555962 101.188835 397.407013
v -112.089470 101.674278 399.262695
v -112.505989 101.691994 401.012115
v -112.812843 102.250229 402.742310
v -113.154297 102.567932 404.318542
v -113.796486 102.993874 405.156525
v -111.716927 100.524849 396.418091
v -112.415314 100.908371 398.175964
v -112.948685 101.630699 400.200623
v -113.608383 101.900230 401.988403
v -114.329590 102.060829 405.145630
v -114.041588 103.787895 406.248840
v -114.883583 103.875320 408.082947
v -115.586967 103.575394 408.910370
v -112.729797 101.033012 397.679108
v -113.323608 101.329163 399.350830
v -113.818825 102.198685 401.298615
v -114.438026 102.321556 402.775879
v -114.996758 102.216957 404.093781
v -115.419815 102.449669 405.554962
v -116.614693 101.464287 407.805054
v -115.978714 103.196533 408.613220
v -116.358795 104.013428 409.742065
v -117.104362 101.212944 410.184845
v -115.140167 102.782364 403.543762
v -115.639061 102.854706 404.903656
v -116.146439 103.030998 406.385559
v -116.529190 103.230499 407.957581
v -116.806335 103.556503 409.209686
v -117.118851 102.696922 410.345703
v -117.570129 101.180122 410.560028
v -113.210075 99.873703 401.653748
v -113.017471 100.744675 403.098724
v -113.709167 100.272598 403.944672
v -113.453049 100.583626 402.262299
v -113.907539 100.598007 403.803589
v -113.929253 101.972931 404.958160
v -114.539940 102.209938 407.115387
v -115.323860 100.812408 407.654083
v -114.390663 101.413391 403.160095
v -114.802505 101.659096 404.777557
v -115.199699 101.797699 406.413330
v -115.605225 101.730499 407.723358
v -115.738991 101.435371 408.101562
v -116.180069 101.871399 407.034393
v -116.605553 100.343140 407.141144
f 1 2 8
f 2 9 8
f 1 8 13
f 1 13 4
f 1 5 2
f 1 4 5
f 13 14 5
f 13 5 4
f 2 3 9
f 3 10 9
f 2 6 3
f 2 5 6
f 14 15 6
f 14 6 5
f 3 15 10
f 3 6 15
f 7 8 36
f 8 37 36
f 7 36 43
f 7 43 12
f 7 13 8
f 7 12 13
f 43 44 13
f 43 13 12
f 8 9 37
f 9 38 37
f 44 45 14
f 44 14 13
f 9 10 38
f 10 39 38
f 38 39 45
f 39 46 45
f 45 46 15
f 45 15 14
f 10 11 39
f 11 40 39
f 39 40 46
f 40 47 46
f 10 16 11
f 10 15 16
f 46 47 16
f 46 16 15
f 11 47 40
f 11 16 47
f 17 18 54
f 18 55 54
f 17 54 62
f 17 62 22
f 17 23 18
f 17 22 23
f 18 19 55
f 19 56 55
f 18 24 19
f 18 23 24
f 63 64 24
f 63 24 23
f 19 20 56
f 20 57 56
f 19 25 20
f 19 24 25
f 64 65 25
f 64 25 24
f 20 65 57
f 20 25 65
f 21 22 61
f 22 62 61
f 61 62 67
f 62 68 67
f 21 61 67
f 21 67 26
f 21 27 22
f 21 26 27
f 22 28 23
f 22 27 28
f 23 69 63
f 23 28 69
f 26 67 73
f 26 73 30
f 26 31 27
f 26 30 31
f 73 74 31
f 73 31 30
f 27 32 28
f 27 31 32
f 74 75 32
f 74 32 31
f 28 29 69
f 29 70 69
f 28 33 29
f 28 32 33
f 75 76 33
f 75 33 32
f 29 76 70
f 29 33 76
f 34 35 103
f 35 104 103
f 103 104 109
f 104 110 109
f 34 103 109
f 34 109 41
f 34 42 35
f 34 41 42
f 109 110 42
f 109 42 41
f 35 36 104
f 36 105 104
f 104 105 110
f 105 111 110
f 35 43 36
f 35 42 43
f 110 111 43
f 110 43 42
f 36 37 105
f 37 106 105
f 105 106 111
f 106 112 111
f 111 112 44
f 111 44 43
f 37 38 106
f 38 107 106
f 106 107 112
f 107 113 112
f 112 113 45
f 112 45 44
f 38 113 107
f 38 45 113
f 48 49 114
f 49 115 114
f 114 115 121
f 115 122 121
f 48 114 121
f 48 121 55
f 48 56 49
f 48 55 56
f 49 50 115
f 50 116 115
f 49 57 50
f 49 56 57
f 50 51 116
f 51 117 116
f 50 58 51
f 50 57 58
f 51 52 117
f 52 118 117
f 51 59 52
f 51 58 59
f 123 124 59
f 123 59 58
f 52 53 118
f 53 119 118
f 118 119 124
f 119 125 124
f 52 60 53
f 52 59 60
f 124 125 60
f 124 60 59
f 53 125 119
f 53 60 125
f 54 55 120
f 55 121 120
f 120 121 127
f 121 128 127
f 54 120 127
f 54 127 62
f 57 66 58
f 57 65 66
f 58 129 123
f 58 66 129
f 62 127 132
f 62 132 68
f 63 70 64
f 63 69 70
f 64 71 65
f 64 70 71
f 65 72 66
f 65 71 72
f 133 134 72
f 133 72 71
f 66 134 129
f 66 72 134
f 67 68 131
f 68 132 131
f 67 131 135
f 67 135 73
f 135 136 74
f 135 74 73
f 70 77 71
f 70 76 77
f 71 137 133
f 71 77 137
f 74 136 140
f 74 140 78
f 74 79 75
f 74 78 79
f 75 80 76
f 75 79 80
f 76 81 77
f 76 80 81
f 141 142 81
f 141 81 80
f 77 142 137
f 77 81 142
f 78 140 144
f 78 144 82
f 78 83 79
f 78 82 83
f 79 84 80
f 79 83 84
f 80 145 141
f 80 84 145
f 82 144 147
f 82 147 85
f 82 86 83
f 82 85 86
f 147 148 86
f 147 86 85
f 83 87 84
f 83 86 87
f 148 149 87
f 148 87 86
f 84 149 145
f 84 87 149
f 88 89 151
f 89 152 151
f 88 151 154
f 88 154 90
f 88 91 89
f 88 90 91
f 89 155 152
f 89 91 155
f 90 154 157
f 90 157 93
f 90 94 91
f 90 93 94
f 91 92 155
f 92 156 155
f 155 156 158
f 156 159 158
f 91 95 92
f 91 94 95
f 92 159 156
f 92 95 159
f 157 158 160
f 158 161 160
f 93 157 160
f 93 160 96
f 93 97 94
f 93 96 97
f 160 161 97
f 160 97 96
f 158 159 161
f 159 162 161
f 94 98 95
f 94 97 98
f 95 162 159
f 95 98 162
f 161 162 164
f 162 165 164
f 97 161 164
f 97 164 100
f 97 101 98
f 97 100 101
f 164 165 101
f 164 101 100
f 98 99 162
f 99 163 162
f 162 163 165
f 163 166 165
f 98 102 99
f 98 101 102
f 165 166 102
f 165 102 101
f 99 166 163
f 99 102 166
f 108 109 167
f 109 168 167
f 167 168 171
f 168 172 171
f 108 167 171
f 108 171 116
f 108 117 109
f 108 116 117
f 109 110 168
f 110 169 168
f 168 169 172
f 169 173 172
f 109 118 110
f 109 117 118
f 110 173 169
f 110 118 173
f 115 116 170
f 116 171 170
f 170 171 175
f 171 176 175
f 115 170 175
f 115 175 122
f 118 177 173
f 118 124 177
f 121 122 174
f 122 175 174
f 121 174 180
f 121 180 128
f 123 130 124
f 123 129 130
f 181 182 130
f 181 130 129
f 124 182 177
f 124 130 182
f 126 127 178
f 127 179 178
f 178 179 183
f 179 184 183
f 126 178 183
f 126 183 131
f 126 132 127
f 126 131 132
f 127 128 179
f 128 180 179
f 129 185 181
f 129 134 185
f 131 183 187
f 131 187 135
f 133 138 134
f 133 137 138
f 189 190 138
f 189 138 137
f 134 190 185
f 134 138 190
f 187 188 192
f 188 193 192
f 135 187 192
f 135 192 139
f 135 140 136
f 135 139 140
f 137 194 189
f 137 142 194
f 139 192 196
f 139 196 143
f 139 144 140
f 139 143 144
f 196 197 144
f 196 144 143
f 141 146 142
f 141 145 146
f 198 199 146
f 198 146 145
f 142 199 194
f 142 146 199
f 144 197 201
f 144 201 147
f 145 202 198
f 145 149 202
f 147 201 204
f 147 204 150
f 147 151 148
f 147 150 151
f 148 152 149
f 148 151 152
f 149 205 202
f 149 152 205
f 150 204 207
f 150 207 153
f 150 154 151
f 150 153 154
f 207 208 154
f 207 154 153
f 152 209 205
f 152 155 209
f 154 208 211
f 154 211 157
f 211 212 158
f 211 158 157
f 155 212 209
f 155 158 212
f 171 172 227
f 172 228 227
f 227 228 232
f 228 233 232
f 171 227 232
f 171 232 176
f 172 173 228
f 173 229 228
f 228 229 233
f 229 234 233
f 173 234 229
f 173 177 234
f 174 175 230
f 175 231 230
f 230 231 236
f 231 237 236
f 174 230 236
f 174 236 180
f 175 176 231
f 176 232 231
f 177 238 234
f 177 182 238
f 179 180 235
f 180 236 235
f 235 236 240
f 236 241 240
f 179 235 240
f 179 240 184
f 181 186 182
f 181 185 186
f 182 242 238
f 182 186 242
f 183 184 239
f 184 240 239
f 239 240 243
f 240 244 243
f 183 239 243
f 183 243 187
f 243 244 188
f 243 188 187
f 185 191 186
f 185 190 191
f 245 246 191
f 245 191 190
f 186 246 242
f 186 191 246
f 188 244 248
f 188 248 193
f 189 195 190
f 189 194 195
f 190 249 245
f 190 195 249
f 192 193 247
f 193 248 247
f 247 248 251
f 248 252 251
f 192 247 251
f 192 251 196
f 251 252 197
f 251 197 196
f 194 200 195
f 194 199 200
f 253 254 200
f 253 200 199
f 195 254 249
f 195 200 254
f 197 252 256
f 197 256 201
f 198 203 199
f 198 202 203
f 199 258 253
f 199 203 258
f 256 257 260
f 257 261 260
f 201 256 260
f 201 260 204
f 202 206 203
f 202 205 206
f 203 263 258
f 203 206 263
f 260 261 265
f 261 266 265
f 204 260 265
f 204 265 207
f 265 266 208
f 265 208 207
f 262 263 267
f 263 268 267
f 205 210 206
f 205 209 210
f 206 268 263
f 206 210 268
f 266 267 269
f 267 270 269
f 208 266 269
f 208 269 211
f 269 270 212
f 269 212 211
f 267 268 270
f 268 271 270
f 209 213 210
f 209 212 213
f 270 271 213
f 270 213 212
f 210 271 268
f 210 213 271
f 214 215 272
f 215 273 272
f 272 273 277
f 273 278 277
f 214 272 277
f 214 277 219
f 214 220 215
f 214 219 220
f 277 278 220
f 277 220 219
f 215 216 273
f 216 274 273
f 273 274 278
f 274 279 278
f 215 221 216
f 215 220 221
f 278 279 221
f 278 221 220
f 216 217 274
f 217 275 274
f 274 275 279
f 275 280 279
f 216 222 217
f 216 221 222
f 217 218 275
f 218 276 275
f 275 276 280
f 276 281 280
f 217 223 218
f 217 222 223
f 218 281 276
f 218 223 281
f 279 280 282
f 280 283 282
f 221 279 282
f 221 282 224
f 221 225 222
f 221 224 225
f 282 283 225
f 282 225 224
f 280 281 283
f 281 284 283
f 222 226 223
f 222 225 226
f 283 284 226
f 283 226 225
f 223 284 281
f 223 226 284
f 231 232 285
f 232 286 285
f 285 286 290
f 286 291 290
f 231 285 290
f 231 290 237
f 232 233 286
f 233 287 286
f 286 287 291
f 287 292 291
f 233 234 287
f 234 288 287
f 234 293 288
f 234 238 293
f 236 237 289
f 237 290 289
f 236 289 297
f 236 297 241
f 238 298 293
f 238 242 298
f 240 241 296
f 241 297 296
f 296 297 301
f 297 302 301
f 240 296 301
f 240 301 244
f 303 304 246
f 303 246 245
f 242 304 298
f 242 246 304
f 244 301 307
f 244 307 248
f 245 308 303
f 245 249 308
f 248 307 311
f 248 311 252
f 249 250 308
f 250 309 308
f 249 255 250
f 249 254 255
f 312 313 255
f 312 255 254
f 250 313 309
f 250 255 313
f 252 311 315
f 252 315 256
f 315 316 257
f 315 257 256
f 253 259 254
f 253 258 259
f 254 317 312
f 254 259 317
f 257 316 319
f 257 319 261
f 320 321 263
f 320 263 262
f 258 264 259
f 258 263 264
f 321 322 264
f 321 264 263
f 259 322 317
f 259 264 322
f 319 320 324
f 320 325 324
f 261 319 324
f 261 324 266
f 324 325 267
f 324 267 266
f 262 325 320
f 262 267 325
f 287 288 336
f 288 337 336
f 336 337 341
f 337 342 341
f 287 336 341
f 287 341 292
f 288 342 337
f 288 293 342
f 289 290 338
f 290 339 338
f 338 339 352
f 339 353 352
f 289 338 352
f 289 352 297
f 290 291 339
f 291 340 339
f 339 340 353
f 340 354 353
f 291 292 340
f 292 341 340
f 340 341 354
f 341 355 354
f 293 294 342
f 294 343 342
f 293 299 294
f 293 298 299
f 294 295 343
f 295 344 343
f 294 300 295
f 294 299 300
f 295 356 344
f 295 300 356
f 352 353 365
f 353 366 365
f 297 352 365
f 297 365 302
f 298 305 299
f 298 304 305
f 299 306 300
f 299 305 306
f 367 368 306
f 367 306 305
f 300 368 356
f 300 306 368
f 301 302 364
f 302 365 364
f 364 365 376
f 365 377 376
f 301 364 376
f 301 376 307
f 365 366 377
f 366 378 377
f 303 309 304
f 303 308 309
f 304 310 305
f 304 309 310
f 305 379 367
f 305 310 379
f 376 377 386
f 377 387 386
f 307 376 386
f 307 386 311
f 309 314 310
f 309 313 314
f 388 389 314
f 388 314 313
f 310 389 379
f 310 314 389
f 386 387 391
f 387 392 391
f 311 386 391
f 311 391 315
f 391 392 316
f 391 316 315
f 312 318 313
f 312 317 318
f 313 393 388
f 313 318 393
f 316 392 396
f 316 396 319
f 396 397 320
f 396 320 319
f 317 323 318
f 317 322 323
f 398 399 323
f 398 323 322
f 318 399 393
f 318 323 399
f 320 397 402
f 320 402 325
f 320 326 321
f 320 325 326
f 402 403 326
f 402 326 325
f 321 327 322
f 321 326 327
f 403 404 327
f 403 327 326
f 322 404 398
f 322 327 404
f 328 329 412
f 329 413 412
f 412 413 416
f 413 417 416
f 328 412 416
f 328 416 332
f 328 333 329
f 328 332 333
f 416 417 333
f 416 333 332
f 329 330 413
f 330 414 413
f 413 414 417
f 414 418 417
f 329 334 330
f 329 333 334
f 417 418 334
f 417 334 333
f 330 331 414
f 331 415 414
f 414 415 418
f 415 419 418
f 330 335 331
f 330 334 335
f 418 419 335
f 418 335 334
f 331 419 415
f 331 335 419
f 341 342 420
f 342 421 420
f 420 421 433
f 421 434 433
f 341 420 433
f 341 433 355
f 342 343 421
f 343 422 421
f 421 422 434
f 422 435 434
f 343 344 422
f 344 423 422
f 344 345 423
f 345 424 423
f 423 424 436
f 424 437 436
f 344 357 345
f 344 356 357
f 345 437 424
f 345 357 437
f 346 347 425
f 347 426 425
f 425 426 441
f 426 442 441
f 346 425 441
f 346 441 358
f 346 359 347
f 346 358 359
f 441 442 359
f 441 359 358
f 347 348 426
f 348 427 426
f 426 427 442
f 427 443 442
f 347 360 348
f 347 359 360
f 348 349 427
f 349 428 427
f 427 428 443
f 428 444 443
f 348 361 349
f 348 360 361
f 349 350 428
f 350 429 428
f 428 429 444
f 429 445 444
f 349 362 350
f 349 361 362
f 350 351 429
f 351 430 429
f 429 430 445
f 430 446 445
f 350 363 351
f 350 362 363
f 351 446 430
f 351 363 446
f 353 354 431
f 354 432 431
f 431 432 447
f 432 448 447
f 353 431 447
f 353 447 366
f 354 355 432
f 355 433 432
f 356 369 357
f 356 368 369
f 357 449 437
f 357 369 449
f 442 443 455
f 443 456 455
f 359 442 455
f 359 455 371
f 359 372 360
f 359 371 372
f 443 444 456
f 444 457 456
f 360 373 361
f 360 372 373
f 444 445 457
f 445 458 457
f 361 374 362
f 361 373 374
f 457 458 374
f 457 374 373
f 445 446 458
f 446 459 458
f 362 375 363
f 362 374 375
f 458 459 375
f 458 375 374
f 363 459 446
f 363 375 459
f 447 448 461
f 448 462 461
f 366 447 461
f 366 461 378
f 367 380 368
f 367 379 380
f 368 381 369
f 368 380 381
f 463 464 381
f 463 381 380
f 369 464 449
f 369 381 464
f 370 371 454
f 371 455 454
f 370 454 469
f 370 469 382
f 370 383 371
f 370 382 383
f 469 470 383
f 469 383 382
f 371 384 372
f 371 383 384
f 470 471 384
f 470 384 383
f 456 457 471
f 457 472 471
f 372 385 373
f 372 384 385
f 471 472 385
f 471 385 384
f 373 472 457
f 373 385 472
f 377 378 460
f 378 461 460
f 460 461 473
f 461 474 473
f 377 460 473
f 377 473 387
f 379 390 380
f 379 389 390
f 380 475 463
f 380 390 475
f 473 474 481
f 474 482 481
f 387 473 481
f 387 481 392
f 388 394 389
f 388 393 394
f 389 395 390
f 389 394 395
f 390 483 475
f 390 395 483
f 481 482 489
f 482 490 489
f 392 481 489
f 392 489 396
f 489 490 397
f 489 397 396
f 393 400 394
f 393 399 400
f 394 401 395
f 394 400 401
f 395 492 483
f 395 401 492
f 490 491 495
f 491 496 495
f 397 490 495
f 397 495 402
f 495 496 403
f 495 403 402
f 496 497 404
f 496 404 403
f 398 405 399
f 398 404 405
f 399 406 400
f 399 405 406
f 400 407 401
f 400 406 407
f 401 498 492
f 401 407 498
f 404 497 503
f 404 503 408
f 404 409 405
f 404 408 409
f 503 504 409
f 503 409 408
f 405 410 406
f 405 409 410
f 504 505 410
f 504 410 409
f 406 411 407
f 406 410 411
f 505 506 411
f 505 411 410
f 407 506 498
f 407 411 506
f 422 423 520
f 423 521 520
f 520 521 528
f 521 529 528
f 422 520 528
f 422 528 435
f 423 529 521
f 423 436 529
f 432 433 525
f 433 526 525
f 525 526 539
f 526 540 539
f 432 525 539
f 432 539 448
f 433 434 526
f 434 527 526
f 526 527 540
f 527 541 540
f 434 435 527
f 435 528 527
f 436 437 529
f 437 530 529
f 437 438 530
f 438 531 530
f 530 531 542
f 531 543 542
f 437 450 438
f 437 449 450
f 438 439 531
f 439 532 531
f 531 532 543
f 532 544 543
f 438 451 439
f 438 450 451
f 439 440 532
f 440 533 532
f 532 533 544
f 533 545 544
f 439 452 440
f 439 451 452
f 440 545 533
f 440 452 545
f 539 540 556
f 540 557 556
f 448 539 556
f 448 556 462
f 449 465 450
f 449 464 465
f 543 544 558
f 544 559 558
f 450 466 451
f 450 465 466
f 544 545 559
f 545 560 559
f 451 467 452
f 451 466 467
f 559 560 467
f 559 467 466
f 452 453 545
f 453 546 545
f 545 546 560
f 546 561 560
f 452 468 453
f 452 467 468
f 560 561 468
f 560 468 467
f 453 454 546
f 454 547 546
f 546 547 561
f 547 562 561
f 453 469 454
f 453 468 469
f 561 562 469
f 561 469 468
f 454 455 547
f 455 548 547
f 547 548 562
f 548 563 562
f 562 563 470
f 562 470 469
f 455 456 548
f 456 549 548
f 548 549 563
f 549 564 563
f 563 564 471
f 563 471 470
f 456 564 549
f 456 471 564
f 461 462 555
f 462 556 555
f 555 556 568
f 556 569 568
f 461 555 568
f 461 568 474
f 463 476 464
f 463 475 476
f 464 477 465
f 464 476 477
f 570 571 477
f 570 477 476
f 558 559 571
f 559 572 571
f 465 478 466
f 465 477 478
f 571 572 478
f 571 478 477
f 466 572 559
f 466 478 572
f 474 568 575
f 474 575 482
f 475 484 476
f 475 483 484
f 476 576 570
f 476 484 576
f 478 479 572
f 479 573 572
f 572 573 578
f 573 579 578
f 478 572 578
f 478 578 486
f 478 487 479
f 478 486 487
f 578 579 487
f 578 487 486
f 479 480 573
f 480 574 573
f 573 574 579
f 574 580 579
f 479 488 480
f 479 487 488
f 579 580 488
f 579 488 487
f 480 580 574
f 480 488 580
f 482 575 581
f 482 581 490
f 581 582 491
f 581 491 490
f 483 493 484
f 483 492 493
f 484 485 576
f 485 577 576
f 576 577 583
f 577 584 583
f 484 494 485
f 484 493 494
f 583 584 494
f 583 494 493
f 485 584 577
f 485 494 584
f 491 582 586
f 491 586 496
f 586 587 497
f 586 497 496
f 492 499 493
f 492 498 499
f 493 588 583
f 493 499 588
f 497 587 593
f 497 593 503
f 593 594 504
f 593 504 503
f 594 595 505
f 594 505 504
f 595 596 506
f 595 506 505
f 498 507 499
f 498 506 507
f 596 597 507
f 596 507 506
f 499 500 588
f 500 589 588
f 588 589 597
f 589 598 597
f 499 508 500
f 499 507 508
f 597 598 508
f 597 508 507
f 500 501 589
f 501 590 589
f 589 590 598
f 590 599 598
f 500 509 501
f 500 508 509
f 501 502 590
f 502 591 590
f 590 591 599
f 591 600 599
f 501 510 502
f 501 509 510
f 502 600 591
f 502 510 600
f 598 599 609
f 599 610 609
f 508 598 609
f 508 609 513
f 508 514 509
f 508 513 514
f 609 610 514
f 609 514 513
f 599 600 610
f 600 611 610
f 509 515 510
f 509 514 515
f 610 611 515
f 610 515 514
f 510 511 600
f 511 601 600
f 600 601 611
f 601 612 611
f 510 516 511
f 510 515 516
f 511 512 601
f 512 602 601
f 601 602 612
f 602 613 612
f 511 517 512
f 511 516 517
f 612 613 517
f 612 517 516
f 512 613 602
f 512 517 613
f 611 612 619
f 612 620 619
f 515 611 619
f 515 619 518
f 515 519 516
f 515 518 519
f 619 620 519
f 619 519 518
f 516 620 612
f 516 519 620
f 522 523 621
f 523 622 621
f 522 621 630
f 522 630 535
f 522 536 523
f 522 535 536
f 523 524 622
f 524 623 622
f 523 537 524
f 523 536 537
f 524 631 623
f 524 537 631
f 527 528 625
f 528 626 625
f 625 626 634
f 626 635 634
f 527 625 634
f 527 634 541
f 528 529 626
f 529 627 626
f 626 627 635
f 627 636 635
f 529 530 627
f 530 628 627
f 627 628 636
f 628 637 636
f 530 637 628
f 530 542 637
f 534 535 629
f 535 630 629
f 629 630 639
f 630 640 639
f 534 629 639
f 534 639 550
f 534 551 535
f 534 550 551
f 639 640 551
f 639 551 550
f 535 552 536
f 535 551 552
f 536 553 537
f 536 552 553
f 537 538 631
f 538 632 631
f 537 554 538
f 537 553 554
f 641 642 554
f 641 554 553
f 538 642 632
f 538 554 642
f 540 541 633
f 541 634 633
f 633 634 644
f 634 645 644
f 540 633 644
f 540 644 557
f 542 543 637
f 543 638 637
f 637 638 646
f 638 647 646
f 543 647 638
f 543 558 647
f 551 640 648
f 551 648 565
f 551 566 552
f 551 565 566
f 648 649 566
f 648 566 565
f 552 567 553
f 552 566 567
f 649 650 567
f 649 567 566
f 553 650 641
f 553 567 650
f 556 557 643
f 557 644 643
f 556 643 653
f 556 653 569
f 558 655 647
f 558 571 655
f 568 569 652
f 569 653 652
f 652 653 658
f 653 659 658
f 568 652 658
f 568 658 575
f 654 655 660
f 655 661 660
f 570 577 571
f 570 576 577
f 660 661 577
f 660 577 576
f 571 661 655
f 571 577 661
f 658 659 662
f 659 663 662
f 575 658 662
f 575 662 581
f 576 664 660
f 576 583 664
f 581 662 665
f 581 665 585
f 581 586 582
f 581 585 586
f 665 666 586
f 665 586 585
f 583 667 664
f 583 588 667
f 586 666 668
f 586 668 592
f 586 593 587
f 586 592 593
f 588 670 667
f 588 597 670
f 668 669 671
f 669 672 671
f 592 668 671
f 592 671 603
f 592 604 593
f 592 603 604
f 671 672 604
f 671 604 603
f 593 605 594
f 593 604 605
f 672 673 605
f 672 605 604
f 594 606 595
f 594 605 606
f 595 607 596
f 595 606 607
f 596 608 597
f 596 607 608
f 597 674 670
f 597 608 674
f 605 673 676
f 605 676 614
f 605 615 606
f 605 614 615
f 676 677 615
f 676 615 614
f 606 616 607
f 606 615 616
f 677 678 616
f 677 616 615
f 607 617 608
f 607 616 617
f 678 679 617
f 678 617 616
f 608 609 674
f 609 675 674
f 608 618 609
f 608 617 618
f 679 680 618
f 679 618 617
f 609 680 675
f 609 618 680
f 621 622 681
f 622 682 681
f 681 682 685
f 682 686 685
f 621 681 685
f 621 685 630
f 622 623 682
f 623 683 682
f 623 624 683
f 624 684 683
f 683 684 687
f 684 688 687
f 623 632 624
f 623 631 632
f 624 688 684
f 624 632 688
f 630 685 693
f 630 693 640
f 632 694 688
f 632 642 694
f 634 635 689
f 635 690 689
f 689 690 697
f 690 698 697
f 634 689 697
f 634 697 645
f 635 636 690
f 636 691 690
f 690 691 698
f 691 699 698
f 636 637 691
f 637 692 691
f 691 692 699
f 692 700 699
f 637 700 692
f 637 646 700
f 640 693 702
f 640 702 648
f 702 703 649
f 702 649 648
f 641 651 642
f 641 650 651
f 704 705 651
f 704 651 650
f 642 705 694
f 642 651 705
f 643 644 695
f 644 696 695
f 695 696 706
f 696 707 706
f 643 695 706
f 643 706 653
f 644 645 696
f 645 697 696
f 696 697 707
f 697 708 707
f 646 647 700
f 647 701 700
f 700 701 709
f 701 710 709
f 709 710 655
f 709 655 654
f 647 710 701
f 647 655 710
f 649 703 711
f 649 711 656
f 649 657 650
f 649 656 657
f 711 712 657
f 711 657 656
f 650 712 704
f 650 657 712
f 653 706 714
f 653 714 659
f 654 716 709
f 654 660 716
f 659 714 718
f 659 718 663
f 715 716 719
f 716 720 719
f 660 720 716
f 660 664 720
f 662 663 717
f 663 718 717
f 662 717 721
f 662 721 665
f 721 722 666
f 721 666 665
f 664 724 720
f 664 667 724
f 666 722 725
f 666 725 668
f 725 726 669
f 725 669 668
f 723 724 727
f 724 728 727
f 667 728 724
f 667 670 728
f 669 726 730
f 669 730 672
f 730 731 673
f 730 673 672
f 670 732 728
f 670 674 732
f 673 731 735
f 673 735 676
f 735 736 677
f 735 677 676
f 736 737 678
f 736 678 677
f 737 738 679
f 737 679 678
f 674 675 732
f 675 733 732
f 732 733 738
f 733 739 738
f 738 739 680
f 738 680 679
f 675 739 733
f 675 680 739
f 682 683 742
f 683 743 742
f 742 743 745
f 743 746 745
f 682 742 745
f 682 745 686
f 683 746 743
f 683 687 746
f 685 686 744
f 686 745 744
f 744 745 748
f 745 749 748
f 685 744 748
f 685 748 693
f 687 688 746
f 688 747 746
f 746 747 750
f 747 751 750
f 688 751 747
f 688 694 751
f 693 748 756
f 693 756 702
f 756 757 703
f 756 703 702
f 694 758 751
f 694 705 758
f 697 698 752
f 698 753 752
f 752 753 761
f 753 762 761
f 697 752 761
f 697 761 708
f 698 699 753
f 699 754 753
f 753 754 762
f 754 763 762
f 699 700 754
f 700 755 754
f 754 755 763
f 755 764 763
f 700 764 755
f 700 709 764
f 703 757 765
f 703 765 711
f 765 766 712
f 765 712 711
f 704 713 705
f 704 712 713
f 766 767 713
f 766 713 712
f 705 767 758
f 705 713 767
f 706 707 759
f 707 760 759
f 759 760 768
f 760 769 768
f 706 759 768
f 706 768 714
f 707 708 760
f 708 761 760
f 762 763 770
f 763 771 770
f 763 764 771
f 764 772 771
f 771 772 716
f 771 716 715
f 709 772 764
f 709 716 772
f 714 768 774
f 714 774 718
f 715 775 771
f 715 719 775
f 717 718 773
f 718 774 773
f 717 773 777
f 717 777 721
f 777 778 722
f 777 722 721
f 719 720 775
f 720 776 775
f 775 776 779
f 776 780 779
f 779 780 724
f 779 724 723
f 720 780 776
f 720 724 780
f 722 778 782
f 722 782 725
f 723 783 779
f 723 727 783
f 725 782 785
f 725 785 729
f 725 730 726
f 725 729 730
f 785 786 730
f 785 730 729
f 727 728 783
f 728 784 783
f 783 784 787
f 784 788 787
f 728 788 784
f 728 732 788
f 730 786 790
f 730 790 734
f 730 735 731
f 730 734 735
f 790 791 735
f 790 735 734
f 791 792 736
f 791 736 735
f 793 794 738
f 793 738 737
f 732 794 788
f 732 738 794
f 792 793 795
f 793 796 795
f 736 792 795
f 736 795 740
f 736 741 737
f 736 740 741
f 795 796 741
f 795 741 740
f 737 796 793
f 737 741 796
f 745 746 797
f 746 798 797
f 745 797 800
f 745 800 749
f 746 801 798
f 746 750 801
f 748 749 799
f 749 800 799
f 748 799 803
f 748 803 756
f 803 804 757
f 803 757 756
f 750 751 801
f 751 802 801
f 751 805 802
f 751 758 805
f 757 804 809
f 757 809 765
f 809 810 766
f 809 766 765
f 810 811 767
f 810 767 766
f 758 811 805
f 758 767 811
f 760 761 806
f 761 807 806
f 806 807 813
f 807 814 813
f 760 806 813
f 760 813 769
f 761 762 807
f 762 808 807
f 807 808 814
f 808 815 814
f 762 815 808
f 762 770 815
f 768 769 812
f 769 813 812
f 812 813 818
f 813 819 818
f 768 812 818
f 768 818 774
f 813 814 819
f 814 820 819
f 814 815 820
f 815 821 820
f 770 771 815
f 771 816 815
f 815 816 821
f 816 822 821
f 771 822 816
f 771 775 822
f 773 774 817
f 774 818 817
f 817 818 824
f 818 825 824
f 773 817 824
f 773 824 777
f 775 826 822
f 775 779 826
f 824 825 828
f 825 829 828
f 777 824 828
f 777 828 781
f 777 782 778
f 777 781 782
f 828 829 782
f 828 782 781
f 779 780 826
f 780 827 826
f 826 827 830
f 827 831 830
f 779 784 780
f 779 783 784
f 830 831 784
f 830 784 783
f 780 831 827
f 780 784 831
f 782 829 832
f 782 832 785
f 783 834 830
f 783 787 834
f 832 833 836
f 833 837 836
f 785 832 836
f 785 836 789
f 785 790 786
f 785 789 790
f 836 837 790
f 836 790 789
f 837 838 791
f 837 791 790
f 838 839 792
f 838 792 791
f 839 840 793
f 839 793 792
f 787 788 834
f 788 835 834
f 834 835 840
f 835 841 840
f 840 841 794
f 840 794 793
f 788 841 835
f 788 794 841
f 797 798 849
f 798 850 849
f 797 849 853
f 797 853 800
f 798 854 850
f 798 801 854
f 799 800 852
f 800 853 852
f 799 852 857
f 799 857 803
f 857 858 804
f 857 804 803
f 801 802 854
f 802 855 854
f 802 859 855
f 802 805 859
f 804 858 862
f 804 862 809
f 862 863 810
f 862 810 809
f 863 864 811
f 863 811 810
f 805 864 859
f 805 811 864
f 818 819 865
f 819 866 865
f 818 865 871
f 818 871 825
f 819 820 866
f 820 867 866
f 820 821 867
f 821 868 867
f 821 822 868
f 822 869 868
f 822 823 869
f 823 870 869
f 869 870 872
f 870 873 872
f 822 827 823
f 822 826 827
f 872 873 827
f 872 827 826
f 823 873 870
f 823 827 873
f 825 871 875
f 825 875 829
f 826 876 872
f 826 830 876
f 829 875 879
f 829 879 832
f 879 880 833
f 879 833 832
f 830 831 876
f 831 877 876
f 830 835 831
f 830 834 835
f 881 882 835
f 881 835 834
f 831 882 877
f 831 835 882
f 833 880 884
f 833 884 837
f 884 885 838
f 884 838 837
f 834 886 881
f 834 840 886
f 838 885 889
f 838 889 842
f 838 843 839
f 838 842 843
f 889 890 843
f 889 843 842
f 839 844 840
f 839 843 844
f 840 891 886
f 840 844 891
f 843 890 895
f 843 895 845
f 843 846 844
f 843 845 846
f 895 896 846
f 895 846 845
f 844 896 891
f 844 846 896
f 847 848 905
f 848 906 905
f 905 906 910
f 906 911 910
f 847 905 910
f 847 910 851
f 847 852 848
f 847 851 852
f 848 849 906
f 849 907 906
f 848 853 849
f 848 852 853
f 849 850 907
f 850 908 907
f 850 912 908
f 850 854 912
f 851 910 914
f 851 914 856
f 851 857 852
f 851 856 857
f 854 855 912
f 855 913 912
f 855 917 913
f 855 859 917
f 914 915 918
f 915 919 918
f 856 914 918
f 856 918 860
f 856 861 857
f 856 860 861
f 918 919 861
f 918 861 860
f 915 916 919
f 916 920 919
f 857 862 858
f 857 861 862
f 919 920 862
f 919 862 861
f 920 921 863
f 920 863 862
f 921 922 864
f 921 864 863
f 859 922 917
f 859 864 922
f 865 866 923
f 866 924 923
f 923 924 928
f 924 929 928
f 865 923 928
f 865 928 871
f 866 867 924
f 867 925 924
f 924 925 929
f 925 930 929
f 867 868 925
f 868 926 925
f 925 926 930
f 926 931 930
f 868 869 926
f 869 927 926
f 926 927 931
f 927 932 931
f 869 932 927
f 869 872 932
f 871 928 935
f 871 935 875
f 872 873 932
f 873 933 932
f 932 933 936
f 933 937 936
f 872 877 873
f 872 876 877
f 873 937 933
f 873 877 937
f 874 875 934
f 875 935 934
f 934 935 938
f 935 939 938
f 874 934 938
f 874 938 878
f 874 879 875
f 874 878 879
f 938 939 879
f 938 879 878
f 877 943 937
f 877 882 943
f 939 940 944
f 940 945 944
f 879 939 944
f 879 944 883
f 879 884 880
f 879 883 884
f 944 945 884
f 944 884 883
f 941 942 947
f 942 948 947
f 942 943 948
f 943 949 948
f 881 887 882
f 881 886 887
f 948 949 887
f 948 887 886
f 882 949 943
f 882 887 949
f 945 946 950
f 946 951 950
f 884 945 950
f 884 950 888
f 884 889 885
f 884 888 889
f 950 951 889
f 950 889 888
f 946 947 951
f 947 952 951
f 947 948 952
f 948 953 952
f 886 953 948
f 886 891 953
f 951 952 956
f 952 957 956
f 889 951 956
f 889 956 894
f 889 895 890
f 889 894 895
f 956 957 895
f 956 895 894
f 952 953 957
f 953 958 957
f 957 958 896
f 957 896 895
f 891 892 953
f 892 954 953
f 953 954 958
f 954 959 958
f 891 897 892
f 891 896 897
f 958 959 897
f 958 897 896
f 892 893 954
f 893 955 954
f 954 955 959
f 955 960 959
f 892 898 893
f 892 897 898
f 959 960 898
f 959 898 897
f 893 960 955
f 893 898 960
f 899 900 961
f 900 962 961
f 899 961 969
f 899 969 902
f 899 903 900
f 899 902 903
f 969 970 903
f 969 903 902
f 900 901 962
f 901 963 962
f 900 904 901
f 900 903 904
f 970 971 904
f 970 904 903
f 901 971 963
f 901 904 971
f 906 907 994
f 907 995 994
f 906 994 1001
f 906 1001 911
f 907 908 995
f 908 996 995
f 908 909 996
f 909 997 996
f 908 913 909
f 908 912 913
f 909 1002 997
f 909 913 1002
f 910 911 1000
f 911 1001 1000
f 910 1000 1003
f 910 1003 914
f 1003 1004 915
f 1003 915 914
f 1004 1005 916
f 1004 916 915
f 913 1006 1002
f 913 917 1006
f 916 1005 1007
f 916 1007 920
f 1007 1008 921
f 1007 921 920
f 1008 1009 922
f 1008 922 921
f 917 1009 1006
f 917 922 1009
f 928 929 1010
f 929 1011 1010
f 928 1010 1015
f 928 1015 935
f 929 930 1011
f 930 1012 1011
f 930 931 1012
f 931 1013 1012
f 931 932 1013
f 932 1014 1013
f 932 1016 1014
f 932 936 1016
f 935 1015 1018
f 935 1018 939
f 1018 1019 940
f 1018 940 939
f 1020 1021 942
f 1020 942 941
f 936 937 1016
f 937 1017 1016
f 1016 1017 1021
f 1017 1022 1021
f 1021 1022 943
f 1021 943 942
f 937 1022 1017
f 937 943 1022
f 940 1019 1027
f 940 1027 945
f 1027 1028 946
f 1027 946 945
f 1028 1029 947
f 1028 947 946
f 941 1029 1020
f 941 947 1029
f 956 957 1043
f 957 1044 1043
f 956 1043 1053
f 956 1053 964
f 956 965 957
f 956 964 965
f 957 958 1044
f 958 1045 1044
f 957 966 958
f 957 965 966
f 958 959 1045
f 959 1046 1045
f 958 967 959
f 958 966 967
f 959 960 1046
f 960 1047 1046
f 959 968 960
f 959 967 968
f 960 961 1047
f 961 1048 1047
f 960 969 961
f 960 968 969
f 961 962 1048
f 962 1049 1048
f 962 963 1049
f 963 1050 1049
f 963 1054 1050
f 963 971 1054
f 964 1053 1057
f 964 1057 973
f 964 974 965
f 964 973 974
f 1057 1058 974
f 1057 974 973
f 965 975 966
f 965 974 975
f 1058 1059 975
f 1058 975 974
f 966 976 967
f 966 975 976
f 967 977 968
f 967 976 977
f 968 978 969
f 968 977 978
f 969 979 970
f 969 978 979
f 970 980 971
f 970 979 980
f 971 972 1054
f 972 1055 1054
f 971 981 972
f 971 980 981
f 972 1060 1055
f 972 981 1060
f 975 1059 1063
f 975 1063 983
f 975 984 976
f 975 983 984
f 1063 1064 984
f 1063 984 983
f 976 985 977
f 976 984 985
f 1064 1065 985
f 1064 985 984
f 977 986 978
f 977 985 986
f 1065 1066 986
f 1065 986 985
f 978 987 979
f 978 986 987
f 1066 1067 987
f 1066 987 986
f 979 988 980
f 979 987 988
f 1067 1068 988
f 1067 988 987
f 980 989 981
f 980 988 989
f 1068 1069 989
f 1068 989 988
f 981 982 1060
f 982 1061 1060
f 981 990 982
f 981 989 990
f 1069 1070 990
f 1069 990 989
f 982 1070 1061
f 982 990 1070
f 991 992 1071
f 992 1072 1071
f 1071 1072 1078
f 1072 1079 1078
f 991 1071 1078
f 991 1078 998
f 991 999 992
f 991 998 999
f 1078 1079 999
f 1078 999 998
f 992 993 1072
f 993 1073 1072
f 1072 1073 1079
f 1073 1080 1079
f 992 1000 993
f 992 999 1000
f 1079 1080 1000
f 1079 1000 999
f 993 994 1073
f 994 1074 1073
f 993 1001 994
f 993 1000 1001
f 994 995 1074
f 995 1075 1074
f 995 996 1075
f 996 1076 1075
f 996 997 1076
f 997 1077 1076
f 1076 1077 1083
f 1077 1084 1083
f 997 1084 1077
f 997 1002 1084
f 1080 1081 1085
f 1081 1086 1085
f 1000 1080 1085
f 1000 1085 1003
f 1085 1086 1004
f 1085 1004 1003
f 1081 1082 1086
f 1082 1087 1086
f 1086 1087 1005
f 1086 1005 1004
f 1002 1089 1084
f 1002 1006 1089
f 1087 1088 1090
f 1088 1091 1090
f 1005 1087 1090
f 1005 1090 1007
f 1090 1091 1008
f 1090 1008 1007
f 1088 1089 1091
f 1089 1092 1091
f 1091 1092 1009
f 1091 1009 1008
f 1006 1092 1089
f 1006 1009 1092
f 1010 1011 1094
f 1011 1095 1094
f 1010 1094 1101
f 1010 1101 1015
f 1011 1012 1095
f 1012 1096 1095
f 1095 1096 1102
f 1096 1103 1102
f 1012 1013 1096
f 1013 1097 1096
f 1096 1097 1103
f 1097 1104 1103
f 1013 1014 1097
f 1014 1098 1097
f 1097 1098 1104
f 1098 1105 1104
f 1014 1105 1098
f 1014 1016 1105
f 1015 1101 1108
f 1015 1108 1018
f 1108 1109 1019
f 1108 1019 1018
f 1104 1105 1111
f 1105 1112 1111
f 1016 1112 1105
f 1016 1021 1112
f 1019 1109 1121
f 1019 1121 1027
f 1121 1122 1028
f 1121 1028 1027
f 1110 1111 1122
f 1111 1123 1122
f 1122 1123 1029
f 1122 1029 1028
f 1111 1112 1123
f 1112 1124 1123
f 1020 1030 1021
f 1020 1029 1030
f 1123 1124 1030
f 1123 1030 1029
f 1021 1022 1112
f 1022 1113 1112
f 1112 1113 1124
f 1113 1125 1124
f 1021 1031 1022
f 1021 1030 1031
f 1124 1125 1031
f 1124 1031 1030
f 1022 1023 1113
f 1023 1114 1113
f 1113 1114 1125
f 1114 1126 1125
f 1022 1032 1023
f 1022 1031 1032
f 1125 1126 1032
f 1125 1032 1031
f 1023 1024 1114
f 1024 1115 1114
f 1114 1115 1126
f 1115 1127 1126
f 1023 1033 1024
f 1023 1032 1033
f 1126 1127 1033
f 1126 1033 1032
f 1024 1025 1115
f 1025 1116 1115
f 1115 1116 1127
f 1116 1128 1127
f 1024 1034 1025
f 1024 1033 1034
f 1127 1128 1034
f 1127 1034 1033
f 1025 1026 1116
f 1026 1117 1116
f 1116 1117 1128
f 1117 1129 1128
f 1025 1035 1026
f 1025 1034 1035
f 1128 1129 1035
f 1128 1035 1034
f 1026 1129 1117
f 1026 1035 1129
f 1036 1037 1133
f 1037 1134 1133
f 1133 1134 1143
f 1134 1144 1143
f 1036 1133 1143
f 1036 1143 1045
f 1036 1046 1037
f 1036 1045 1046
f 1037 1038 1134
f 1038 1135 1134
f 1134 1135 1144
f 1135 1145 1144
f 1037 1047 1038
f 1037 1046 1047
f 1038 1039 1135
f 1039 1136 1135
f 1135 1136 1145
f 1136 1146 1145
f 1038 1048 1039
f 1038 1047 1048
f 1039 1040 1136
f 1040 1137 1136
f 1136 1137 1146
f 1137 1147 1146
f 1039 1049 1040
f 1039 1048 1049
f 1040 1041 1137
f 1041 1138 1137
f 1137 1138 1147
f 1138 1148 1147
f 1040 1050 1041
f 1040 1049 1050
f 1041 1148 1138
f 1041 1050 1148
f 1042 1043 1140
f 1043 1141 1140
f 1042 1140 1150
f 1042 1150 1052
f 1042 1053 1043
f 1042 1052 1053
f 1150 1151 1053
f 1150 1053 1052
f 1043 1044 1141
f 1044 1142 1141
f 1044 1045 1142
f 1045 1143 1142
f 1050 1051 1148
f 1051 1149 1148
f 1148 1149 1152
f 1149 1153 1152
f 1050 1055 1051
f 1050 1054 1055
f 1051 1153 1149
f 1051 1055 1153
f 1053 1151 1155
f 1053 1155 1057
f 1155 1156 1058
f 1155 1058 1057
f 1055 1056 1153
f 1056 1154 1153
f 1153 1154 1158
f 1154 1159 1158
f 1055 1061 1056
f 1055 1060 1061
f 1056 1159 1154
f 1056 1061 1159
f 1156 1157 1161
f 1157 1162 1161
f 1058 1156 1161
f 1058 1161 1062
f 1058 1063 1059
f 1058 1062 1063
f 1161 1162 1063
f 1161 1063 1062
f 1162 1163 1064
f 1162 1064 1063
f 1163 1164 1065
f 1163 1065 1064
f 1164 1165 1066
f 1164 1066 1065
f 1165 1166 1067
f 1165 1067 1066
f 1166 1167 1068
f 1166 1068 1067
f 1167 1168 1069
f 1167 1069 1068
f 1168 1169 1070
f 1168 1070 1069
f 1061 1169 1159
f 1061 1070 1169
f 1073 1074 1175
f 1074 1176 1175
f 1073 1175 1180
f 1073 1180 1080
f 1180 1181 1081
f 1180 1081 1080
f 1074 1075 1176
f 1075 1177 1176
f 1181 1182 1082
f 1181 1082 1081
f 1075 1076 1177
f 1076 1178 1177
f 1076 1183 1178
f 1076 1083 1183
f 1082 1182 1185
f 1082 1185 1087
f 1185 1186 1088
f 1185 1088 1087
f 1083 1084 1183
f 1084 1184 1183
f 1186 1187 1089
f 1186 1089 1088
f 1084 1187 1184
f 1084 1089 1187
f 1093 1094 1193
f 1094 1194 1193
f 1093 1193 1198
f 1093 1198 1100
f 1093 1101 1094
f 1093 1100 1101
f 1094 1095 1194
f 1095 1195 1194
f 1095 1199 1195
f 1095 1102 1199
f 1099 1100 1197
f 1100 1198 1197
f 1099 1197 1202
f 1099 1202 1106
f 1099 1107 1100
f 1099 1106 1107
f 1100 1108 1101
f 1100 1107 1108
f 1102 1103 1199
f 1103 1200 1199
f 1103 1104 1200
f 1104 1201 1200
f 1200 1201 1203
f 1201 1204 1203
f 1203 1204 1111
f 1203 1111 1110
f 1104 1204 1201
f 1104 1111 1204
f 1106 1202 1205
f 1106 1205 1118
f 1106 1119 1107
f 1106 1118 1119
f 1205 1206 1119
f 1205 1119 1118
f 1107 1120 1108
f 1107 1119 1120
f 1206 1207 1120
f 1206 1120 1119
f 1108 1121 1109
f 1108 1120 1121
f 1207 1208 1121
f 1207 1121 1120
f 1208 1209 1122
f 1208 1122 1121
f 1110 1209 1203
f 1110 1122 1209
f 1130 1131 1210
f 1131 1211 1210
f 1130 1210 1213
f 1130 1213 1139
f 1130 1140 1131
f 1130 1139 1140
f 1213 1214 1140
f 1213 1140 1139
f 1131 1132 1211
f 1132 1212 1211
f 1131 1141 1132
f 1131 1140 1141
f 1132 1215 1212
f 1132 1141 1215
f 1214 1215 1223
f 1215 1224 1223
f 1140 1214 1223
f 1140 1223 1150
f 1223 1224 1151
f 1223 1151 1150
f 1141 1142 1215
f 1142 1216 1215
f 1142 1143 1216
f 1143 1217 1216
f 1143 1144 1217
f 1144 1218 1217
f 1144 1145 1218
f 1145 1219 1218
f 1145 1146 1219
f 1146 1220 1219
f 1146 1147 1220
f 1147 1221 1220
f 1147 1148 1221
f 1148 1222 1221
f 1221 1222 1225
f 1222 1226 1225
f 1148 1226 1222
f 1148 1152 1226
f 1151 1224 1228
f 1151 1228 1155
f 1228 1229 1156
f 1228 1156 1155
f 1229 1230 1157
f 1229 1157 1156
f 1152 1153 1226
f 1153 1227 1226
f 1153 1232 1227
f 1153 1158 1232
f 1230 1231 1235
f 1231 1236 1235
f 1157 1230 1235
f 1157 1235 1162
f 1235 1236 1163
f 1235 1163 1162
f 1236 1237 1164
f 1236 1164 1163
f 1237 1238 1165
f 1237 1165 1164
f 1238 1239 1166
f 1238 1166 1165
f 1239 1240 1167
f 1239 1167 1166
f 1240 1241 1168
f 1240 1168 1167
f 1158 1159 1232
f 1159 1233 1232
f 1241 1242 1169
f 1241 1169 1168
f 1159 1160 1233
f 1160 1234 1233
f 1233 1234 1242
f 1234 1243 1242
f 1159 1170 1160
f 1159 1169 1170
f 1242 1243 1170
f 1242 1170 1169
f 1160 1243 1234
f 1160 1170 1243
f 1171 1172 1244
f 1172 1245 1244
f 1244 1245 1248
f 1245 1249 1248
f 1171 1244 1248
f 1171 1248 1175
f 1171 1176 1172
f 1171 1175 1176
f 1172 1173 1245
f 1173 1246 1245
f 1245 1246 1249
f 1246 1250 1249
f 1172 1177 1173
f 1172 1176 1177
f 1173 1174 1246
f 1174 1247 1246
f 1246 1247 1250
f 1247 1251 1250
f 1173 1178 1174
f 1173 1177 1178
f 1174 1251 1247
f 1174 1178 1251
f 1248 1249 1253
f 1249 1254 1253
f 1175 1248 1253
f 1175 1253 1180
f 1253 1254 1181
f 1253 1181 1180
f 1249 1250 1254
f 1250 1255 1254
f 1254 1255 1182
f 1254 1182 1181
f 1250 1251 1255
f 1251 1256 1255
f 1178 1179 1251
f 1179 1252 1251
f 1251 1252 1256
f 1252 1257 1256
f 1178 1184 1179
f 1178 1183 1184
f 1179 1257 1252
f 1179 1184 1257
f 1255 1256 1258
f 1256 1259 1258
f 1182 1255 1258
f 1182 1258 1185
f 1258 1259 1186
f 1258 1186 1185
f 1256 1257 1259
f 1257 1260 1259
f 1259 1260 1187
f 1259 1187 1186
f 1184 1260 1257
f 1184 1187 1260
f 1188 1189 1261
f 1189 1262 1261
f 1261 1262 1266
f 1262 1267 1266
f 1188 1261 1266
f 1188 1266 1193
f 1188 1194 1189
f 1188 1193 1194
f 1189 1190 1262
f 1190 1263 1262
f 1262 1263 1267
f 1263 1268 1267
f 1189 1195 1190
f 1189 1194 1195
f 1190 1191 1263
f 1191 1264 1263
f 1263 1264 1268
f 1264 1269 1268
f 1190 1196 1191
f 1190 1195 1196
f 1191 1269 1264
f 1191 1196 1269
f 1192 1193 1265
f 1193 1266 1265
f 1265 1266 1270
f 1266 1271 1270
f 1192 1265 1270
f 1192 1270 1197
f 1192 1198 1193
f 1192 1197 1198
f 1266 1267 1271
f 1267 1272 1271
f 1267 1268 1272
f 1268 1273 1272
f 1268 1269 1273
f 1269 1274 1273
f 1195 1200 1196
f 1195 1199 1200
f 1196 1274 1269
f 1196 1200 1274
f 1270 1271 1275
f 1271 1276 1275
f 1197 1270 1275
f 1197 1275 1202
f 1271 1272 1276
f 1272 1277 1276
f 1272 1273 1277
f 1273 1278 1277
f 1273 1274 1278
f 1274 1279 1278
f 1200 1279 1274
f 1200 1203 1279
f 1275 1276 1280
f 1276 1281 1280
f 1202 1275 1280
f 1202 1280 1205
f 1280 1281 1206
f 1280 1206 1205
f 1276 1277 1281
f 1277 1282 1281
f 1281 1282 1207
f 1281 1207 1206
f 1277 1278 1282
f 1278 1283 1282
f 1282 1283 1208
f 1282 1208 1207
f 1278 1279 1283
f 1279 1284 1283
f 1283 1284 1209
f 1283 1209 1208
f 1203 1284 1279
f 1203 1209 1284
f 1210 1211 1285
f 1211 1286 1285
f 1285 1286 1288
f 1286 1289 1288
f 1210 1285 1288
f 1210 1288 1213
f 1288 1289 1214
f 1288 1214 1213
f 1211 1212 1286
f 1212 1287 1286
f 1286 1287 1289
f 1287 1290 1289
f 1289 1290 1215
f 1289 1215 1214
f 1212 1290 1287
f 1212 1215 1290
f 1215 1216 1290
f 1216 1291 1290
f 1290 1291 1297
f 1291 1298 1297
f 1215 1290 1297
f 1215 1297 1224
f 1216 1217 1291
f 1217 1292 1291
f 1291 1292 1298
f 1292 1299 1298
f 1217 1218 1292
f 1218 1293 1292
f 1292 1293 1299
f 1293 1300 1299
f 1218 1219 1293
f 1219 1294 1293
f 1219 1220 1294
f 1220 1295 1294
f 1220 1221 1295
f 1221 1296 1295
f 1295 1296 1301
f 1296 1302 1301
f 1221 1302 1296
f 1221 1225 1302
f 1297 1298 1305
f 1298 1306 1305
f 1224 1297 1305
f 1224 1305 1228
f 1305 1306 1229
f 1305 1229 1228
f 1298 1299 1306
f 1299 1307 1306
f 1306 1307 1230
f 1306 1230 1229
f 1299 1300 1307
f 1300 1308 1307
f 1307 1308 1231
f 1307 1231 1230
f 1225 1226 1302
f 1226 1303 1302
f 1226 1227 1303
f 1227 1304 1303
f 1303 1304 1312
f 1304 1313 1312
f 1227 1313 1304
f 1227 1232 1313
f 1308 1309 1315
f 1309 1316 1315
f 1231 1308 1315
f 1231 1315 1236
f 1315 1316 1237
f 1315 1237 1236
f 1309 1310 1316
f 1310 1317 1316
f 1316 1317 1238
f 1316 1238 1237
f 1317 1318 1239
f 1317 1239 1238
f 1311 1312 1318
f 1312 1319 1318
f 1318 1319 1240
f 1318 1240 1239
f 1312 1313 1319
f 1313 1320 1319
f 1319 1320 1241
f 1319 1241 1240
f 1232 1233 1313
f 1233 1314 1313
f 1313 1314 1320
f 1314 1321 1320
f 1320 1321 1242
f 1320 1242 1241
f 1233 1321 1314
f 1233 1242 1321
f 1293 1294 1322
f 1294 1323 1322
f 1322 1323 1325
f 1323 1326 1325
f 1293 1322 1325
f 1293 1325 1300
f 1294 1295 1323
f 1295 1324 1323
f 1323 1324 1326
f 1324 1327 1326
f 1295 1327 1324
f 1295 1301 1327
f 1325 1326 1330
f 1326 1331 1330
f 1300 1325 1330
f 1300 1330 1308
f 1330 1331 1309
f 1330 1309 1308
f 1326 1327 1331
f 1327 1332 1331
f 1331 1332 1310
f 1331 1310 1309
f 1301 1302 1327
f 1302 1328 1327
f 1327 1328 1332
f 1328 1333 1332
f 1302 1303 1328
f 1303 1329 1328
f 1328 1329 1333
f 1329 1334 1333
f 1333 1334 1312
f 1333 1312 1311
f 1303 1334 1329
f 1303 1312 1334
f 1332 1333 1335
f 1333 1336 1335
f 1310 1332 1335
f 1310 1335 1317
f 1335 1336 1318
f 1335 1318 1317
f 1311 1336 1333
f 1311 1318 1336