v -97.779488 133.010040 400.865753
v -97.472137 133.271332 401.181732
v -98.001045 133.218246 402.041931
v -98.880638 132.018799 400.997772
v -97.883789 133.162033 400.908447
v -98.202599 133.507690 401.703094
v -97.574356 132.424149 400.721619
v -97.423447 132.741928 401.164032
v -98.132904 132.320465 402.005096
v -97.052643 130.408722 394.296112
v -97.148895 130.139160 394.804810
v -97.655403 132.750122 400.687592
v -97.951187 132.897064 401.347839
v -98.444420 132.661011 402.209106
v -96.861855 130.001450 391.161682
v -96.876045 130.123672 392.072205
v -96.989090 130.169769 392.838623
v -97.215622 130.257339 393.773193
v -97.266754 130.142853 394.513062
v -97.548805 129.468918 390.225586
v -97.198334 129.569077 390.858002
v -97.369186 130.013763 391.915771
v -97.493340 130.065125 392.772156
v -97.716759 130.088898 393.679993
v -97.834076 129.558395 394.273590
v -98.042892 129.257751 390.133575
v -97.992805 129.641876 390.975037
v -98.020134 129.713913 391.811707
v -98.151245 129.672226 392.713593
v -98.237991 129.229294 393.423096
v -98.226479 129.095810 394.052551
v -98.939728 128.922302 390.226624
v -98.867386 129.347855 391.097626
v -98.807816 129.285294 391.876953
v -98.886879 129.231583 392.789032
v -98.826973 128.641098 393.282379
v -99.903778 128.546692 390.372101
v -99.622116 128.780228 391.055573
v -99.726677 128.780045 392.081696
v -99.709038 128.219025 392.730286
v -99.561935 128.069962 393.486847
v -101.121223 128.553375 390.220306
v -100.724380 127.855309 390.931458
v -100.727020 127.917465 392.044067
v -100.410431 127.628647 392.696564
v -102.179642 127.856728 391.186401
v -101.461113 127.453835 391.749878
v -104.972687 128.355545 390.457550
v -105.068031 127.749458 391.470947
v -105.446411 127.259483 392.504791
v -105.538788 126.459114 392.958282
v -106.075790 131.469360 389.242340
v -105.851372 127.476074 391.611176
v -105.902336 127.914314 392.285126
v -106.157112 126.845467 392.996063
v -107.033089 131.194046 390.042847
v -106.593170 127.852829 391.995483
v -106.618935 127.165039 392.551239
v -96.949158 129.946198 397.778503
v -96.909081 129.835373 398.086792
v -97.319649 130.036362 394.675842
v -97.411095 129.766251 394.666901
v -98.214325 128.976166 398.185028
v -97.204750 129.979019 397.837708
v -96.899467 129.690613 391.405212
v -96.716003 129.234573 391.565033
v -96.917053 129.572052 392.888489
v -96.958733 129.736481 393.746002
v -97.303108 129.531555 394.698059
v -97.517731 128.708862 395.614807
v -98.057777 128.398605 396.670776
v -97.426666 129.217545 390.402832
v -96.777878 129.164642 390.168762
v -97.452377 128.752274 391.564362
v -97.861862 128.885254 394.638458
v -98.290550 128.522949 395.521576
v -98.059975 128.406754 396.171356
v -97.699341 128.993027 390.156982
v -98.149696 128.383469 390.776367
v -98.378235 128.132538 394.052917
v -98.540733 127.819504 394.464478
v -98.480942 127.662560 395.037354
v -98.631851 128.188919 390.148499
v -99.043945 127.942337 390.885162
v -98.850784 127.812050 393.824158
v -99.168663 126.948936 394.438690
v -99.468750 128.144699 390.065369
v -100.227226 127.318993 390.788879
v -99.914429 127.031364 393.481354
v -99.876030 126.703056 393.791718
v -99.760231 126.329224 394.337799
v -100.352318 128.169052 390.557434
v -100.908836 127.089127 391.038971
v -100.819023 126.743645 392.560913
v -100.667915 126.771667 393.077972
v -100.772949 125.905975 393.609985
v -101.845909 126.443573 391.232269
v -101.735092 126.761040 392.354462
v -101.697578 125.962700 392.894257
v -101.409203 125.446487 393.509460
v -103.062080 125.830994 390.771210
v -102.638191 125.666710 391.865295
v -102.402565 125.368370 392.552124
v -104.095093 125.074532 392.335052
v -104.087158 124.672440 392.804779
v -105.136658 126.778053 391.504425
v -104.283966 125.152901 392.539856
v -104.990761 126.871513 390.767029
v -104.996330 126.420883 391.586700
v -105.282516 125.958839 392.543762
v -105.726295 125.089920 393.229797
v -105.335838 127.597084 390.626801
v -106.013985 126.095352 391.379181
v -106.332451 125.319542 393.674866
v -106.926239 124.773804 394.144745
v -106.483337 127.129623 391.625122
v -106.848343 125.857536 392.330902
v -106.967827 125.215897 393.353424
v -107.117310 124.955315 393.903717
v -96.783791 129.569946 397.897552
v -97.042175 129.260162 398.050171
v -96.788811 129.917038 397.810120
v -97.239365 129.689468 398.050812
v -97.157562 128.762955 392.368805
v -96.994095 128.603439 392.723694
v -97.257118 128.220001 393.640472
v -97.525032 127.917618 394.755554
v -97.439484 127.959702 395.665710
v -97.923454 127.798355 396.317352
v -97.616180 128.390488 391.362488
v -97.223343 128.252045 391.434387
v -97.584694 127.877464 392.675293
v -98.126671 127.526024 393.390594
v -97.866257 126.962395 394.646545
v -98.233566 127.648056 395.745880
v -98.180298 128.048386 396.519287
v -97.975403 127.697067 390.843658
v -98.286827 127.032730 391.423401
v -98.774879 126.453606 394.696198
v -98.525276 127.295815 395.148315
v -99.048103 127.355644 390.383087
v -99.002380 127.039841 390.785248
v -99.226234 125.729134 394.377167
v -99.402039 126.832802 389.868927
v -99.889442 126.745346 390.736328
v -100.155167 125.047340 393.977448
v -99.872215 125.249702 394.486267
v -101.171173 126.012886 390.187958
v -100.657967 125.991661 390.686188
v -100.737518 124.859039 393.471100
v -101.849594 124.663841 390.112946
v -101.620911 125.779610 390.804779
v -102.022385 124.410324 393.044617
v -101.626083 124.590660 393.521271
v -103.046776 125.275421 389.624878
v -102.679520 124.398834 390.378021
v -103.046097 124.742241 392.088226
v -102.840286 124.466537 392.860168
v -103.669235 124.134460 391.083496
v -103.626167 124.766685 391.996765
v -103.880890 124.002235 392.705994
v -104.845222 125.472794 390.612030
v -104.357056 124.502281 392.062775
v -104.306076 124.096176 392.450714
v -104.967728 126.507401 390.402161
v -105.281471 125.153358 391.628143
v -105.587585 124.783241 392.588745
v -105.519539 124.845413 392.726654
v -105.390396 125.850998 390.908051
v -105.897507 124.835243 391.718384
v -106.236267 124.157204 392.507080
v -106.267433 124.408478 393.622620
v -106.755775 124.749702 394.069092
v -106.520103 125.199478 391.898132
v -106.712296 124.238441 392.588348
v -107.050850 124.378090 393.672607
v -107.149689 125.395363 394.277618
v -113.936272 131.048431 411.249207
v -113.868019 131.008377 411.525757
v -114.322830 128.752335 410.675751
v -114.055717 131.070328 411.276611
v -97.818985 127.524963 394.200531
v -97.962883 127.042587 394.309570
v -97.885834 127.115639 392.132782
v -98.107048 126.332954 392.529938
v -97.879303 126.584419 393.525452
v -98.222183 126.348244 394.291504
v -98.528893 125.395500 394.495239
v -98.543709 126.087051 391.088776
v -98.276199 126.330231 391.654877
v -98.664810 125.617958 392.118500
v -98.791145 125.664688 394.667969
v -98.981514 125.142540 394.820160
v -98.933640 125.884933 390.683014
v -99.433563 124.720879 394.737061
v -99.705925 124.164772 395.177399
v -99.963280 125.849411 390.323639
v -99.958740 125.399727 390.899536
v -100.308701 123.914444 394.161438
v -100.505493 124.159668 394.696533
v -100.207092 123.448822 395.034607
v -100.386391 125.916092 390.232452
v -100.991852 124.641518 390.545197
v -100.967827 123.788742 393.829803
v -101.176575 123.006454 394.253143
v -101.769829 124.866707 390.309387
v -101.819450 124.526054 390.929596
v -101.953079 123.409241 392.913086
v -101.998940 123.648872 393.505463
v -101.677536 122.925629 393.941742
v -102.126671 124.413956 390.058746
v -102.673630 123.581467 390.571869
v -102.778740 123.200317 392.764862
v -102.885277 122.402634 393.003815
v -103.312424 123.603745 390.927399
v -103.814491 122.768532 391.521545
v -103.643478 122.989395 392.599426
v -103.808784 122.091125 392.979584
v -103.910774 123.766617 391.310608
v -104.219330 123.166397 391.807220
v -104.827637 122.740974 392.665558
v -104.670319 122.273979 393.033325
v -105.999207 123.455795 392.292389
v -105.319138 122.697556 393.096985
v -111.913521 126.665680 407.648560
v -111.844612 127.951797 408.522125
v -112.262466 129.130768 409.960052
v -112.678322 129.761459 411.076569
v -112.961388 129.303604 411.557709
v -112.666290 124.449020 406.908203
v -112.146492 127.760521 408.155823
v -113.078606 129.327927 410.223175
v -113.296684 130.887939 411.240784
v -113.572655 130.351242 411.723816
v -114.051079 127.412804 409.999359
v -113.970375 130.360382 411.128143
v -114.167854 130.499832 411.661072
v -98.230049 125.586456 392.730103
v -98.275002 124.800659 392.955658
v -98.689056 124.854065 394.164703
v -98.872124 125.121368 394.609985
v -98.795601 125.147469 391.201050
v -98.667122 124.973473 391.308441
v -98.699043 124.830833 392.012939
v -99.090485 124.276619 392.767670
v -99.042755 124.678215 394.162354
v -99.463730 124.847115 394.982300
v -99.438423 123.742470 395.083008
v -98.976250 124.683128 390.758881
v -99.478485 123.964928 391.203705
v -99.747314 123.750603 391.958252
v -99.699921 123.737816 395.157379
v -99.901718 123.277283 395.470001
v -99.909698 123.986885 390.782440
v -100.401161 123.111008 391.117523
v -100.671944 122.780800 394.955750
v -100.693321 123.092079 395.321533
v -100.617104 122.771042 395.731415
v -100.912186 123.368309 390.451721
v -101.264420 122.467644 394.591431
v -101.458206 121.886528 395.003418
v -101.719093 122.994301 390.510345
v -102.148476 122.309494 393.644379
v -102.143608 122.591331 394.443481
v -102.326347 121.754280 394.959229
v -102.464912 122.821289 390.740265
v -103.078651 121.897682 391.394318
v -102.913620 121.860558 393.386871
v -103.070763 121.629234 394.217987
v -103.169800 121.475281 394.844818
v -103.144104 122.891701 391.198761
v -103.685715 122.029282 391.687347
v -103.910889 121.135376 393.451477
v -103.800453 120.846687 393.787170
v -103.760384 120.908318 394.260010
v -104.185623 122.191605 391.914185
v -104.565720 121.359428 392.346954
v -104.805679 121.290657 393.411133
v -105.083153 122.254250 392.818481
v -105.102463 122.163376 393.315704
v -111.638870 125.643616 407.713959
v -111.684196 127.423775 408.467987
v -112.127151 128.408493 409.842407
v -112.516747 128.885895 410.925018
v -112.915932 127.492867 411.426575
v -111.846863 126.926064 407.710541
v -112.277931 127.900650 408.931427
v -112.792557 128.521362 410.129456
v -113.230927 128.580368 410.944916
v -113.439896 129.127975 411.529724
v -113.649834 129.184937 410.517212
v -114.000961 129.357315 411.304596
v -114.041168 128.511856 411.728729
v -98.722649 124.171593 393.585724
v -98.887978 123.890587 393.665253
v -99.036194 123.362122 392.102509
v -99.042328 123.528992 393.082245
v -99.075256 123.663010 393.588440
v -99.032860 123.536034 394.315430
v -99.632126 123.365280 395.597717
v -99.704300 123.005547 395.713715
v -99.835403 122.738312 391.414276
v -99.441483 123.173470 391.763184
v -99.991135 123.048958 395.768463
v -100.180801 122.763298 395.978424
v -100.515419 122.138618 390.799561
v -100.179916 122.435905 390.903473
v -101.062759 121.910751 395.616089
v -100.892326 122.237038 395.803436
v -100.851791 122.271004 396.056488
v -104.229561 127.039307 407.579620
v -104.437248 126.682236 408.218994
v -100.939819 121.906517 390.301025
v -101.504173 121.406609 395.221649
v -101.706757 120.913864 395.516907
v -104.822823 127.178284 407.419006
v -104.935074 127.121239 408.084137
v -101.730476 121.687561 390.445435
v -102.354637 121.169380 395.255737
v -102.490166 120.597488 395.513092
v -106.019157 125.425781 407.906769
v -105.237671 126.848297 407.936218
v -102.412643 121.758339 390.835846
v -103.023033 120.801682 391.418884
v -103.211845 120.946724 395.262054
v -103.359985 120.415108 395.602600
v -103.585007 121.168938 391.881927
v -104.182442 120.276779 392.518188
v -104.264107 120.192596 393.601898
v -104.294746 119.941780 394.278503
v -103.933990 120.416267 394.818207
v -103.979630 120.131783 395.357880
v -104.210609 121.419235 392.318665
v -104.517159 120.612747 392.712677
v -104.707436 119.815643 393.373169
v -104.708244 119.364754 393.718262
v -109.033669 123.423271 405.187286
v -108.901558 123.669014 405.936371
v -109.294914 124.110352 407.246155
v -109.731842 124.235184 408.108459
v -109.962448 122.166718 405.001221
v -109.236877 123.593643 405.633759
v -109.512749 124.006371 406.870117
v -109.909294 124.441574 407.888336
v -112.225899 124.299232 408.710785
v -112.002121 125.019478 409.321503
v -112.366570 124.528236 409.862427
v -112.839027 121.772537 408.304443
v -112.306267 124.950592 409.022247
v -112.560760 125.091721 409.641937
v -99.443527 122.601173 392.506195
v -99.180649 122.564392 392.645233
v -99.710411 122.298363 393.717957
v -99.261604 122.408089 394.449615
v -99.363503 122.483757 395.183929
v -99.846825 122.289429 396.159119
v -100.050980 122.257103 397.118652
v -100.193062 122.268585 398.143951
v -101.648842 125.409378 404.215454
v -101.766205 126.080109 405.523987
v -102.461227 125.916542 407.521851
v -102.950623 125.945419 409.152069
v -103.476768 126.087456 410.705872
v -104.005508 125.836357 411.923492
v -104.504906 125.475571 412.944824
v -104.881416 124.582870 413.614014
v -100.000443 122.150253 391.587677
v -99.714073 122.070763 391.629639
v -99.796638 121.762932 392.827087
v -100.215118 121.405685 393.364380
v -100.194855 122.352257 396.112976
v -100.488716 122.275276 396.875641
v -100.843071 122.387909 397.914886
v -102.707214 124.353508 404.544525
v -102.386055 126.152893 405.117218
v -102.925560 126.647682 407.022064
v -103.633583 126.355400 408.900543
v -104.162857 126.451057 410.552063
v -104.666176 126.455849 411.851624
v -105.143723 125.942642 412.928650
v -105.482567 125.617569 413.643951
v -100.615097 121.493561 390.814514
v -100.454758 121.650162 390.931824
v -100.633400 121.140556 391.657471
v -101.335304 121.364395 396.091492
v -100.941963 121.697350 396.145752
v -101.142014 121.636070 396.689941
v -101.300354 122.256660 397.757477
v -103.460831 126.146950 405.761169
v -103.545692 126.973259 406.936157
v -104.408424 126.828796 408.550323
v -104.970482 126.532738 410.350067
v -105.503372 126.525414 411.470123
v -105.654930 126.308228 412.703522
v -105.972847 125.250732 413.552490
v -100.899307 121.057045 390.517578
v -101.410652 120.301437 390.886810
v -101.738945 120.603188 395.781433
v -101.925728 120.622215 396.232361
v -101.908691 120.668137 396.522949
v -104.643196 124.673767 406.299500
v -104.311531 126.398010 406.630127
v -105.230492 126.828354 409.038300
v -105.784492 126.357651 410.046509
v -105.665306 126.175583 411.121582
v -101.666115 120.796654 390.710907
v -102.257248 120.060760 391.310120
v -102.502129 120.159721 395.723999
v -102.664810 120.151108 396.268433
v -102.786247 120.237335 396.730530
v -105.313026 126.494225 407.452698
v -105.745270 126.655815 408.632965
v -105.954659 125.813614 409.723328
v -102.372688 120.798691 390.948486
v -102.971046 119.899483 391.483093
v -103.292290 119.838646 395.680695
v -103.516449 119.599274 396.185394
v -103.419952 119.902924 396.774200
v -106.752884 124.553497 408.052338
v -106.052460 125.835045 408.136993
v -104.196930 119.956085 392.227783
v -104.746468 120.411385 392.689514
v -104.302139 119.140533 394.323700
v -104.342987 119.382866 395.208252
v -104.217339 119.656326 395.644897
v -104.254791 119.206703 396.142487
v -105.349022 119.799919 392.148834
v -104.812393 119.333733 392.823425
v -105.280968 118.539276 393.753571
v -104.984123 118.784500 394.279053
v -105.019890 118.878769 395.095490
v -105.057472 119.164307 395.835938
v -105.328888 119.412712 396.645874
v -105.713829 118.847595 397.166931
v -106.805664 117.470940 394.797089
v -105.696609 118.213844 394.220673
v -105.710922 118.402954 394.921967
v -105.797997 118.719284 395.798889
v -105.863899 119.008324 396.575806
v -106.045250 118.989937 397.158051
v -108.794617 122.879684 404.992432
v -108.793846 123.244270 405.957214
v -109.299683 123.657410 407.337067
v -109.897491 122.719528 408.263947
v -109.069450 123.270714 405.310944
v -109.273521 123.381416 406.325684
v -109.859085 123.877258 407.720490
v -110.158951 123.032410 408.539185
v -111.945351 123.259270 408.959259
v -111.884010 124.524727 409.293823
v -112.374336 122.995316 409.921173
v -112.086891 124.548157 408.776978
v -112.361923 124.727272 409.549622
v -112.589470 123.315842 410.126556
v -99.727280 121.115616 394.022156
v -99.944862 121.038834 394.675751
v -99.590187 121.236115 395.388214
v -99.768745 121.383446 396.283508
v -99.956734 121.574104 397.285583
v -100.212776 121.926918 398.654388
v -100.464844 123.193001 400.636597
v -100.751160 124.757233 403.489929
v -101.442207 124.847221 405.936981
v -102.096458 124.916245 407.920074
v -102.762306 125.351997 409.145752
v -103.371407 125.336571 410.855652
v -103.821518 125.340874 412.005249
v -104.369240 124.869827 413.010651
v -104.852783 123.654190 413.562134
v -100.197456 121.170250 392.187317
v -100.417923 120.873528 392.882294
v -100.217979 120.973785 393.797607
v -100.497108 119.811592 394.380798
v -100.906357 122.409393 398.777283
v -101.129570 123.196190 400.403656
v -101.592880 124.904404 403.386139
v -103.014481 124.018845 404.760376
v -103.674500 123.371445 410.347626
v -103.879585 124.963699 411.015747
v -104.396446 125.429443 412.218597
v -104.885437 124.978149 413.076660
v -105.379486 124.438248 413.545898
v -100.924736 120.711334 391.762756
v -100.725304 120.616600 391.902130
v -100.939903 119.892868 392.625885
v -101.711601 121.508263 397.812683
v -101.518593 121.791962 398.417328
v -102.050598 122.635719 400.335083
v -102.418274 124.157539 402.682892
v -102.597786 125.348534 404.380615
v -105.611374 124.822365 411.656769
v -105.678162 126.115860 412.029297
v -106.106331 125.617157 413.181061
v -106.187164 125.032234 413.815857
v -101.101303 120.167610 391.111664
v -101.693840 119.480049 391.769470
v -102.087288 120.596039 397.248596
v -102.394615 120.991463 398.401306
v -102.808189 122.089561 400.243317
v -103.372520 123.540466 402.776184
v -103.914772 125.255768 405.326813
v -104.965012 124.214546 406.596680
v -105.899979 124.689682 410.318695
v -105.976448 125.974525 410.664429
v -105.855446 125.910469 411.793732
v -101.982529 119.867485 391.653259
v -102.544144 119.113548 392.028564
v -102.805222 120.038399 397.063507
v -103.123131 120.363762 398.130493
v -103.577103 121.377151 399.917755
v -104.202423 122.968132 402.475433
v -104.567764 124.340378 405.062531
v -104.602394 125.363174 406.432281
v -106.389923 125.534081 409.618591
v -106.116982 125.518044 410.456879
v -102.790817 119.595207 391.820587
v -103.401962 118.719200 392.240875
v -103.758011 119.285202 396.762787
v -103.641037 119.575851 397.060272
v -103.756187 119.774956 397.849609
v -104.017021 120.167961 399.184418
v -104.508781 121.858597 401.528168
v -105.265434 123.520508 404.670380
v -105.837372 125.163651 407.059326
v -106.325256 125.164200 408.584167
v -103.586395 119.161293 391.893677
v -104.431763 118.271667 392.665955
v -104.304115 118.839333 396.510498
v -104.409470 118.797890 396.951599
v -104.571289 119.391052 397.860504
v -104.834381 120.002892 399.324860
v -105.591827 120.596817 401.050476
v -106.319763 120.783539 402.528778
v -104.437706 118.984436 392.267212
v -104.849190 118.106415 392.803955
v -105.423904 117.340546 393.443909
v -105.029160 119.039513 396.799164
v -105.069305 118.422104 396.936188
v -105.251884 118.779434 397.813080
v -105.804413 119.928459 399.566437
v -106.323753 120.839745 401.376740
v -106.885307 121.185989 402.753998
v -105.784126 117.773468 393.981201
v -105.943130 117.225746 394.303406
v -106.016808 117.410614 395.164825
v -106.108490 117.787224 396.078461
v -106.163910 117.958412 396.650452
v -105.625916 117.799263 396.706512
v -106.127296 117.901726 398.111084
v -106.579018 119.407944 399.614441
v -107.340042 120.564987 401.627197
v -107.904137 121.022430 403.080505
v -108.420555 118.162735 399.974701
v -107.385681 118.950912 399.725555
v -107.941360 119.888588 401.437103
v -108.370018 120.404541 402.927216
v -100.011917 119.580887 395.285126
v -100.055679 120.110931 395.589783
v -100.195839 120.340302 396.349548
v -100.161713 120.617302 397.039398
v -100.220367 121.162643 398.790009
v -100.472008 121.858475 401.227631
v -100.980438 122.864449 403.923767
v -101.644127 123.319626 406.498535
v -102.269432 123.635689 408.228760
v -102.992065 122.245049 409.284515
v -104.064697 123.330132 412.742615
v -104.371872 123.564285 413.243042
v -104.753418 123.357681 413.916199
v -104.970200 122.967216 414.424744
v -100.534309 119.644043 393.318115
v -100.590187 119.796242 393.763947
v -100.583450 119.885941 394.712433
v -100.887611 119.496811 395.402863
v -101.074638 119.649338 396.316956
v -101.003815 120.108879 397.306824
v -101.055061 120.340729 399.533447
v -101.149635 121.441582 401.541809
v -101.636314 122.653305 404.139862
v -102.408813 123.176781 406.755005
v -103.026886 123.642319 408.418762
v -103.520988 124.902184 409.575897
v -104.290573 125.369011 411.210480
v -104.681908 124.687752 412.351837
v -104.871361 124.464729 413.196198
v -105.386238 123.580345 413.605377
v -105.788643 122.964302 414.350403
v -106.354637 122.776184 415.039093
v -101.185982 119.572472 392.635040
v -101.045067 119.714264 392.945740
v -101.464447 119.119102 393.604401
v -101.479897 119.160995 394.890167
v -101.687691 118.857002 395.613281
v -101.796715 118.155281 396.204651
v -101.845741 118.198189 398.969757
v -101.738853 120.657402 399.252777
v -101.761375 122.838638 401.241669
v -102.569603 123.360069 403.957947
v -103.409683 123.574913 406.760223
v -104.007935 124.153984 408.518219
v -104.566475 124.971886 410.002930
v -105.165237 125.400124 411.333496
v -105.762161 124.732895 412.540039
v -106.397476 124.443291 413.430939
v -106.312172 123.685616 413.726013
v -106.628159 123.020370 414.163910
v -106.647827 123.148941 414.995575
v -101.363480 119.260002 392.026154
v -102.107063 118.899017 393.072571
v -102.156967 117.992599 393.735107
v -103.173599 120.582764 399.588531
v -102.663048 121.787521 400.807770
v -103.604637 123.000023 403.815857
v -104.399086 123.593544 406.593933
v -104.987000 124.189278 408.523499
v -105.522888 124.982140 409.900391
v -105.442886 124.535301 410.984039
v -106.921432 122.595329 412.980133
v -107.033028 123.706444 413.248474
v -107.255188 123.375900 413.899048
v -107.215538 123.195107 414.436798
v -102.273819 118.935585 392.355560
v -102.906693 118.105156 392.796967
v -103.545158 120.164940 399.378540
v -103.710091 121.312294 400.686066
v -104.403091 122.428909 403.374420
v -105.222771 123.442039 406.361816
v -105.791924 123.977432 408.330017
v -106.082191 124.257034 409.230255
v -108.203934 121.157166 413.639099
v -107.649734 123.142403 413.871521
v -103.526001 118.188026 392.638428
v -103.625420 117.322510 393.246674
v -104.129372 119.059425 398.622314
v -104.084915 120.015511 399.962280
v -105.031609 122.551537 403.650482
v -105.726509 123.763657 406.504120
v -106.358620 124.181511 408.347565
v -106.565033 123.546272 409.191803
v -104.219391 117.458420 392.409271
v -105.229164 116.820831 397.291260
v -104.511086 117.736710 397.668610
v -104.506714 119.043762 399.120209
v -105.696655 120.109619 401.026001
v -106.555878 120.121925 402.694366
v -105.066338 117.427605 393.126282
v -105.644112 116.305115 393.552765
v -105.047668 116.507622 396.465515
v -105.008537 117.558182 397.224792
v -105.747009 118.694214 399.298462
v -106.513329 119.637581 401.397736
v -106.949852 120.570747 402.785522
v -105.873466 116.529274 393.791168
v -106.296593 115.499359 394.785645
v -106.154457 116.257065 395.338593
v -106.361420 116.738144 396.311707
v -106.135674 116.683174 396.446167
v -105.567444 115.918312 396.434998
v -105.900139 117.495209 397.795471
v -106.842262 118.515839 399.914490
v -107.388092 119.499619 401.847717
v -107.841637 120.477943 403.167450
v -107.969147 112.133080 396.211517
v -107.087814 115.109779 395.886047
v -106.971901 115.896935 396.277374
v -107.159233 116.167007 397.052979
v -106.874016 115.803322 397.015839
v -107.136475 118.368759 399.167542
v -107.705322 119.014244 400.743225
v -108.413994 119.929260 402.639069
v -108.721741 120.131050 403.510132
v -109.245506 110.856262 397.642853
v -107.894287 114.584076 396.805298
v -107.989182 114.842545 397.572083
v -107.937820 114.291000 398.021240
v -103.875786 122.489426 412.718658
v -103.986252 122.530724 413.347229
v -104.410873 122.559860 414.038910
v -104.970917 121.917953 414.480896
v -101.350677 118.041626 397.218506
v -101.418976 119.675797 397.265137
v -101.550804 119.874100 400.093170
v -101.944481 119.759506 402.572632
v -102.890404 116.147530 404.928772
v -104.599121 123.138649 412.578552
v -105.849747 121.800972 414.450348
v -106.342239 121.907372 415.188690
v -101.736305 117.726158 394.507568
v -101.881897 118.075447 394.749542
v -102.150909 117.852776 395.624176
v -101.715256 118.473930 396.082642
v -101.897400 118.847412 396.559937
v -101.851181 121.167885 398.792694
v -101.872513 122.310699 401.233551
v -102.791039 117.762604 404.040588
v -105.642914 123.709427 412.797028
v -106.325310 122.381836 413.290100
v -106.775833 121.877739 414.393005
v -107.047279 121.521172 414.879517
v -102.398834 117.558479 393.587097
v -102.456833 117.342957 393.971130
v -102.488853 117.178093 394.869263
v -102.705521 115.728958 395.524567
v -102.391884 117.419838 397.988068
v -102.302216 119.938896 398.716278
v -102.619133 120.315201 400.077026
v -106.484482 123.739616 413.070526
v -107.108299 122.732079 413.579254
v -107.679802 122.611588 414.455048
v -107.559746 121.788193 414.276703
v -107.551414 121.713753 414.989899
v -102.894112 117.365028 393.241547
v -103.131035 115.946907 393.700592
v -103.356148 118.786713 398.488525
v -103.258247 119.084503 399.514923
v -107.688736 122.849747 413.770386
v -107.902908 122.228271 413.968994
v -108.100357 121.881752 414.501740
v -103.767036 116.695900 392.925262
v -103.820732 116.607086 393.003143
v -104.235977 118.014778 398.249969
v -104.437263 116.267838 392.625031
v -104.469841 115.124298 393.193237
v -104.473778 115.773895 396.346558
v -104.575424 117.022537 397.378326
v -105.091942 116.205391 392.837463
v -105.739433 114.949623 393.474365
v -105.176826 115.409729 396.592316
v -105.965759 114.877708 397.740967
v -106.083755 115.161293 393.864746
v -106.616760 113.869896 394.704071
v -105.402397 114.436806 396.188232
v -106.035217 114.861938 397.356598
v -106.927719 114.421539 395.141541
v -107.420059 113.481544 395.946381
v -106.663078 114.753464 397.050293
v -107.968552 114.098831 399.074066
v -107.893219 113.816063 396.529846
v -108.125595 113.324730 397.169586
v -108.234016 113.673096 397.931030
v -107.857941 114.641304 397.832977
v -108.008949 114.243065 398.750671
v -103.688828 119.625847 413.035339
v -104.263428 121.332588 413.294830
v -104.442856 121.353264 414.122772
v -105.075546 120.737190 414.704285
v -105.624855 119.657539 415.414642
v -101.792114 115.549965 399.816132
v -101.633598 118.706833 400.733887
v -102.128143 117.887650 403.248413
v -103.041389 113.537086 404.949280
v -104.409698 121.906281 412.956665
v -105.261497 121.363411 413.545410
v -105.851364 121.072128 414.680115
v -106.211220 120.307358 415.213867
v -102.167130 116.106850 396.153870
v -102.115547 117.364555 396.009155
v -101.854881 118.787773 397.273376
v -101.793419 119.365547 400.527832
v -102.575432 118.185074 403.517700
v -103.345863 113.986786 405.273651
v -105.401299 122.264732 413.128601
v -106.220711 121.191101 413.695251
v -106.364220 121.382256 414.713684
v -107.068092 120.345848 415.011383
v -102.710258 115.361938 394.268311
v -103.021065 115.813530 394.782471
v -102.718422 116.246857 395.702484
v -102.552452 116.015198 395.938751
v -102.596970 116.074547 396.450043
v -102.460197 117.862106 398.016235
v -103.536415 116.564720 400.722290
v -107.099579 121.290352 413.793365
v -107.986359 120.924675 414.838654
v -107.876122 120.119568 415.044769
v -103.445038 115.686066 393.802765
v -103.274704 115.632378 393.967987
v -103.501801 113.733810 394.721222
v -103.275330 115.193611 396.689056
v -103.564384 116.987740 398.487915
v -103.809448 117.165291 401.086792
v -107.729401 121.551941 413.794617
v -108.336021 120.452065 414.090729
v -108.460258 120.270950 414.512817
v -108.583214 119.828651 415.116241
v -103.788940 115.206741 393.063904
v -104.078758 113.744896 393.906128
v -104.001015 114.531013 396.484375
v -104.038063 116.446358 397.477020
v -109.409645 118.148567 414.387512
v -108.931076 120.185349 414.589294
v -104.707916 114.664131 393.233429
v -104.708328 114.660774 393.117950
v -104.304604 114.222649 396.185852
v -104.823631 116.365349 398.168518
v -105.074562 115.093712 392.900330
v -105.669380 113.773094 393.514648
v -105.778297 112.639687 396.467773
v -104.972931 112.945671 395.996094
v -105.888115 114.030159 397.613953
v -106.602692 113.457726 394.523590
v -107.512939 109.655830 396.028931
v -105.846428 112.870842 396.533905
v -105.801636 112.486488 396.330536
v -106.492241 114.462959 398.340149
v -108.152557 109.263145 395.687622
v -107.745369 112.779060 395.750580
v -108.654358 108.311310 397.256226
v -106.819992 113.307060 397.190704
v -108.142830 113.232002 399.336548
v -109.275864 107.413902 397.004608
v -108.037186 113.140205 396.612335
v -108.281120 112.386253 397.428986
v -108.156776 113.035866 397.837067
v -108.153000 113.530602 398.349762
v -108.728989 112.952187 400.057922
v -104.064667 120.385010 413.901917
v -104.864418 119.766403 414.144318
v -105.364128 118.984413 414.932770
v -105.712242 117.999718 415.513275
v -105.258812 120.040504 413.681030
v -105.127945 119.020638 414.281158
v -105.925819 117.997314 415.347473
v -106.440704 118.353371 415.424347
v -106.199295 119.844986 413.839417
v -107.099472 118.885506 415.275665
v -103.048447 113.186089 395.268311
v -103.079590 113.995430 395.755859
v -102.992920 113.995178 396.362305
v -103.399292 111.706253 397.359314
v -107.139366 119.582520 413.867462
v -107.843712 118.827049 415.163757
v -103.719627 113.243843 394.600922
v -103.652496 113.997002 395.031799
v -103.477135 112.404938 395.794342
v -103.736084 112.808929 396.607422
v -103.392014 113.669174 396.569580
v -107.784973 119.887329 413.889771
v -108.391502 118.697937 414.151031
v -108.888123 118.985344 414.963379
v -108.653191 118.407127 415.171082
v -104.334984 113.389587 393.773041
v -103.926964 113.790024 394.053009
v -104.285538 111.269325 394.830963
v -104.438118 111.142838 397.097046
v -104.220505 113.218086 396.593384
v -108.883957 119.228119 414.381744
v -109.169151 118.741661 414.664673
v -109.384048 118.130829 415.221100
v -104.721214 113.018898 393.279266
v -105.238190 111.572754 396.236603
v -104.460358 112.441841 395.635590
v -105.663345 112.777130 393.791534
v -104.869858 111.858940 395.365356
v -104.814011 111.915398 395.666565
v -106.487701 112.302368 394.186401
v -105.996918 112.010292 395.996704
v -105.643402 111.512955 395.951904
v -107.163147 111.994965 394.729797
v -107.675919 111.408768 395.641083
v -107.088577 111.862289 397.229187
v -107.127892 112.082802 397.132599
v -108.102409 111.499512 396.233215
v -108.408058 111.514389 397.091614
v -108.474159 111.723961 397.910919
v -108.300652 112.262657 398.232941
v -107.769798 112.153755 397.934052
v -104.894325 118.237183 414.774017
v -105.224770 117.779793 414.961182
v -105.388557 118.536705 414.223755
v -105.958466 117.528786 414.520660
v -106.011818 117.232574 414.938354
v -106.493996 116.523575 415.337250
v -106.402878 117.905663 413.853394
v -106.360168 116.682854 414.411835
v -107.128296 117.070671 415.388367
v -107.165375 117.840065 413.935120
v -107.966026 117.171562 415.312073
v -103.897118 110.898758 395.603333
v -103.857758 111.426941 396.272614
v -104.179832 109.694305 396.795166
v -107.836639 118.038872 414.055023
v -108.410202 116.891365 414.332642
v -108.717430 117.054245 415.280273
v -104.396309 111.192383 394.282745
v -104.475700 111.900612 394.513428
v -104.258041 112.243362 395.035370
v -104.399498 110.921837 396.194214
v -104.183762 111.803711 396.080994
v -104.869408 110.910683 397.044739
v -108.867943 117.596382 414.389893
v -109.294960 117.029030 414.783081
v -109.287529 117.012680 415.214844
v -104.775543 111.507034 393.628876
v -104.878204 110.616180 394.469360
v -105.004715 110.714737 395.587311
v -104.865128 110.824295 395.872955
v -105.228081 111.481270 396.319763
v -105.010162 111.486588 397.106720
v -105.697510 111.359306 393.921692
v -105.500992 111.126122 396.035675
v -105.946724 111.684837 397.185944
v -106.543518 111.045074 394.322296
v -106.312180 111.030403 396.553955
v -106.705086 111.281487 397.379639
v -107.304787 111.267090 395.026184
v -108.124649 110.386909 396.179596
v -106.876030 111.652908 397.244202
v -107.465088 111.166946 397.875427
v -108.431168 111.117500 396.675568
v -109.295540 111.043938 397.949982
v -108.861809 111.137215 398.542999
v -108.808144 111.581467 398.976562
v -108.578568 111.481865 398.862488
v -110.262154 109.589432 398.740204
v -109.837242 110.522308 399.069427
v -109.804741 111.007294 399.640778
v -109.822662 111.145760 400.092346
v -112.197258 104.583450 399.698151
v -110.723648 109.591812 399.301300
v -110.682610 110.335785 399.940643
v -110.650414 110.271271 400.315674
v -106.102303 114.082245 414.207397
v -105.981148 115.016907 414.425232
v -106.086891 114.827362 414.988556
v -106.542641 114.103371 415.434509
v -106.550041 115.219070 414.129028
v -106.190842 116.135841 414.430389
v -107.182190 115.120430 415.503876
v -107.394829 114.959541 413.756073
v -107.093788 115.855240 413.819305
v -107.994804 115.495987 415.365906
v -107.995041 112.549782 412.962524
v -107.737221 115.793335 413.794678
v -108.394844 115.321739 414.416840
v -108.737091 115.559616 415.328339
v -108.890518 116.018288 414.456329
v -109.273727 115.701088 414.769043
v -109.281479 115.678329 415.219788
v -105.235390 109.846619 394.185730
v -105.133041 109.920876 395.015778
v -105.219925 110.049156 395.941284
v -105.188629 110.107002 396.357605
v -105.586975 109.883301 397.198578
v -105.766068 109.878372 394.009583
v -105.962532 110.210068 397.048431
v -106.731323 109.772774 394.489227
v -107.152367 110.621368 397.761047
v -107.655098 110.740288 398.736725
v -108.000549 109.836891 395.371521
v -109.227097 108.543800 397.119202
v -108.369736 110.314896 399.129333
v -108.322968 110.755524 399.296204
v -109.852638 107.948868 396.654907
v -109.060707 109.096474 396.862885
v -110.368332 106.120644 398.752655
v -110.091347 109.880577 399.784454
v -109.073669 110.786697 399.599976
v -111.090019 105.433037 398.467865
v -110.103104 109.512482 398.157684
v -110.360672 109.653679 400.153961
v -109.815186 110.711235 400.259827
v -110.690727 108.949539 398.850555
v -110.886635 109.336655 399.478363
v -110.924370 110.011597 400.300079
v -110.613098 110.504990 400.698517
v -105.911911 113.061546 414.253265
v -105.904121 111.950676 414.331238
v -106.053970 111.864075 414.849945
v -106.894318 111.955894 415.830750
v -106.074776 112.430962 413.520599
v -105.985466 112.120766 413.882050
v -106.387413 110.663818 414.245911
v -107.154900 111.395889 415.595428
v -107.002083 112.664864 415.496429
v -106.829453 113.823570 413.541290
v -106.607658 113.407166 413.816895
v -107.425262 113.434303 414.511383
v -107.984955 113.963448 415.461975
v -107.446426 114.374252 413.720245
v -107.745514 114.446915 414.273346
v -108.191582 114.053520 414.514526
v -109.160927 113.476013 415.203278
v -108.505257 114.068230 415.238434
v -108.839615 114.686417 414.452393
v -109.108421 114.364151 414.854248
v -109.501427 114.521523 415.646973
v -105.447044 108.285751 394.789825
v -105.536308 108.611717 395.110687
v -105.363541 109.030357 396.329376
v -105.954109 108.921646 397.359680
v -106.317078 108.712128 398.339874
v -105.946625 108.502068 394.515045
v -106.412529 107.714012 395.372253
v -106.745300 108.482994 398.059601
v -106.922012 109.294540 398.403473
v -106.877342 108.316917 394.625244
v -107.487213 109.438194 398.894470
v -108.472565 108.897896 400.338409
v -107.732597 108.435005 395.222473
v -108.341972 107.913788 396.307983
v -108.764732 108.026970 397.486755
v -108.383186 109.442245 399.148682
v -108.629372 109.428612 399.922668
v -108.504829 108.679512 395.906830
v -108.903488 108.482712 396.797058
v -109.284111 108.441460 397.828857
v -109.567093 108.693130 398.727814
v -109.483238 109.491211 399.783722
v -109.255119 110.047401 399.871033
v -109.565323 108.735924 397.351898
v -109.888687 108.462555 398.315155
v -110.004593 109.147469 399.063293
v -109.829269 109.884201 399.899780
v -110.735275 109.223320 400.616821
v -110.509338 108.622780 398.821289
v -110.861244 109.257759 400.195099
v -110.790993 109.597672 400.881744
v -110.912018 109.846306 401.427948
v -111.909622 109.246567 402.592010
v -112.309006 109.558434 403.969635
v -112.594643 110.020233 405.339691
v -112.880913 110.448814 406.580139
v -113.264420 109.873100 407.066498
v -112.616409 105.382202 400.776398
v -111.766289 109.272301 401.331390
v -111.872223 109.484299 401.686401
v -112.234779 109.622971 402.602783
v -112.671722 109.710960 403.782684
v -112.984146 109.635635 405.188568
v -113.161377 110.039291 406.126617
v -113.531586 109.935242 406.770233
v -113.558914 105.553909 401.719238
v -112.704956 109.166435 401.905762
v -112.827820 109.292610 402.654449
v -113.108841 109.169624 403.560333
v -113.543465 109.106300 404.280029
v -105.212227 108.478790 412.787109
v -105.146553 109.302155 413.242950
v -105.283546 110.146683 414.153809
v -105.725365 110.393806 414.522858
v -105.675560 110.175880 413.050446
v -105.704819 110.240715 413.686035
v -105.746384 110.235580 414.110718
v -106.580086 111.520912 415.043762
v -107.071922 111.401283 415.399750
v -106.365669 111.516670 413.337677
v -107.008392 112.589684 414.325806
v -107.551353 111.251526 413.969635
v -107.863098 112.503029 415.606293
v -107.641617 109.369156 412.578491
v -107.335983 111.648476 413.916107
v -107.712112 112.474121 414.564941
v -108.837639 112.789177 415.211609
v -108.645767 112.771637 415.537170
v -108.756844 113.531891 414.566772
v -109.085327 113.081093 414.905426
v -109.335747 112.053642 415.491730
v -105.853157 107.505264 396.011963
v -105.797935 107.964256 396.724487
v -106.374115 107.281319 397.438019
v -106.680443 107.184311 395.174255
v -106.403656 107.433975 395.613129
v -106.539909 107.059944 396.931183
v -107.215157 107.869423 398.241364
v -107.507561 107.932129 398.646423
v -106.965172 107.002121 394.946350
v -107.675484 106.054146 395.795837
v -108.126724 107.397812 398.810699
v -108.443207 107.744011 399.682159
v -108.784683 108.036087 400.273712
v -107.811249 107.242699 395.476685
v -108.446907 107.062599 396.676453
v -109.048111 106.804115 397.556244
v -108.962387 107.800720 400.168732
v -109.024673 108.434807 400.604370
v -109.336433 107.847321 398.267487
v -109.734108 107.594131 399.019531
v -109.507698 107.748802 399.644104
v -111.340179 107.787773 400.066620
v -111.301842 107.838745 400.570038
v -111.689819 108.022797 401.547546
v -112.096970 108.389473 402.841766
v -112.281555 108.798981 404.226318
v -112.486061 109.253868 405.533112
v -112.740341 109.560188 406.699097
v -113.041191 109.008583 407.320343
v -111.893585 108.368538 400.922607
v -112.880806 105.207443 401.240387
v -113.771103 108.795517 405.548767
v -113.744392 109.278534 406.692871
v -113.717529 109.415787 407.249878
v -113.402115 106.179535 400.925751
v -112.547371 108.625084 401.665527
v -112.991058 108.267738 402.265381
v -113.243553 108.064049 403.090637
v -113.569550 108.141502 404.025635
v -113.764763 108.447052 405.183746
v -114.053169 108.339478 405.983093
v -114.574234 108.436905 406.564880
v -105.010628 108.056335 412.524628
v -104.455635 108.408295 413.005585
v -104.841629 108.999260 413.765106
v -105.464340 108.823891 414.279907
v -105.753845 109.190147 414.879608
v -105.154709 108.758087 412.614746
v -105.386276 108.626366 412.922058
v -106.176102 110.525131 414.899017
v -106.557777 109.575668 415.129456
v -105.947060 109.410477 412.991302
v -106.487297 109.317299 413.401489
v -106.920326 109.480156 414.053925
v -107.596344 110.665543 415.545593
v -106.975487 110.309822 413.304047
v -107.227509 110.809807 414.142151
v -107.710312 111.034500 414.611450
v -108.255493 111.031906 415.016907
v -108.356003 111.148811 415.635254
v -108.583961 112.169464 414.767273
v -108.997147 111.823441 415.198242
v -109.429550 111.370705 415.772736
v -107.189804 105.633240 396.563568
v -107.176170 106.443665 397.268036
v -107.643204 106.332100 397.912720
v -107.924484 105.255547 395.885620
v -107.462791 105.964050 396.128052
v -108.110794 106.046860 397.448090
v -108.311066 106.621239 398.667297
v -108.881119 106.599930 399.287201
v -107.945465 106.017181 395.729340
v -108.852791 105.066910 396.779236
v -108.992317 105.329285 397.581512
v -109.262955 106.074142 399.021088
v -109.191963 106.493279 399.774353
v -110.279533 105.563194 397.436432
v -109.622177 105.427406 397.942688
v -109.837654 106.575607 399.446228
v -110.001335 106.718071 399.773346
v -112.200287 105.478378 399.393127
v -111.570023 105.965546 399.831543
v -111.910736 106.229889 400.675964
v -112.152695 106.565384 401.725952
v -112.223824 106.953835 402.945587
v -112.512604 107.251694 404.106476
v -112.687859 108.089111 405.493591
v -112.868233 108.351456 406.539642
v -113.541107 107.633636 406.796021
v -112.370628 105.741219 399.821899
v -111.936272 106.659874 399.965973
v -113.660606 107.021416 404.729553
v -113.224785 107.465668 405.360474
v -113.577629 107.891464 406.113373
v -113.705673 108.534401 406.999115
v -113.410606 106.093521 400.068085
v -112.941048 106.211288 400.990845
v -113.201569 107.421875 401.840302
v -113.432365 107.411789 402.634674
v -113.707321 107.219147 403.547211
v -114.061646 107.328171 404.491058
v -114.380890 107.570892 405.466705
v -114.627609 108.077927 406.222107
v -114.925285 108.160149 406.874146
v -115.431465 106.659554 407.656860
v -114.268867 105.913483 400.912628
v -113.640678 106.858864 401.397400
v -113.821838 107.036575 402.360291
v -114.102066 106.899940 403.344666
v -114.472473 106.889923 404.238068
v -114.811035 106.879921 405.074005
v -115.128609 107.073662 405.991821
v -115.389626 107.207054 406.802704
v -115.755043 106.833076 407.410767
v -104.584938 105.347160 410.594574
v -104.257896 106.861229 411.625824
v -104.162567 107.437096 412.721283
v -104.797943 107.736710 413.482025
v -105.211205 107.794441 414.139130
v -105.709251 107.715103 414.638763
v -105.644363 103.030266 409.826538
v -104.727379 106.786957 411.349365
v -104.407593 107.364052 412.684631
v -106.340576 108.641502 415.089813
v -105.984161 108.385765 413.365540
v -106.697388 108.112503 413.830933
v -107.382133 108.939415 415.300690
v -107.493950 109.394875 414.498810
v -107.928734 109.558838 415.014404
v -108.087929 109.379883 415.458771
v -108.055122 103.783974 394.888336
v -108.130188 104.289841 395.693787
v -108.199226 104.432457 396.323547
v -108.932076 103.594765 395.175812
v -108.715469 104.457626 395.962555
v -108.968231 104.558228 396.806274
v -109.894478 103.514488 395.820557
v -109.410240 103.687019 396.176575
v -109.685745 104.425026 396.989380
v -111.864479 104.163536 399.146484
v -111.943527 104.337280 399.675262
v -112.223755 104.728516 400.674408
v -112.326134 105.236412 401.638641
v -112.353989 105.571701 402.745056
v -112.607910 105.765518 403.679901
v -113.098572 105.441986 404.483490
v -112.887589 103.554688 398.816315
v -111.913506 104.070168 398.877991
v -113.383766 106.616257 404.394104
v -113.142418 106.610741 404.948883
v -113.754448 106.928146 406.097839
v -114.367882 105.727509 406.948822
v -113.452583 102.256630 399.094940
v -112.879684 103.970810 399.844666
v -113.563026 105.885284 400.337250
v -114.643173 107.202438 406.353638
v -114.721809 107.005478 407.142212
v -115.362343 105.306496 408.010956
v -114.112938 104.632294 399.960205
v -113.577316 105.616982 400.806427
v -113.929253 105.907799 401.789185
v -114.562485 105.830482 402.927368
v -114.706558 106.423569 404.051300
v -115.063927 106.195656 404.887543
v -115.265617 106.097725 405.487518
v -115.572762 105.976860 406.389099
v -115.927200 105.844368 407.311462
v -115.833130 105.538635 407.959991
v -115.569374 104.333694 402.918640
v -115.174477 105.659088 403.561066
v -115.554390 105.642464 403.906403
v -104.477028 104.460556 410.601562
v -104.207687 106.056435 411.471710
v -104.506683 106.828400 412.642822
v -104.869728 106.843620 413.426392
v -105.358261 106.705833 414.038544
v -106.010117 105.993912 414.617493
v -104.520821 105.512009 410.648193
v -104.585915 106.761139 411.996857
v -104.889923 106.259514 412.847809
v -105.479118 106.303123 413.521362
v -105.786613 106.445396 414.229462
v -106.039986 106.392197 414.980103
v -105.846664 107.417534 413.225616
v -106.558006 107.002068 413.770142
v -106.834717 107.113487 414.483154
v -106.855721 106.930664 415.118195
v -107.274483 107.946564 414.359314
v -107.650673 107.860832 414.841278
v -108.175667 107.200813 415.278717
v -106.537315 101.462250 392.803375
v -106.498543 102.441620 393.686981
v -106.624290 102.847984 394.543335
v -106.834488 103.294907 395.779083
v -107.023796 103.674873 397.195465
v -107.172150 103.581963 398.094879
v -107.280174 101.697182 393.441376
v -106.996384 102.339066 393.397766
v -107.238213 102.512985 394.330200
v -107.529274 102.656647 395.146393
v -107.759895 103.367554 396.416351
v -107.622650 103.798485 397.588776
v -108.632866 100.501610 392.723785
v -108.530891 101.714043 393.442444
v -108.074516 101.990837 394.156372
v -108.206566 102.972588 395.035645
v -108.668961 103.247055 396.459106
v -109.377769 99.814102 393.674225
v -108.920517 101.507965 393.344391
v -109.025795 102.088638 394.551056
v -109.657761 102.806946 395.730255
v -109.614159 103.399673 396.654053
v -112.238808 102.800690 398.646210
v -111.962708 102.884972 399.638641
v -112.294022 103.335625 400.422821
v -112.406723 103.922707 401.337708
v -112.485153 104.418793 402.520325
v -112.620857 104.741478 403.622131
v -112.880470 104.866219 404.582397
v -112.602119 102.960327 398.160828
v -112.031273 103.015892 398.844574
v -112.666412 103.011101 399.679504
v -113.332520 105.663208 405.226074
v -113.729126 105.643776 406.293823
v -114.252502 104.426437 407.326263
v -112.602264 103.333595 398.730194
v -112.835121 103.527168 399.491882
v -113.267357 103.557930 400.125214
v -113.789703 103.419106 400.982635
v -115.274422 104.821571 407.570679
v -115.977509 103.120178 407.505463
v -113.465759 104.190247 399.932617
v -113.772690 104.358597 400.804993
v -114.129204 104.587410 401.897247
v -114.584198 104.476562 402.776520
v -114.981827 104.419067 403.645081
v -115.271362 104.840652 404.728821
v -115.550308 104.799179 405.648102
v -115.951195 104.530838 406.660339
v -116.168167 104.345810 407.495697
v -116.369225 102.650505 407.672821
v -115.161522 105.097160 403.276581
v -115.523331 104.901535 404.014587
v -115.858582 104.347511 404.259003
v -105.973862 104.579422 412.713470
v -105.833183 105.650719 413.505615
v -106.047234 105.744179 414.254120
v -107.011864 103.495750 414.642395
v -105.965408 105.822151 413.074738
v -106.334732 105.996208 413.889374
v -106.756248 105.701027 414.481140
v -107.249710 104.596764 414.874695
v -105.508087 100.061554 393.083466
v -105.423607 100.677338 393.956848
v -105.554497 101.160583 395.185516
v -105.642860 101.792145 396.583130
v -105.821442 101.806259 397.386200
v -106.023376 101.077629 392.944824
v -105.905602 99.635223 392.772247
v -106.112541 102.310051 394.931274
v -106.228722 102.660927 396.269073
v -106.271095 102.970947 397.779205
v -106.991547 102.613220 398.385101
v -106.753540 99.788666 392.304749
v -106.770714 100.201790 393.049377
v -107.427528 102.035950 394.175598
v -107.636551 102.510330 395.346283
v -107.799774 102.618553 396.991486
v -107.529671 102.973213 398.112396
v -107.961617 100.720589 392.673401
v -107.755417 99.527885 392.623230
v -107.940842 100.248306 393.683807
v -108.171768 100.845543 394.906006
v -108.523758 101.871498 396.144867
v -108.620003 100.877716 392.739746
v -108.903229 101.174370 393.348541
v -109.052574 101.626167 394.381744
v -109.297661 102.102341 395.677734
v -109.452675 102.390205 396.185486
v -112.586563 101.307899 399.246826
v -112.348495 102.285255 400.209961
v -112.522514 102.910301 401.319916
v -112.701859 103.388191 402.554932
v -112.809456 103.748161 403.738739
v -113.390053 103.396225 404.283722
v -112.670151 102.140099 399.679626
v -113.051315 102.322334 400.637970
v -113.056129 102.764420 401.748535
v -113.374962 102.629601 403.107666
v -113.561882 103.075928 404.012024
v -113.647751 104.264565 405.112305
v -114.057175 103.796265 406.497101
v -114.965401 101.279396 406.848175
v -113.410858 102.826065 400.384369
v -113.856400 102.984459 401.443604
v -114.289146 102.971909 402.565552
v -114.586319 103.009148 403.675964
v -114.484245 103.451324 404.495880
v -114.708641 103.594162 405.687469
v -115.015793 102.393410 406.727814
v -115.105469 102.744537 407.368774
v -114.448280 103.444229 402.054352
v -114.800369 103.606796 403.095673
v -115.001976 103.963303 404.132965
v -115.272972 103.973236 405.029938
v -115.619720 103.278076 405.990997
v -115.916992 102.732903 406.928070
v -116.252556 102.001770 406.894562
v -105.275658 98.775337 393.048187
v -105.272614 99.633690 393.905670
v -105.469688 100.417809 395.252838
v -105.678917 100.863831 396.539764
v -106.007103 100.697311 397.100159
v -105.642883 99.840508 393.152100
v -105.953529 100.152817 394.034729
v -106.201317 100.277443 395.182587
v -106.320648 100.762184 396.524902
v -106.290688 101.770363 397.674469
v -107.136841 101.039772 397.892975
v -107.131927 99.671120 392.645294
v -106.601616 100.193428 393.607422
v -107.161537 100.414162 394.984436
v -107.164032 100.945160 396.272583
v -107.427238 101.586838 397.445892
v -107.544876 101.273674 398.034119
v -107.556969 100.051514 392.727814
v -107.730339 100.406898 393.512451
v -107.840469 100.913361 394.661957
v -108.047798 101.215973 395.880768
v -108.266479 101.386879 396.494873
v -113.989311 100.422844 402.101562
v -113.771675 101.388489 403.499084
v -114.447266 99.390915 403.776123
v -114.148788 101.745094 402.926697
v -114.423454 101.436562 403.983398
v -114.671768 100.662926 404.046722
f 1 2 7
f 2 8 7
f 7 8 12
f 8 13 12
f 1 7 12
f 1 12 4
f 1 5 2
f 1 4 5
f 12 13 5
f 12 5 4
f 2 3 8
f 3 9 8
f 8 9 13
f 9 14 13
f 2 6 3
f 2 5 6
f 13 14 6
f 13 6 5
f 3 14 9
f 3 6 14
f 10 11 61
f 11 62 61
f 61 62 68
f 62 69 68
f 10 61 68
f 10 68 18
f 10 19 11
f 10 18 19
f 11 69 62
f 11 19 69
f 15 16 65
f 16 66 65
f 65 66 73
f 66 74 73
f 15 65 73
f 15 73 21
f 15 22 16
f 15 21 22
f 16 17 66
f 17 67 66
f 16 23 17
f 16 22 23
f 17 18 67
f 18 68 67
f 17 24 18
f 17 23 24
f 18 25 19
f 18 24 25
f 19 75 69
f 19 25 75
f 20 21 72
f 21 73 72
f 72 73 78
f 73 79 78
f 20 72 78
f 20 78 26
f 20 27 21
f 20 26 27
f 21 28 22
f 21 27 28
f 22 29 23
f 22 28 29
f 23 30 24
f 23 29 30
f 24 31 25
f 24 30 31
f 80 81 31
f 80 31 30
f 25 81 75
f 25 31 81
f 78 79 83
f 79 84 83
f 26 78 83
f 26 83 32
f 26 33 27
f 26 32 33
f 27 34 28
f 27 33 34
f 28 35 29
f 28 34 35
f 29 36 30
f 29 35 36
f 30 85 80
f 30 36 85
f 32 83 87
f 32 87 37
f 32 38 33
f 32 37 38
f 33 39 34
f 33 38 39
f 34 40 35
f 34 39 40
f 35 41 36
f 35 40 41
f 89 90 41
f 89 41 40
f 36 90 85
f 36 41 90
f 87 88 92
f 88 93 92
f 37 87 92
f 37 92 42
f 37 43 38
f 37 42 43
f 92 93 43
f 92 43 42
f 38 44 39
f 38 43 44
f 39 45 40
f 39 44 45
f 94 95 45
f 94 45 44
f 40 95 89
f 40 45 95
f 43 93 97
f 43 97 46
f 43 47 44
f 43 46 47
f 97 98 47
f 97 47 46
f 44 98 94
f 44 47 98
f 48 49 108
f 49 109 108
f 48 108 112
f 48 112 52
f 48 53 49
f 48 52 53
f 112 113 53
f 112 53 52
f 49 50 109
f 50 110 109
f 49 54 50
f 49 53 54
f 50 51 110
f 51 111 110
f 50 55 51
f 50 54 55
f 51 114 111
f 51 55 114
f 53 113 116
f 53 116 56
f 53 57 54
f 53 56 57
f 116 117 57
f 116 57 56
f 54 58 55
f 54 57 58
f 117 118 58
f 117 58 57
f 55 118 114
f 55 58 118
f 59 60 120
f 60 121 120
f 120 121 122
f 121 123 122
f 59 120 122
f 59 122 63
f 59 64 60
f 59 63 64
f 122 123 64
f 122 64 63
f 60 123 121
f 60 64 123
f 66 67 124
f 67 125 124
f 124 125 131
f 125 132 131
f 66 124 131
f 66 131 74
f 67 68 125
f 68 126 125
f 125 126 132
f 126 133 132
f 68 69 126
f 69 127 126
f 69 70 127
f 70 128 127
f 127 128 134
f 128 135 134
f 69 76 70
f 69 75 76
f 70 71 128
f 71 129 128
f 128 129 135
f 129 136 135
f 70 77 71
f 70 76 77
f 135 136 77
f 135 77 76
f 71 136 129
f 71 77 136
f 73 74 130
f 74 131 130
f 130 131 137
f 131 138 137
f 73 130 137
f 73 137 79
f 134 135 139
f 135 140 139
f 75 82 76
f 75 81 82
f 139 140 82
f 139 82 81
f 76 140 135
f 76 82 140
f 79 137 142
f 79 142 84
f 80 86 81
f 80 85 86
f 81 143 139
f 81 86 143
f 83 84 141
f 84 142 141
f 141 142 144
f 142 145 144
f 83 141 144
f 83 144 87
f 144 145 88
f 144 88 87
f 85 91 86
f 85 90 91
f 146 147 91
f 146 91 90
f 86 147 143
f 86 91 147
f 88 145 149
f 88 149 93
f 89 96 90
f 89 95 96
f 90 150 146
f 90 96 150
f 93 149 152
f 93 152 97
f 94 99 95
f 94 98 99
f 95 100 96
f 95 99 100
f 153 154 100
f 153 100 99
f 96 154 150
f 96 100 154
f 97 152 156
f 97 156 101
f 97 102 98
f 97 101 102
f 156 157 102
f 156 102 101
f 98 103 99
f 98 102 103
f 157 158 103
f 157 103 102
f 99 158 153
f 99 103 158
f 104 105 160
f 105 161 160
f 104 160 163
f 104 163 106
f 104 107 105
f 104 106 107
f 163 164 107
f 163 107 106
f 105 164 161
f 105 107 164
f 108 109 165
f 109 166 165
f 165 166 169
f 166 170 169
f 108 165 169
f 108 169 112
f 169 170 113
f 169 113 112
f 109 110 166
f 110 167 166
f 166 167 170
f 167 171 170
f 110 111 167
f 111 168 167
f 167 168 171
f 168 172 171
f 111 172 168
f 111 114 172
f 170 171 174
f 171 175 174
f 113 170 174
f 113 174 116
f 174 175 117
f 174 117 116
f 171 172 175
f 172 176 175
f 175 176 118
f 175 118 117
f 114 115 172
f 115 173 172
f 172 173 176
f 173 177 176
f 114 119 115
f 114 118 119
f 176 177 119
f 176 119 118
f 115 177 173
f 115 119 177
f 126 127 182
f 127 183 182
f 182 183 186
f 183 187 186
f 126 182 186
f 126 186 133
f 127 187 183
f 127 134 187
f 131 132 184
f 132 185 184
f 184 185 190
f 185 191 190
f 131 184 190
f 131 190 138
f 132 133 185
f 133 186 185
f 134 192 187
f 134 139 192
f 137 138 189
f 138 190 189
f 137 189 194
f 137 194 142
f 139 195 192
f 139 143 195
f 142 194 198
f 142 198 145
f 199 200 147
f 199 147 146
f 143 200 195
f 143 147 200
f 144 145 197
f 145 198 197
f 197 198 202
f 198 203 202
f 144 197 202
f 144 202 148
f 144 149 145
f 144 148 149
f 202 203 149
f 202 149 148
f 146 204 199
f 146 150 204
f 149 203 207
f 149 207 152
f 208 209 154
f 208 154 153
f 150 209 204
f 150 154 209
f 151 152 206
f 152 207 206
f 206 207 211
f 207 212 211
f 151 206 211
f 151 211 155
f 151 156 152
f 151 155 156
f 211 212 156
f 211 156 155
f 153 213 208
f 153 158 213
f 156 212 215
f 156 215 159
f 156 160 157
f 156 159 160
f 157 161 158
f 157 160 161
f 158 217 213
f 158 161 217
f 215 216 219
f 216 220 219
f 159 215 219
f 159 219 162
f 159 163 160
f 159 162 163
f 219 220 163
f 219 163 162
f 220 221 164
f 220 164 163
f 161 221 217
f 161 164 221
f 178 179 233
f 179 234 233
f 178 233 236
f 178 236 180
f 178 181 179
f 178 180 181
f 236 237 181
f 236 181 180
f 179 237 234
f 179 181 237
f 185 186 238
f 186 239 238
f 238 239 244
f 239 245 244
f 185 238 244
f 185 244 191
f 186 187 239
f 187 240 239
f 187 188 240
f 188 241 240
f 240 241 246
f 241 247 246
f 187 193 188
f 187 192 193
f 188 247 241
f 188 193 247
f 189 190 242
f 190 243 242
f 242 243 249
f 243 250 249
f 189 242 249
f 189 249 194
f 190 191 243
f 191 244 243
f 243 244 250
f 244 251 250
f 192 196 193
f 192 195 196
f 193 252 247
f 193 196 252
f 249 250 254
f 250 255 254
f 194 249 254
f 194 254 198
f 195 201 196
f 195 200 201
f 256 257 201
f 256 201 200
f 196 257 252
f 196 201 257
f 198 254 259
f 198 259 203
f 199 205 200
f 199 204 205
f 200 260 256
f 200 205 260
f 203 259 262
f 203 262 207
f 204 210 205
f 204 209 210
f 263 264 210
f 263 210 209
f 205 264 260
f 205 210 264
f 207 262 266
f 207 266 212
f 208 214 209
f 208 213 214
f 209 268 263
f 209 214 268
f 266 267 271
f 267 272 271
f 212 266 271
f 212 271 215
f 271 272 216
f 271 216 215
f 213 218 214
f 213 217 218
f 214 273 268
f 214 218 273
f 216 272 276
f 216 276 220
f 276 277 221
f 276 221 220
f 217 222 218
f 217 221 222
f 218 278 273
f 218 222 278
f 277 278 279
f 278 280 279
f 221 277 279
f 221 279 223
f 221 224 222
f 221 223 224
f 279 280 224
f 279 224 223
f 222 280 278
f 222 224 280
f 225 226 281
f 226 282 281
f 281 282 286
f 282 287 286
f 225 281 286
f 225 286 230
f 225 231 226
f 225 230 231
f 286 287 231
f 286 231 230
f 226 227 282
f 227 283 282
f 282 283 287
f 283 288 287
f 226 232 227
f 226 231 232
f 287 288 232
f 287 232 231
f 227 228 283
f 228 284 283
f 283 284 288
f 284 289 288
f 227 233 228
f 227 232 233
f 228 229 284
f 229 285 284
f 284 285 289
f 285 290 289
f 228 234 229
f 228 233 234
f 229 290 285
f 229 234 290
f 288 289 291
f 289 292 291
f 232 288 291
f 232 291 235
f 232 236 233
f 232 235 236
f 291 292 236
f 291 236 235
f 289 290 292
f 290 293 292
f 292 293 237
f 292 237 236
f 234 293 290
f 234 237 293
f 239 240 294
f 240 295 294
f 294 295 297
f 295 298 297
f 239 294 297
f 239 297 245
f 240 298 295
f 240 246 298
f 244 245 296
f 245 297 296
f 244 296 303
f 244 303 251
f 246 247 298
f 247 299 298
f 247 248 299
f 248 300 299
f 247 253 248
f 247 252 253
f 248 304 300
f 248 253 304
f 250 251 302
f 251 303 302
f 250 302 307
f 250 307 255
f 252 258 253
f 252 257 258
f 308 309 258
f 308 258 257
f 253 309 304
f 253 258 309
f 254 255 306
f 255 307 306
f 254 306 313
f 254 313 259
f 256 261 257
f 256 260 261
f 257 314 308
f 257 261 314
f 259 313 318
f 259 318 262
f 260 265 261
f 260 264 265
f 261 319 314
f 261 265 319
f 262 318 323
f 262 323 266
f 323 324 267
f 323 267 266
f 263 269 264
f 263 268 269
f 264 270 265
f 264 269 270
f 265 325 319
f 265 270 325
f 267 324 327
f 267 327 272
f 268 274 269
f 268 273 274
f 329 330 274
f 329 274 273
f 269 275 270
f 269 274 275
f 330 331 275
f 330 275 274
f 270 331 325
f 270 275 331
f 327 328 333
f 328 334 333
f 272 327 333
f 272 333 276
f 333 334 277
f 333 277 276
f 334 335 278
f 334 278 277
f 273 335 329
f 273 278 335
f 296 297 351
f 297 352 351
f 351 352 368
f 352 369 368
f 296 351 368
f 296 368 303
f 297 298 352
f 298 353 352
f 352 353 369
f 353 370 369
f 298 299 353
f 299 354 353
f 299 300 354
f 300 355 354
f 300 301 355
f 301 356 355
f 300 305 301
f 300 304 305
f 301 371 356
f 301 305 371
f 302 303 367
f 303 368 367
f 367 368 383
f 368 384 383
f 302 367 383
f 302 383 307
f 304 310 305
f 304 309 310
f 385 386 310
f 385 310 309
f 305 386 371
f 305 310 386
f 306 307 382
f 307 383 382
f 382 383 396
f 383 397 396
f 306 382 396
f 306 396 313
f 308 315 309
f 308 314 315
f 309 398 385
f 309 315 398
f 311 312 390
f 312 391 390
f 311 390 402
f 311 402 316
f 311 317 312
f 311 316 317
f 312 403 391
f 312 317 403
f 396 397 406
f 397 407 406
f 313 396 406
f 313 406 318
f 314 320 315
f 314 319 320
f 315 408 398
f 315 320 408
f 316 402 411
f 316 411 321
f 316 322 317
f 316 321 322
f 411 412 322
f 411 322 321
f 317 412 403
f 317 322 412
f 406 407 414
f 407 415 414
f 318 406 414
f 318 414 323
f 414 415 324
f 414 324 323
f 319 326 320
f 319 325 326
f 320 416 408
f 320 326 416
f 324 415 421
f 324 421 327
f 421 422 328
f 421 328 327
f 423 424 331
f 423 331 330
f 325 332 326
f 325 331 332
f 424 425 332
f 424 332 331
f 326 425 416
f 326 332 425
f 328 422 428
f 328 428 334
f 428 429 335
f 428 335 334
f 329 336 330
f 329 335 336
f 429 430 336
f 429 336 335
f 330 430 423
f 330 336 430
f 337 338 441
f 338 442 441
f 441 442 445
f 442 446 445
f 337 441 445
f 337 445 341
f 337 342 338
f 337 341 342
f 445 446 342
f 445 342 341
f 338 339 442
f 339 443 442
f 442 443 446
f 443 447 446
f 338 343 339
f 338 342 343
f 446 447 343
f 446 343 342
f 339 340 443
f 340 444 443
f 443 444 447
f 444 448 447
f 339 344 340
f 339 343 344
f 447 448 344
f 447 344 343
f 340 448 444
f 340 344 448
f 345 346 449
f 346 450 449
f 449 450 452
f 450 453 452
f 345 449 452
f 345 452 348
f 345 349 346
f 345 348 349
f 452 453 349
f 452 349 348
f 346 347 450
f 347 451 450
f 450 451 453
f 451 454 453
f 346 350 347
f 346 349 350
f 453 454 350
f 453 350 349
f 347 454 451
f 347 350 454
f 353 354 455
f 354 456 455
f 455 456 472
f 456 473 472
f 353 455 472
f 353 472 370
f 354 355 456
f 355 457 456
f 355 356 457
f 356 458 457
f 356 357 458
f 357 459 458
f 356 372 357
f 356 371 372
f 357 358 459
f 358 460 459
f 357 373 358
f 357 372 373
f 358 474 460
f 358 373 474
f 359 360 462
f 360 463 462
f 359 462 476
f 359 476 374
f 359 375 360
f 359 374 375
f 476 477 375
f 476 375 374
f 360 361 463
f 361 464 463
f 360 376 361
f 360 375 376
f 361 362 464
f 362 465 464
f 361 377 362
f 361 376 377
f 362 363 465
f 363 466 465
f 465 466 478
f 466 479 478
f 362 378 363
f 362 377 378
f 363 364 466
f 364 467 466
f 466 467 479
f 467 480 479
f 363 379 364
f 363 378 379
f 364 365 467
f 365 468 467
f 467 468 480
f 468 481 480
f 364 380 365
f 364 379 380
f 365 366 468
f 366 469 468
f 468 469 481
f 469 482 481
f 365 381 366
f 365 380 381
f 366 482 469
f 366 381 482
f 368 369 470
f 369 471 470
f 470 471 484
f 471 485 484
f 368 470 484
f 368 484 384
f 369 370 471
f 370 472 471
f 371 387 372
f 371 386 387
f 372 388 373
f 372 387 388
f 486 487 388
f 486 388 387
f 373 487 474
f 373 388 487
f 375 477 490
f 375 490 389
f 375 390 376
f 375 389 390
f 376 391 377
f 376 390 391
f 377 392 378
f 377 391 392
f 378 393 379
f 378 392 393
f 379 394 380
f 379 393 394
f 492 493 394
f 492 394 393
f 380 395 381
f 380 394 395
f 493 494 395
f 493 395 394
f 381 494 482
f 381 395 494
f 383 384 483
f 384 484 483
f 483 484 495
f 484 496 495
f 383 483 495
f 383 495 397
f 385 399 386
f 385 398 399
f 386 400 387
f 386 399 400
f 387 497 486
f 387 400 497
f 389 490 501
f 389 501 401
f 389 402 390
f 389 401 402
f 501 502 402
f 501 402 401
f 391 404 392
f 391 403 404
f 491 492 504
f 492 505 504
f 392 405 393
f 392 404 405
f 504 505 405
f 504 405 404
f 393 505 492
f 393 405 505
f 495 496 506
f 496 507 506
f 397 495 506
f 397 506 407
f 398 409 399
f 398 408 409
f 399 410 400
f 399 409 410
f 400 508 497
f 400 410 508
f 402 502 513
f 402 513 411
f 503 504 514
f 504 515 514
f 403 413 404
f 403 412 413
f 514 515 413
f 514 413 412
f 404 515 504
f 404 413 515
f 506 507 516
f 507 517 516
f 407 506 516
f 407 516 415
f 408 417 409
f 408 416 417
f 409 418 410
f 409 417 418
f 518 519 418
f 518 418 417
f 410 519 508
f 410 418 519
f 411 513 524
f 411 524 419
f 411 420 412
f 411 419 420
f 524 525 420
f 524 420 419
f 412 525 514
f 412 420 525
f 516 517 526
f 517 527 526
f 415 516 526
f 415 526 421
f 416 426 417
f 416 425 426
f 417 528 518
f 417 426 528
f 526 527 534
f 527 535 534
f 421 526 534
f 421 534 427
f 421 428 422
f 421 427 428
f 534 535 428
f 534 428 427
f 535 536 429
f 535 429 428
f 423 431 424
f 423 430 431
f 424 432 425
f 424 431 432
f 425 433 426
f 425 432 433
f 426 537 528
f 426 433 537
f 429 536 543
f 429 543 435
f 429 436 430
f 429 435 436
f 543 544 436
f 543 436 435
f 430 437 431
f 430 436 437
f 544 545 437
f 544 437 436
f 431 438 432
f 431 437 438
f 545 546 438
f 545 438 437
f 432 439 433
f 432 438 439
f 546 547 439
f 546 439 438
f 433 434 537
f 434 538 537
f 433 440 434
f 433 439 440
f 547 548 440
f 547 440 439
f 434 548 538
f 434 440 548
f 456 457 557
f 457 558 557
f 557 558 573
f 558 574 573
f 456 557 573
f 456 573 473
f 457 458 558
f 458 559 558
f 558 559 574
f 559 575 574
f 458 459 559
f 459 560 559
f 559 560 575
f 560 576 575
f 459 460 560
f 460 561 560
f 560 561 576
f 561 577 576
f 460 461 561
f 461 562 561
f 561 562 577
f 562 578 577
f 460 475 461
f 460 474 475
f 461 462 562
f 462 563 562
f 562 563 578
f 563 579 578
f 461 476 462
f 461 475 476
f 462 463 563
f 463 564 563
f 563 564 579
f 564 580 579
f 463 464 564
f 464 565 564
f 564 565 580
f 565 581 580
f 464 465 565
f 465 566 565
f 565 566 581
f 566 582 581
f 465 582 566
f 465 478 582
f 471 472 571
f 472 572 571
f 571 572 590
f 572 591 590
f 471 571 590
f 471 590 485
f 472 473 572
f 473 573 572
f 572 573 591
f 573 592 591
f 573 574 592
f 574 593 592
f 574 575 593
f 575 594 593
f 576 577 595
f 577 596 595
f 577 578 596
f 578 597 596
f 474 488 475
f 474 487 488
f 578 579 597
f 579 598 597
f 475 489 476
f 475 488 489
f 579 580 598
f 580 599 598
f 476 490 477
f 476 489 490
f 580 581 599
f 581 600 599
f 581 582 600
f 582 601 600
f 478 479 582
f 479 583 582
f 582 583 601
f 583 602 601
f 479 480 583
f 480 584 583
f 583 584 602
f 584 603 602
f 602 603 492
f 602 492 491
f 480 481 584
f 481 585 584
f 603 604 493
f 603 493 492
f 481 482 585
f 482 586 585
f 604 605 494
f 604 494 493
f 482 605 586
f 482 494 605
f 484 485 589
f 485 590 589
f 589 590 608
f 590 609 608
f 484 589 608
f 484 608 496
f 590 591 609
f 591 610 609
f 486 498 487
f 486 497 498
f 487 499 488
f 487 498 499
f 597 598 612
f 598 613 612
f 488 500 489
f 488 499 500
f 598 599 613
f 599 614 613
f 489 501 490
f 489 500 501
f 599 600 614
f 600 615 614
f 600 601 615
f 601 616 615
f 601 602 616
f 602 617 616
f 616 617 504
f 616 504 503
f 491 617 602
f 491 504 617
f 608 609 622
f 609 623 622
f 496 608 622
f 496 622 507
f 497 509 498
f 497 508 509
f 611 612 624
f 612 625 624
f 498 510 499
f 498 509 510
f 612 613 625
f 613 626 625
f 499 511 500
f 499 510 511
f 613 614 626
f 614 627 626
f 500 512 501
f 500 511 512
f 614 615 627
f 615 628 627
f 501 513 502
f 501 512 513
f 615 616 628
f 616 629 628
f 503 629 616
f 503 514 629
f 622 623 632
f 623 633 632
f 507 622 632
f 507 632 517
f 508 520 509
f 508 519 520
f 624 625 634
f 625 635 634
f 509 521 510
f 509 520 521
f 625 626 635
f 626 636 635
f 510 522 511
f 510 521 522
f 635 636 522
f 635 522 521
f 626 627 636
f 627 637 636
f 511 523 512
f 511 522 523
f 636 637 523
f 636 523 522
f 627 628 637
f 628 638 637
f 512 524 513
f 512 523 524
f 637 638 524
f 637 524 523
f 628 629 638
f 629 639 638
f 638 639 525
f 638 525 524
f 514 639 629
f 514 525 639
f 517 632 640
f 517 640 527
f 518 529 519
f 518 528 529
f 519 530 520
f 519 529 530
f 634 635 642
f 635 643 642
f 520 531 521
f 520 530 531
f 521 643 635
f 521 531 643
f 527 640 646
f 527 646 535
f 646 647 536
f 646 536 535
f 528 538 529
f 528 537 538
f 641 642 648
f 642 649 648
f 529 539 530
f 529 538 539
f 642 643 649
f 643 650 649
f 530 540 531
f 530 539 540
f 531 532 643
f 532 644 643
f 643 644 650
f 644 651 650
f 531 541 532
f 531 540 541
f 532 533 644
f 533 645 644
f 644 645 651
f 645 652 651
f 532 542 533
f 532 541 542
f 533 652 645
f 533 542 652
f 536 647 653
f 536 653 543
f 653 654 544
f 653 544 543
f 654 655 545
f 654 545 544
f 655 656 546
f 655 546 545
f 656 657 547
f 656 547 546
f 657 658 548
f 657 548 547
f 648 649 658
f 649 659 658
f 538 549 539
f 538 548 549
f 658 659 549
f 658 549 548
f 649 650 659
f 650 660 659
f 539 550 540
f 539 549 550
f 650 651 660
f 651 661 660
f 540 551 541
f 540 550 551
f 651 652 661
f 652 662 661
f 541 552 542
f 541 551 552
f 542 662 652
f 542 552 662
f 659 660 668
f 660 669 668
f 549 659 668
f 549 668 553
f 549 554 550
f 549 553 554
f 668 669 554
f 668 554 553
f 660 661 669
f 661 670 669
f 550 555 551
f 550 554 555
f 669 670 555
f 669 555 554
f 661 662 670
f 662 671 670
f 551 556 552
f 551 555 556
f 670 671 556
f 670 556 555
f 552 671 662
f 552 556 671
f 567 568 676
f 568 677 676
f 567 676 685
f 567 685 584
f 567 585 568
f 567 584 585
f 568 569 677
f 569 678 677
f 568 586 569
f 568 585 586
f 569 570 678
f 570 679 678
f 569 587 570
f 569 586 587
f 570 686 679
f 570 587 686
f 575 576 680
f 576 681 680
f 680 681 691
f 681 692 691
f 575 680 691
f 575 691 594
f 576 692 681
f 576 595 692
f 584 685 696
f 584 696 603
f 586 606 587
f 586 605 606
f 587 588 686
f 588 687 686
f 686 687 698
f 687 699 698
f 587 607 588
f 587 606 607
f 698 699 607
f 698 607 606
f 588 699 687
f 588 607 699
f 591 592 688
f 592 689 688
f 688 689 701
f 689 702 701
f 591 688 701
f 591 701 610
f 592 593 689
f 593 690 689
f 689 690 702
f 690 703 702
f 593 594 690
f 594 691 690
f 595 596 692
f 596 693 692
f 692 693 704
f 693 705 704
f 596 597 693
f 597 694 693
f 693 694 705
f 694 706 705
f 705 706 612
f 705 612 611
f 597 706 694
f 597 612 706
f 696 697 707
f 697 708 707
f 603 696 707
f 603 707 618
f 603 619 604
f 603 618 619
f 707 708 619
f 707 619 618
f 604 620 605
f 604 619 620
f 605 621 606
f 605 620 621
f 709 710 621
f 709 621 620
f 606 710 698
f 606 621 710
f 609 610 700
f 610 701 700
f 700 701 712
f 701 713 712
f 609 700 712
f 609 712 623
f 611 714 705
f 611 624 714
f 619 708 716
f 619 716 630
f 619 631 620
f 619 630 631
f 716 717 631
f 716 631 630
f 620 717 709
f 620 631 717
f 623 712 720
f 623 720 633
f 624 721 714
f 624 634 721
f 632 633 719
f 633 720 719
f 719 720 722
f 720 723 722
f 632 719 722
f 632 722 640
f 724 725 642
f 724 642 641
f 634 725 721
f 634 642 725
f 640 722 726
f 640 726 646
f 726 727 647
f 726 647 646
f 641 728 724
f 641 648 728
f 647 727 730
f 647 730 653
f 730 731 654
f 730 654 653
f 648 732 728
f 648 658 732
f 654 731 734
f 654 734 663
f 654 664 655
f 654 663 664
f 734 735 664
f 734 664 663
f 655 665 656
f 655 664 665
f 656 666 657
f 656 665 666
f 657 667 658
f 657 666 667
f 658 736 732
f 658 667 736
f 664 735 738
f 664 738 672
f 664 673 665
f 664 672 673
f 738 739 673
f 738 673 672
f 665 674 666
f 665 673 674
f 739 740 674
f 739 674 673
f 666 675 667
f 666 674 675
f 740 741 675
f 740 675 674
f 667 741 736
f 667 675 741
f 676 677 743
f 677 744 743
f 743 744 752
f 744 753 752
f 676 743 752
f 676 752 685
f 677 678 744
f 678 745 744
f 678 679 745
f 679 746 745
f 679 754 746
f 679 686 754
f 681 682 748
f 682 749 748
f 748 749 758
f 749 759 758
f 681 748 758
f 681 758 692
f 681 693 682
f 681 692 693
f 758 759 693
f 758 693 692
f 682 683 749
f 683 750 749
f 749 750 759
f 750 760 759
f 682 694 683
f 682 693 694
f 759 760 694
f 759 694 693
f 683 684 750
f 684 751 750
f 750 751 760
f 751 761 760
f 683 695 684
f 683 694 695
f 760 761 695
f 760 695 694
f 684 761 751
f 684 695 761
f 752 753 762
f 753 763 762
f 685 752 762
f 685 762 696
f 762 763 697
f 762 697 696
f 686 764 754
f 686 698 764
f 690 691 756
f 691 757 756
f 756 757 768
f 757 769 768
f 690 756 768
f 690 768 703
f 691 692 757
f 692 758 757
f 757 758 769
f 758 770 769
f 692 770 758
f 692 704 770
f 697 763 773
f 697 773 708
f 698 699 764
f 699 765 764
f 698 711 699
f 698 710 711
f 774 775 711
f 774 711 710
f 699 775 765
f 699 711 775
f 701 702 766
f 702 767 766
f 766 767 777
f 767 778 777
f 701 766 777
f 701 777 713
f 702 703 767
f 703 768 767
f 704 705 770
f 705 771 770
f 770 771 779
f 771 780 779
f 705 706 771
f 706 772 771
f 771 772 780
f 772 781 780
f 705 715 706
f 705 714 715
f 780 781 715
f 780 715 714
f 706 781 772
f 706 715 781
f 708 773 782
f 708 782 716
f 782 783 717
f 782 717 716
f 709 718 710
f 709 717 718
f 783 784 718
f 783 718 717
f 710 784 774
f 710 718 784
f 712 713 776
f 713 777 776
f 776 777 786
f 777 787 786
f 712 776 786
f 712 786 720
f 779 780 788
f 780 789 788
f 714 789 780
f 714 721 789
f 720 786 793
f 720 793 723
f 788 789 794
f 789 795 794
f 794 795 725
f 794 725 724
f 721 795 789
f 721 725 795
f 722 723 792
f 723 793 792
f 792 793 796
f 793 797 796
f 722 792 796
f 722 796 726
f 796 797 727
f 796 727 726
f 724 799 794
f 724 728 799
f 727 797 801
f 727 801 730
f 801 802 731
f 801 731 730
f 798 799 803
f 799 804 803
f 728 729 799
f 729 800 799
f 799 800 804
f 800 805 804
f 728 733 729
f 728 732 733
f 804 805 733
f 804 733 732
f 729 805 800
f 729 733 805
f 731 802 807
f 731 807 734
f 807 808 735
f 807 735 734
f 732 809 804
f 732 736 809
f 735 808 812
f 735 812 738
f 812 813 739
f 812 739 738
f 813 814 740
f 813 740 739
f 814 815 741
f 814 741 740
f 736 737 809
f 737 810 809
f 809 810 815
f 810 816 815
f 736 742 737
f 736 741 742
f 815 816 742
f 815 742 741
f 737 816 810
f 737 742 816
f 744 745 817
f 745 818 817
f 817 818 821
f 818 822 821
f 744 817 821
f 744 821 753
f 745 746 818
f 746 819 818
f 746 747 819
f 747 820 819
f 819 820 823
f 820 824 823
f 746 755 747
f 746 754 755
f 747 824 820
f 747 755 824
f 753 821 825
f 753 825 763
f 754 765 755
f 754 764 765
f 755 826 824
f 755 765 826
f 763 825 831
f 763 831 773
f 765 832 826
f 765 775 832
f 767 768 827
f 768 828 827
f 827 828 834
f 828 835 834
f 767 827 834
f 767 834 778
f 768 769 828
f 769 829 828
f 828 829 835
f 829 836 835
f 769 770 829
f 770 830 829
f 829 830 836
f 830 837 836
f 770 837 830
f 770 779 837
f 773 831 838
f 773 838 782
f 838 839 783
f 838 783 782
f 774 785 775
f 774 784 785
f 840 841 785
f 840 785 784
f 775 841 832
f 775 785 841
f 777 778 833
f 778 834 833
f 833 834 843
f 834 844 843
f 777 833 843
f 777 843 787
f 836 837 845
f 837 846 845
f 779 846 837
f 779 788 846
f 783 839 847
f 783 847 790
f 783 791 784
f 783 790 791
f 847 848 791
f 847 791 790
f 784 848 840
f 784 791 848
f 786 787 842
f 787 843 842
f 786 842 850
f 786 850 793
f 788 852 846
f 788 794 852
f 793 850 853
f 793 853 797
f 851 852 854
f 852 855 854
f 854 855 799
f 854 799 798
f 794 855 852
f 794 799 855
f 797 853 856
f 797 856 801
f 798 857 854
f 798 803 857
f 801 856 859
f 801 859 806
f 801 807 802
f 801 806 807
f 859 860 807
f 859 807 806
f 803 804 857
f 804 858 857
f 857 858 861
f 858 862 861
f 804 862 858
f 804 809 862
f 807 860 863
f 807 863 811
f 807 812 808
f 807 811 812
f 863 864 812
f 863 812 811
f 864 865 813
f 864 813 812
f 865 866 814
f 865 814 813
f 866 867 815
f 866 815 814
f 809 867 862
f 809 815 867
f 818 819 868
f 819 869 868
f 868 869 871
f 869 872 871
f 818 868 871
f 818 871 822
f 819 872 869
f 819 823 872
f 821 822 870
f 822 871 870
f 870 871 874
f 871 875 874
f 821 870 874
f 821 874 825
f 823 824 872
f 824 873 872
f 824 876 873
f 824 826 876
f 825 874 877
f 825 877 831
f 826 878 876
f 826 832 878
f 831 877 882
f 831 882 838
f 882 883 839
f 882 839 838
f 832 884 878
f 832 841 884
f 834 835 879
f 835 880 879
f 879 880 887
f 880 888 887
f 834 879 887
f 834 887 844
f 835 836 880
f 836 881 880
f 880 881 888
f 881 889 888
f 836 889 881
f 836 845 889
f 839 883 891
f 839 891 847
f 891 892 848
f 891 848 847
f 840 849 841
f 840 848 849
f 892 893 849
f 892 849 848
f 841 893 884
f 841 849 893
f 842 843 885
f 843 886 885
f 885 886 894
f 886 895 894
f 842 885 894
f 842 894 850
f 843 844 886
f 844 887 886
f 886 887 895
f 887 896 895
f 887 888 896
f 888 897 896
f 888 889 897
f 889 898 897
f 845 846 889
f 846 890 889
f 889 890 898
f 890 899 898
f 898 899 852
f 898 852 851
f 846 899 890
f 846 852 899
f 850 894 900
f 850 900 853
f 851 901 898
f 851 854 901
f 853 900 903
f 853 903 856
f 854 855 901
f 855 902 901
f 901 902 904
f 902 905 904
f 854 858 855
f 854 857 858
f 904 905 858
f 904 858 857
f 855 905 902
f 855 858 905
f 856 903 906
f 856 906 859
f 906 907 860
f 906 860 859
f 857 908 904
f 857 861 908
f 860 907 910
f 860 910 863
f 910 911 864
f 910 864 863
f 911 912 865
f 911 865 864
f 912 913 866
f 912 866 865
f 861 862 908
f 862 909 908
f 913 914 867
f 913 867 866
f 862 914 909
f 862 867 914
f 871 872 924
f 872 925 924
f 871 924 928
f 871 928 875
f 872 873 925
f 873 926 925
f 873 929 926
f 873 876 929
f 874 875 927
f 875 928 927
f 874 927 931
f 874 931 877
f 876 932 929
f 876 878 932
f 877 931 934
f 877 934 882
f 934 935 883
f 934 883 882
f 878 936 932
f 878 884 936
f 883 935 937
f 883 937 891
f 937 938 892
f 937 892 891
f 938 939 893
f 938 893 892
f 884 939 936
f 884 893 939
f 894 895 940
f 895 941 940
f 894 940 945
f 894 945 900
f 895 896 941
f 896 942 941
f 896 897 942
f 897 943 942
f 897 898 943
f 898 944 943
f 898 946 944
f 898 901 946
f 900 945 947
f 900 947 903
f 901 948 946
f 901 904 948
f 903 947 950
f 903 950 906
f 950 951 907
f 950 907 906
f 904 905 948
f 905 949 948
f 948 949 952
f 949 953 952
f 904 909 905
f 904 908 909
f 905 953 949
f 905 909 953
f 907 951 955
f 907 955 910
f 955 956 911
f 955 911 910
f 909 958 953
f 909 914 958
f 911 956 960
f 911 960 915
f 911 916 912
f 911 915 916
f 912 917 913
f 912 916 917
f 957 958 961
f 958 962 961
f 913 918 914
f 913 917 918
f 914 962 958
f 914 918 962
f 915 960 963
f 915 963 919
f 915 920 916
f 915 919 920
f 963 964 920
f 963 920 919
f 916 921 917
f 916 920 921
f 964 965 921
f 964 921 920
f 917 922 918
f 917 921 922
f 965 966 922
f 965 922 921
f 918 966 962
f 918 922 966
f 923 924 967
f 924 968 967
f 967 968 972
f 968 973 972
f 923 967 972
f 923 972 927
f 923 928 924
f 923 927 928
f 924 925 968
f 925 969 968
f 925 926 969
f 926 970 969
f 969 970 974
f 970 975 974
f 926 975 970
f 926 929 975
f 927 972 977
f 927 977 931
f 929 979 975
f 929 932 979
f 930 931 976
f 931 977 976
f 976 977 980
f 977 981 980
f 930 976 980
f 930 980 933
f 930 934 931
f 930 933 934
f 980 981 934
f 980 934 933
f 977 978 981
f 978 982 981
f 981 982 935
f 981 935 934
f 932 984 979
f 932 936 984
f 935 982 985
f 935 985 937
f 985 986 938
f 985 938 937
f 983 984 986
f 984 987 986
f 986 987 939
f 986 939 938
f 936 987 984
f 936 939 987
f 940 941 988
f 941 989 988
f 988 989 993
f 989 994 993
f 940 988 993
f 940 993 945
f 941 942 989
f 942 990 989
f 942 943 990
f 943 991 990
f 943 944 991
f 944 992 991
f 991 992 995
f 992 996 995
f 944 996 992
f 944 946 996
f 945 993 997
f 945 997 947
f 946 998 996
f 946 948 998
f 947 997 1000
f 947 1000 950
f 948 1003 998
f 948 952 1003
f 1000 1001 1005
f 1001 1006 1005
f 950 1000 1005
f 950 1005 954
f 950 955 951
f 950 954 955
f 1005 1006 955
f 1005 955 954
f 1001 1002 1006
f 1002 1007 1006
f 952 953 1003
f 953 1004 1003
f 1003 1004 1009
f 1004 1010 1009
f 1009 1010 958
f 1009 958 957
f 953 1010 1004
f 953 958 1010
f 1006 1007 1011
f 1007 1012 1011
f 955 1006 1011
f 955 1011 959
f 955 960 956
f 955 959 960
f 1011 1012 960
f 1011 960 959
f 1007 1008 1012
f 1008 1013 1012
f 1008 1009 1013
f 1009 1014 1013
f 957 1014 1009
f 957 961 1014
f 1012 1013 1016
f 1013 1017 1016
f 960 1012 1016
f 960 1016 963
f 1016 1017 964
f 1016 964 963
f 1013 1014 1017
f 1014 1018 1017
f 1017 1018 965
f 1017 965 964
f 961 962 1014
f 962 1015 1014
f 1014 1015 1018
f 1015 1019 1018
f 1018 1019 966
f 1018 966 965
f 962 1019 1015
f 962 966 1019
f 968 969 1040
f 969 1041 1040
f 968 1040 1044
f 968 1044 973
f 969 1045 1041
f 969 974 1045
f 971 972 1042
f 972 1043 1042
f 971 1042 1047
f 971 1047 976
f 971 977 972
f 971 976 977
f 1047 1048 977
f 1047 977 976
f 972 973 1043
f 973 1044 1043
f 1048 1049 978
f 1048 978 977
f 974 975 1045
f 975 1046 1045
f 975 1050 1046
f 975 979 1050
f 978 1049 1053
f 978 1053 982
f 1054 1055 984
f 1054 984 983
f 979 1055 1050
f 979 984 1055
f 982 1053 1056
f 982 1056 985
f 1056 1057 986
f 1056 986 985
f 983 1057 1054
f 983 986 1057
f 989 990 1059
f 990 1060 1059
f 1059 1060 1063
f 1060 1064 1063
f 989 1059 1063
f 989 1063 994
f 990 991 1060
f 991 1061 1060
f 1060 1061 1064
f 1061 1065 1064
f 991 1065 1061
f 991 995 1065
f 993 994 1062
f 994 1063 1062
f 1062 1063 1067
f 1063 1068 1067
f 993 1062 1067
f 993 1067 997
f 995 996 1065
f 996 1066 1065
f 1065 1066 1069
f 1066 1070 1069
f 996 1070 1066
f 996 998 1070
f 997 1067 1072
f 997 1072 1000
f 1072 1073 1001
f 1072 1001 1000
f 1073 1074 1002
f 1073 1002 1001
f 998 999 1070
f 999 1071 1070
f 1070 1071 1075
f 1071 1076 1075
f 998 1004 999
f 998 1003 1004
f 1075 1076 1004
f 1075 1004 1003
f 999 1076 1071
f 999 1004 1076
f 1002 1074 1077
f 1002 1077 1007
f 1077 1078 1008
f 1077 1008 1007
f 1078 1079 1009
f 1078 1009 1008
f 1003 1079 1075
f 1003 1009 1079
f 1017 1018 1080
f 1018 1081 1080
f 1017 1080 1088
f 1017 1088 1025
f 1017 1026 1018
f 1017 1025 1026
f 1088 1089 1026
f 1088 1026 1025
f 1018 1019 1081
f 1019 1082 1081
f 1018 1027 1019
f 1018 1026 1027
f 1019 1020 1082
f 1020 1083 1082
f 1019 1028 1020
f 1019 1027 1028
f 1020 1021 1083
f 1021 1084 1083
f 1020 1029 1021
f 1020 1028 1029
f 1021 1022 1084
f 1022 1085 1084
f 1021 1030 1022
f 1021 1029 1030
f 1022 1023 1085
f 1023 1086 1085
f 1022 1031 1023
f 1022 1030 1031
f 1090 1091 1031
f 1090 1031 1030
f 1023 1024 1086
f 1024 1087 1086
f 1023 1032 1024
f 1023 1031 1032
f 1091 1092 1032
f 1091 1032 1031
f 1024 1092 1087
f 1024 1032 1092
f 1026 1089 1094
f 1026 1094 1033
f 1026 1034 1027
f 1026 1033 1034
f 1094 1095 1034
f 1094 1034 1033
f 1027 1035 1028
f 1027 1034 1035
f 1095 1096 1035
f 1095 1035 1034
f 1028 1036 1029
f 1028 1035 1036
f 1096 1097 1036
f 1096 1036 1035
f 1029 1037 1030
f 1029 1036 1037
f 1097 1098 1037
f 1097 1037 1036
f 1030 1098 1090
f 1030 1037 1098
f 1038 1039 1101
f 1039 1102 1101
f 1101 1102 1106
f 1102 1107 1106
f 1038 1101 1106
f 1038 1106 1042
f 1038 1043 1039
f 1038 1042 1043
f 1039 1040 1102
f 1040 1103 1102
f 1039 1044 1040
f 1039 1043 1044
f 1040 1041 1103
f 1041 1104 1103
f 1041 1108 1104
f 1041 1045 1108
f 1106 1107 1110
f 1107 1111 1110
f 1042 1106 1110
f 1042 1110 1047
f 1045 1046 1108
f 1046 1109 1108
f 1046 1113 1109
f 1046 1050 1113
f 1110 1111 1114
f 1111 1115 1114
f 1047 1110 1114
f 1047 1114 1051
f 1047 1052 1048
f 1047 1051 1052
f 1114 1115 1052
f 1114 1052 1051
f 1111 1112 1115
f 1112 1116 1115
f 1048 1053 1049
f 1048 1052 1053
f 1115 1116 1053
f 1115 1053 1052
f 1050 1118 1113
f 1050 1055 1118
f 1116 1117 1119
f 1117 1120 1119
f 1053 1116 1119
f 1053 1119 1056
f 1119 1120 1057
f 1119 1057 1056
f 1117 1118 1120
f 1118 1121 1120
f 1054 1058 1055
f 1054 1057 1058
f 1120 1121 1058
f 1120 1058 1057
f 1055 1121 1118
f 1055 1058 1121
f 1063 1064 1122
f 1064 1123 1122
f 1122 1123 1126
f 1123 1127 1126
f 1063 1122 1126
f 1063 1126 1068
f 1064 1065 1123
f 1065 1124 1123
f 1123 1124 1127
f 1124 1128 1127
f 1065 1128 1124
f 1065 1069 1128
f 1067 1068 1125
f 1068 1126 1125
f 1125 1126 1130
f 1126 1131 1130
f 1067 1125 1130
f 1067 1130 1072
f 1130 1131 1073
f 1130 1073 1072
f 1126 1127 1131
f 1127 1132 1131
f 1131 1132 1074
f 1131 1074 1073
f 1127 1128 1132
f 1128 1133 1132
f 1069 1070 1128
f 1070 1129 1128
f 1128 1129 1133
f 1129 1134 1133
f 1070 1134 1129
f 1070 1075 1134
f 1132 1133 1136
f 1133 1137 1136
f 1074 1132 1136
f 1074 1136 1077
f 1136 1137 1078
f 1136 1078 1077
f 1133 1134 1137
f 1134 1138 1137
f 1137 1138 1079
f 1137 1079 1078
f 1075 1138 1134
f 1075 1079 1138
f 1080 1081 1140
f 1081 1141 1140
f 1080 1140 1149
f 1080 1149 1088
f 1081 1082 1141
f 1082 1142 1141
f 1082 1083 1142
f 1083 1143 1142
f 1083 1084 1143
f 1084 1144 1143
f 1084 1085 1144
f 1085 1145 1144
f 1144 1145 1150
f 1145 1151 1150
f 1085 1086 1145
f 1086 1146 1145
f 1145 1146 1151
f 1146 1152 1151
f 1086 1087 1146
f 1087 1147 1146
f 1146 1147 1152
f 1147 1153 1152
f 1087 1153 1147
f 1087 1092 1153
f 1088 1149 1155
f 1088 1155 1093
f 1088 1094 1089
f 1088 1093 1094
f 1155 1156 1094
f 1155 1094 1093
f 1156 1157 1095
f 1156 1095 1094
f 1157 1158 1096
f 1157 1096 1095
f 1158 1159 1097
f 1158 1097 1096
f 1159 1160 1098
f 1159 1098 1097
f 1090 1099 1091
f 1090 1098 1099
f 1160 1161 1099
f 1160 1099 1098
f 1152 1153 1161
f 1153 1162 1161
f 1091 1100 1092
f 1091 1099 1100
f 1161 1162 1100
f 1161 1100 1099
f 1092 1162 1153
f 1092 1100 1162
f 1102 1103 1175
f 1103 1176 1175
f 1102 1175 1181
f 1102 1181 1107
f 1103 1104 1176
f 1104 1177 1176
f 1104 1105 1177
f 1105 1178 1177
f 1104 1109 1105
f 1104 1108 1109
f 1105 1182 1178
f 1105 1109 1182
f 1107 1181 1183
f 1107 1183 1111
f 1183 1184 1112
f 1183 1112 1111
f 1109 1185 1182
f 1109 1113 1185
f 1112 1184 1186
f 1112 1186 1116
f 1186 1187 1117
f 1186 1117 1116
f 1187 1188 1118
f 1187 1118 1117
f 1113 1188 1185
f 1113 1118 1188
f 1131 1132 1193
f 1132 1194 1193
f 1131 1193 1196
f 1131 1196 1135
f 1131 1136 1132
f 1131 1135 1136
f 1196 1197 1136
f 1196 1136 1135
f 1132 1197 1194
f 1132 1136 1197
f 1139 1140 1198
f 1140 1199 1198
f 1139 1198 1206
f 1139 1206 1148
f 1139 1149 1140
f 1139 1148 1149
f 1140 1141 1199
f 1141 1200 1199
f 1141 1142 1200
f 1142 1201 1200
f 1142 1143 1201
f 1143 1202 1201
f 1143 1144 1202
f 1144 1203 1202
f 1144 1207 1203
f 1144 1150 1207
f 1148 1206 1212
f 1148 1212 1154
f 1148 1155 1149
f 1148 1154 1155
f 1212 1213 1155
f 1212 1155 1154
f 1150 1151 1207
f 1151 1208 1207
f 1151 1152 1208
f 1152 1209 1208
f 1152 1214 1209
f 1152 1161 1214
f 1155 1213 1218
f 1155 1218 1164
f 1155 1165 1156
f 1155 1164 1165
f 1218 1219 1165
f 1218 1165 1164
f 1156 1166 1157
f 1156 1165 1166
f 1219 1220 1166
f 1219 1166 1165
f 1157 1167 1158
f 1157 1166 1167
f 1220 1221 1167
f 1220 1167 1166
f 1158 1168 1159
f 1158 1167 1168
f 1221 1222 1168
f 1221 1168 1167
f 1159 1169 1160
f 1159 1168 1169
f 1222 1223 1169
f 1222 1169 1168
f 1160 1170 1161
f 1160 1169 1170
f 1223 1224 1170
f 1223 1170 1169
f 1161 1162 1214
f 1162 1215 1214
f 1161 1171 1162
f 1161 1170 1171
f 1224 1225 1171
f 1224 1171 1170
f 1162 1163 1215
f 1163 1216 1215
f 1162 1172 1163
f 1162 1171 1172
f 1225 1226 1172
f 1225 1172 1171
f 1163 1226 1216
f 1163 1172 1226
f 1173 1174 1230
f 1174 1231 1230
f 1230 1231 1236
f 1231 1237 1236
f 1173 1230 1236
f 1173 1236 1179
f 1173 1180 1174
f 1173 1179 1180
f 1236 1237 1180
f 1236 1180 1179
f 1174 1175 1231
f 1175 1232 1231
f 1231 1232 1237
f 1232 1238 1237
f 1174 1181 1175
f 1174 1180 1181
f 1237 1238 1181
f 1237 1181 1180
f 1175 1176 1232
f 1176 1233 1232
f 1232 1233 1238
f 1233 1239 1238
f 1176 1177 1233
f 1177 1234 1233
f 1233 1234 1239
f 1234 1240 1239
f 1177 1178 1234
f 1178 1235 1234
f 1234 1235 1240
f 1235 1241 1240
f 1178 1241 1235
f 1178 1182 1241
f 1181 1238 1242
f 1181 1242 1183
f 1242 1243 1184
f 1242 1184 1183
f 1182 1245 1241
f 1182 1185 1245
f 1243 1244 1246
f 1244 1247 1246
f 1184 1243 1246
f 1184 1246 1186
f 1246 1247 1187
f 1246 1187 1186
f 1244 1245 1247
f 1245 1248 1247
f 1247 1248 1188
f 1247 1188 1187
f 1185 1248 1245
f 1185 1188 1248
f 1189 1190 1257
f 1190 1258 1257
f 1257 1258 1263
f 1258 1264 1263
f 1189 1257 1263
f 1189 1263 1192
f 1189 1193 1190
f 1189 1192 1193
f 1190 1191 1258
f 1191 1259 1258
f 1258 1259 1264
f 1259 1265 1264
f 1190 1194 1191
f 1190 1193 1194
f 1191 1265 1259
f 1191 1194 1265
f 1192 1263 1268
f 1192 1268 1195
f 1192 1196 1193
f 1192 1195 1196
f 1268 1269 1196
f 1268 1196 1195
f 1269 1270 1197
f 1269 1197 1196
f 1194 1270 1265
f 1194 1197 1270
f 1198 1199 1271
f 1199 1272 1271
f 1271 1272 1279
f 1272 1280 1279
f 1198 1271 1279
f 1198 1279 1206
f 1199 1200 1272
f 1200 1273 1272
f 1200 1201 1273
f 1201 1274 1273
f 1201 1202 1274
f 1202 1275 1274
f 1202 1203 1275
f 1203 1276 1275
f 1203 1204 1276
f 1204 1277 1276
f 1203 1208 1204
f 1203 1207 1208
f 1204 1281 1277
f 1204 1208 1281
f 1205 1206 1278
f 1206 1279 1278
f 1278 1279 1284
f 1279 1285 1284
f 1205 1278 1284
f 1205 1284 1211
f 1205 1212 1206
f 1205 1211 1212
f 1284 1285 1212
f 1284 1212 1211
f 1279 1280 1285
f 1280 1286 1285
f 1208 1209 1281
f 1209 1282 1281
f 1209 1210 1282
f 1210 1283 1282
f 1209 1215 1210
f 1209 1214 1215
f 1210 1288 1283
f 1210 1215 1288
f 1285 1286 1290
f 1286 1291 1290
f 1212 1285 1290
f 1212 1290 1217
f 1212 1218 1213
f 1212 1217 1218
f 1290 1291 1218
f 1290 1218 1217
f 1286 1287 1291
f 1287 1292 1291
f 1291 1292 1219
f 1291 1219 1218
f 1292 1293 1220
f 1292 1220 1219
f 1295 1296 1223
f 1295 1223 1222
f 1296 1297 1224
f 1296 1224 1223
f 1297 1298 1225
f 1297 1225 1224
f 1215 1216 1288
f 1216 1289 1288
f 1288 1289 1298
f 1289 1299 1298
f 1298 1299 1226
f 1298 1226 1225
f 1216 1299 1289
f 1216 1226 1299
f 1293 1294 1300
f 1294 1301 1300
f 1220 1293 1300
f 1220 1300 1227
f 1220 1228 1221
f 1220 1227 1228
f 1300 1301 1228
f 1300 1228 1227
f 1294 1295 1301
f 1295 1302 1301
f 1221 1229 1222
f 1221 1228 1229
f 1301 1302 1229
f 1301 1229 1228
f 1222 1302 1295
f 1222 1229 1302
f 1238 1239 1303
f 1239 1304 1303
f 1303 1304 1307
f 1304 1308 1307
f 1238 1303 1307
f 1238 1307 1242
f 1307 1308 1243
f 1307 1243 1242
f 1239 1240 1304
f 1240 1305 1304
f 1304 1305 1308
f 1305 1309 1308
f 1308 1309 1244
f 1308 1244 1243
f 1240 1241 1305
f 1241 1306 1305
f 1305 1306 1309
f 1306 1310 1309
f 1309 1310 1245
f 1309 1245 1244
f 1241 1310 1306
f 1241 1245 1310
f 1249 1250 1316
f 1250 1317 1316
f 1316 1317 1322
f 1317 1323 1322
f 1249 1316 1322
f 1249 1322 1255
f 1249 1256 1250
f 1249 1255 1256
f 1322 1323 1256
f 1322 1256 1255
f 1250 1251 1317
f 1251 1318 1317
f 1250 1257 1251
f 1250 1256 1257
f 1323 1324 1257
f 1323 1257 1256
f 1251 1252 1318
f 1252 1319 1318
f 1251 1258 1252
f 1251 1257 1258
f 1324 1325 1258
f 1324 1258 1257
f 1252 1253 1319
f 1253 1320 1319
f 1252 1259 1253
f 1252 1258 1259
f 1325 1326 1259
f 1325 1259 1258
f 1253 1254 1320
f 1254 1321 1320
f 1253 1260 1254
f 1253 1259 1260
f 1326 1327 1260
f 1326 1260 1259
f 1254 1327 1321
f 1254 1260 1327
f 1261 1262 1328
f 1262 1329 1328
f 1328 1329 1333
f 1329 1334 1333
f 1261 1328 1333
f 1261 1333 1266
f 1261 1267 1262
f 1261 1266 1267
f 1333 1334 1267
f 1333 1267 1266
f 1262 1263 1329
f 1263 1330 1329
f 1329 1330 1334
f 1330 1335 1334
f 1262 1268 1263
f 1262 1267 1268
f 1334 1335 1268
f 1334 1268 1267
f 1263 1264 1330
f 1264 1331 1330
f 1330 1331 1335
f 1331 1336 1335
f 1335 1336 1269
f 1335 1269 1268
f 1264 1265 1331
f 1265 1332 1331
f 1331 1332 1336
f 1332 1337 1336
f 1336 1337 1270
f 1336 1270 1269
f 1265 1337 1332
f 1265 1270 1337
f 1272 1273 1338
f 1273 1339 1338
f 1338 1339 1344
f 1339 1345 1344
f 1272 1338 1344
f 1272 1344 1280
f 1273 1274 1339
f 1274 1340 1339
f 1339 1340 1345
f 1340 1346 1345
f 1274 1275 1340
f 1275 1341 1340
f 1340 1341 1346
f 1341 1347 1346
f 1275 1276 1341
f 1276 1342 1341
f 1341 1342 1347
f 1342 1348 1347
f 1276 1277 1342
f 1277 1343 1342
f 1342 1343 1348
f 1343 1349 1348
f 1277 1349 1343
f 1277 1281 1349
f 1344 1345 1352
f 1345 1353 1352
f 1280 1344 1352
f 1280 1352 1286
f 1352 1353 1287
f 1352 1287 1286
f 1345 1346 1353
f 1346 1354 1353
f 1348 1349 1356
f 1349 1357 1356
f 1281 1282 1349
f 1282 1350 1349
f 1349 1350 1357
f 1350 1358 1357
f 1282 1283 1350
f 1283 1351 1350
f 1350 1351 1358
f 1351 1359 1358
f 1283 1359 1351
f 1283 1288 1359
f 1353 1354 1360
f 1354 1361 1360
f 1287 1353 1360
f 1287 1360 1292
f 1360 1361 1293
f 1360 1293 1292
f 1354 1355 1361
f 1355 1362 1361
f 1361 1362 1294
f 1361 1294 1293
f 1355 1356 1362
f 1356 1363 1362
f 1362 1363 1295
f 1362 1295 1294
f 1356 1357 1363
f 1357 1364 1363
f 1363 1364 1296
f 1363 1296 1295
f 1357 1358 1364
f 1358 1365 1364
f 1364 1365 1297
f 1364 1297 1296
f 1358 1359 1365
f 1359 1366 1365
f 1365 1366 1298
f 1365 1298 1297
f 1288 1366 1359
f 1288 1298 1366
f 1311 1312 1367
f 1312 1368 1367
f 1367 1368 1372
f 1368 1373 1372
f 1311 1367 1372
f 1311 1372 1316
f 1311 1317 1312
f 1311 1316 1317
f 1372 1373 1317
f 1372 1317 1316
f 1312 1313 1368
f 1313 1369 1368
f 1368 1369 1373
f 1369 1374 1373
f 1312 1318 1313
f 1312 1317 1318
f 1313 1314 1369
f 1314 1370 1369
f 1369 1370 1374
f 1370 1375 1374
f 1313 1319 1314
f 1313 1318 1319
f 1314 1315 1370
f 1315 1371 1370
f 1370 1371 1375
f 1371 1376 1375
f 1314 1320 1315
f 1314 1319 1320
f 1315 1376 1371
f 1315 1320 1376
f 1373 1374 1379
f 1374 1380 1379
f 1317 1373 1379
f 1317 1379 1323
f 1374 1375 1380
f 1375 1381 1380
f 1375 1376 1381
f 1376 1382 1381
f 1320 1321 1376
f 1321 1377 1376
f 1376 1377 1382
f 1377 1383 1382
f 1382 1383 1327
f 1382 1327 1326
f 1321 1383 1377
f 1321 1327 1383
f 1322 1323 1378
f 1323 1379 1378
f 1378 1379 1384
f 1379 1385 1384
f 1322 1378 1384
f 1322 1384 1328
f 1322 1329 1323
f 1322 1328 1329
f 1384 1385 1329
f 1384 1329 1328
f 1379 1380 1385
f 1380 1386 1385
f 1323 1330 1324
f 1323 1329 1330
f 1385 1386 1330
f 1385 1330 1329
f 1380 1381 1386
f 1381 1387 1386
f 1324 1331 1325
f 1324 1330 1331
f 1386 1387 1331
f 1386 1331 1330
f 1381 1382 1387
f 1382 1388 1387
f 1325 1332 1326
f 1325 1331 1332
f 1387 1388 1332
f 1387 1332 1331
f 1326 1388 1382
f 1326 1332 1388
f 1346 1347 1389
f 1347 1390 1389
f 1389 1390 1392
f 1390 1393 1392
f 1346 1389 1392
f 1346 1392 1354
f 1392 1393 1355
f 1392 1355 1354
f 1347 1348 1390
f 1348 1391 1390
f 1390 1391 1393
f 1391 1394 1393
f 1393 1394 1356
f 1393 1356 1355
f 1348 1394 1391
f 1348 1356 1394